{"glyphs":{"0":{"ha":892,"x_min":9,"x_max":848,"o":"m 848 315 q 827 183 846 239 q 673 33 783 49 l 590 0 q 516 3 545 3 q 476 0 488 3 q 403 12 441 0 q 357 24 365 24 q 323 0 336 24 q 297 -4 308 -4 q 270 16 273 -4 q 264 56 267 36 q 261 58 264 58 q 223 26 254 58 q 37 183 37 119 q 20 286 29 203 q 9 484 9 385 q 58 798 9 690 q 136 745 87 777 q 151 741 143 741 q 215 775 179 741 l 239 758 q 239 768 239 764 q 215 796 239 792 l 212 796 q 181 776 197 796 q 150 751 163 753 l 146 751 q 69 803 120 751 q 228 960 149 939 q 488 1006 311 1006 q 591 994 559 1006 q 673 954 640 991 q 734 888 729 892 q 817 585 786 848 q 817 576 817 581 q 803 493 817 549 q 787 444 789 448 l 785 441 q 806 481 789 441 q 827 521 823 521 q 827 519 827 521 q 843 403 840 481 q 848 315 846 325 m 579 315 q 582 463 582 318 q 541 726 582 686 q 435 746 460 746 q 359 715 385 746 q 283 681 322 710 q 243 618 243 650 l 243 614 q 243 602 243 609 q 240 536 243 581 q 235 446 235 472 q 255 376 235 382 l 255 372 q 322 267 255 316 q 389 228 375 228 q 410 240 389 229 q 432 252 432 251 q 479 244 452 244 q 579 315 561 244 m 199 103 l 94 187 q 134 126 104 165 q 199 103 154 111 z "},"1":{"ha":519,"x_min":-12,"x_max":478,"o":"m 429 253 q 405 244 429 249 q 380 237 380 240 q 437 216 406 227 q 452 151 442 191 q 466 123 458 138 q 478 82 478 98 q 456 50 478 60 q 324 9 412 33 q 153 -20 212 -20 q 102 0 107 -20 q 97 82 97 18 q 107 361 97 174 l 160 382 q 111 393 111 383 l 111 393 q 114 479 114 440 q 78 659 114 611 q -12 701 56 688 q 45 857 17 779 q 115 978 87 972 q 267 986 188 979 q 290 996 277 996 q 327 987 300 996 q 370 979 353 979 q 408 988 385 979 q 442 997 431 997 q 464 977 464 997 q 463 966 464 972 q 445 775 456 957 q 433 582 433 611 q 429 253 433 559 m 414 905 l 355 937 q 412 838 403 890 l 414 905 m 178 192 q 161 151 170 171 q 138 102 140 102 l 137 100 q 140 102 138 102 q 165 111 145 102 l 178 192 z "},"2":{"ha":948,"x_min":0,"x_max":908,"o":"m 511 607 q 550 589 522 589 q 608 646 595 589 q 611 688 611 650 q 575 749 611 745 q 546 751 551 751 l 546 774 q 562 892 546 852 l 526 818 l 522 751 q 345 736 403 736 q 309 741 317 736 q 8 633 139 713 q 17 681 17 648 q 10 767 17 705 q 3 857 3 829 q 22 928 3 913 q 243 978 69 954 q 519 1002 406 1002 q 591 994 574 1002 q 686 937 640 991 q 760 854 753 860 q 840 762 815 812 q 878 646 857 730 q 842 538 867 585 q 673 412 783 428 l 571 400 q 376 370 486 389 l 335 254 q 374 300 345 261 q 693 313 550 311 q 697 290 697 313 q 701 267 697 267 q 724 290 705 267 q 746 313 742 313 q 896 282 896 311 q 908 102 908 239 q 880 -28 908 -17 l 879 -28 q 711 12 864 -28 q 476 54 556 54 q 458 53 467 54 q 233 12 396 49 q 49 -21 79 -21 q 31 -16 32 -21 q 118 93 31 -3 q 0 0 0 26 l 0 78 q 17 196 8 142 q 64 389 39 326 q 176 530 98 475 q 304 593 233 572 q 372 611 351 606 q 511 607 498 607 m 619 126 q 584 113 610 125 q 534 103 561 103 l 528 103 q 557 86 528 98 l 560 86 q 619 126 589 86 z "},"3":{"ha":937,"x_min":0,"x_max":901,"o":"m 167 701 q 89 762 136 710 q 93 779 93 770 q 51 881 93 810 q 8 966 8 951 q 18 978 8 977 q 121 985 50 985 l 146 985 l 279 981 q 311 983 309 982 l 340 957 l 363 983 q 625 975 429 975 q 794 986 771 975 q 819 993 810 993 q 842 962 842 993 q 836 928 842 947 q 711 612 711 663 q 717 603 711 603 q 900 300 847 595 q 901 273 901 286 q 829 75 901 158 q 684 -3 760 -3 q 663 0 672 -3 q 635 58 639 58 q 635 56 635 58 q 629 16 632 36 q 602 -4 625 -4 q 575 0 590 -4 q 526 24 562 24 q 452 12 507 24 q 366 0 397 0 q 321 17 343 7 l 218 29 q 0 237 54 52 q 17 265 8 252 q 104 298 65 285 q 233 336 200 334 q 286 340 283 340 q 339 311 323 340 q 440 248 359 248 q 521 260 476 248 q 566 259 566 260 l 559 258 q 606 283 600 261 q 616 315 606 293 q 627 347 627 338 q 557 380 627 376 l 497 380 q 291 397 298 380 q 283 436 283 416 q 298 460 285 460 q 289 488 298 463 q 273 549 273 522 q 290 599 273 578 q 362 611 297 607 q 433 624 427 615 q 517 739 475 681 q 496 741 506 741 q 446 703 446 741 l 446 701 q 349 694 446 694 l 314 694 q 167 701 187 696 m 192 58 l 132 135 q 72 191 89 191 q 64 176 64 191 q 192 58 64 132 z "},"4":{"ha":899,"x_min":1,"x_max":860,"o":"m 811 262 q 786 254 811 257 q 761 248 761 250 q 818 227 786 235 q 833 161 823 200 q 847 134 840 147 q 860 92 860 109 q 838 60 860 68 q 704 20 793 41 q 533 -9 591 -9 q 482 9 488 -9 q 477 84 477 26 q 489 371 477 176 q 475 370 484 370 q 323 366 448 370 q 178 351 275 363 q 66 340 94 340 q 31 351 33 340 q 118 459 31 363 l 14 362 q 9 635 14 408 l 8 633 q 15 688 15 648 q 8 802 15 720 q 1 917 1 885 q 18 978 1 974 q 102 984 47 984 q 140 983 119 984 l 252 981 l 265 981 q 311 983 309 981 l 340 957 l 362 983 q 378 869 378 960 q 364 701 378 728 l 371 673 q 358 632 358 642 q 326 616 358 623 q 278 635 310 618 q 216 660 253 660 l 210 657 q 271 619 233 657 q 359 604 286 604 q 431 606 364 604 q 497 607 498 607 q 488 643 494 607 q 494 696 494 657 q 497 758 494 729 q 500 818 500 786 q 517 879 500 875 q 648 887 570 879 q 672 896 659 896 q 708 888 682 896 q 751 880 733 880 q 789 889 766 880 q 823 899 812 899 q 845 878 845 899 q 844 868 845 873 q 830 732 838 858 q 822 576 822 607 q 811 262 822 556 m 795 807 l 736 839 q 793 739 785 790 l 795 807 m 525 111 q 547 121 526 112 l 558 197 l 525 111 z "},"5":{"ha":933,"x_min":0,"x_max":901,"o":"m 699 710 q 711 707 706 707 q 724 715 720 707 q 732 777 730 754 l 699 710 m 521 260 q 566 259 566 260 l 559 258 q 606 283 600 261 q 616 315 606 293 q 627 347 627 338 q 557 380 627 376 q 473 378 509 378 q 365 393 370 378 q 357 432 357 412 q 372 456 358 456 q 382 461 382 456 q 372 478 382 468 q 340 427 340 470 l 340 424 q 294 397 330 397 q 61 484 236 397 q 58 481 61 481 q 31 503 50 481 q 12 536 12 522 l 12 538 q 15 601 15 578 q 9 635 15 635 l 8 633 q 16 688 16 647 q 8 803 16 720 q 0 918 0 886 q 18 978 0 975 q 121 985 50 985 l 146 985 l 279 981 q 311 983 309 982 l 340 957 l 363 983 q 612 975 429 975 q 774 986 750 975 q 799 993 789 993 q 821 962 821 993 q 815 928 821 947 q 781 828 812 924 q 739 694 750 733 q 713 689 737 689 q 612 696 693 689 q 492 703 532 703 q 406 673 415 703 l 399 675 q 383 692 399 679 q 372 704 372 700 q 378 713 372 705 q 386 730 383 721 q 388 741 388 736 q 358 775 388 760 q 375 732 375 749 q 364 701 375 724 l 371 673 q 358 632 358 642 q 326 616 358 623 q 278 635 310 618 q 330 611 290 623 q 372 604 359 604 l 490 607 q 496 604 496 607 q 503 562 496 596 q 536 616 511 583 q 657 627 551 627 l 684 627 q 688 615 684 619 q 717 603 696 604 q 900 300 847 595 q 901 273 901 286 q 829 75 901 158 q 684 -3 760 -3 q 663 0 672 -3 q 635 58 639 58 q 635 56 635 58 q 629 16 632 36 q 602 -4 625 -4 q 575 0 590 -4 q 526 24 562 24 q 452 12 507 24 q 366 0 397 0 q 321 17 343 7 l 218 29 q 0 237 54 52 q 17 265 8 252 q 104 298 65 285 q 233 336 200 334 q 286 340 283 340 q 339 311 323 340 q 440 248 359 248 q 521 260 476 248 m 192 58 l 132 135 q 72 191 89 191 q 64 176 64 191 q 192 58 64 132 z "},"6":{"ha":869,"x_min":9,"x_max":848,"o":"m 848 315 q 827 183 846 239 q 673 33 783 49 l 590 0 q 516 3 545 3 q 476 0 488 3 q 403 12 441 0 q 357 24 365 24 q 323 0 336 24 q 297 -4 308 -4 q 270 16 273 -4 q 264 56 267 36 q 261 58 264 58 q 223 26 254 58 q 37 183 37 119 q 20 286 29 203 q 9 484 9 385 q 58 798 9 690 q 136 745 87 777 q 151 741 143 741 q 215 775 179 741 l 239 758 q 239 768 239 764 q 215 796 239 792 l 212 796 q 181 776 197 796 q 150 751 163 753 l 146 751 q 69 803 120 751 q 228 960 149 939 q 471 1006 304 1003 q 507 994 473 1006 q 543 982 540 982 q 545 983 545 982 q 534 993 545 985 q 526 1006 530 1000 q 591 994 569 1003 q 684 953 644 991 q 734 888 688 947 q 677 806 733 854 q 583 758 621 758 q 562 765 569 758 q 422 789 463 789 q 341 761 365 789 q 275 704 309 755 q 243 619 243 656 l 243 608 q 245 579 243 599 q 251 545 251 549 q 250 541 251 541 q 227 520 244 541 q 205 491 210 500 q 176 437 201 482 q 160 401 160 412 q 161 399 160 400 q 237 501 199 458 q 426 608 333 606 l 446 608 q 724 521 616 608 q 825 367 808 452 q 844 328 829 353 q 848 315 846 326 m 749 460 q 627 541 749 489 l 692 475 q 739 449 725 449 q 749 460 749 449 m 454 210 q 575 236 530 211 q 619 300 619 261 q 435 447 619 387 q 258 343 322 431 l 258 338 q 323 250 258 283 q 389 228 368 228 q 421 219 389 227 q 454 210 454 210 m 199 103 l 94 187 q 134 126 104 165 q 199 103 154 111 z "},"7":{"ha":868,"x_min":-3,"x_max":857,"o":"m 786 936 q 804 890 804 918 q 799 846 804 879 q 796 817 796 829 q 798 803 796 809 l 827 936 l 786 936 m 534 991 q 553 994 536 994 q 823 962 612 994 q 831 964 827 964 q 856 939 849 964 q 857 922 857 932 q 832 766 857 879 q 799 741 828 757 q 762 700 783 721 q 574 383 616 485 q 391 0 436 49 l 334 -4 q 367 52 339 1 q 396 117 396 107 q 395 119 396 119 q 377 99 388 119 q 358 78 366 78 q 340 52 350 78 q 322 25 330 25 q 167 -17 306 -17 q 81 -4 83 -17 l 81 -3 q 127 78 81 11 q 224 228 196 176 q 282 395 278 326 l 338 453 q 337 454 337 453 q 387 586 337 466 q 437 722 437 704 q 436 725 437 724 q 446 728 437 728 q 471 725 455 728 q 479 724 475 724 q 521 754 506 724 q 143 734 232 734 q 42 749 46 734 q 14 793 28 771 q -3 903 -3 829 q -3 933 -3 918 q 49 987 0 987 q 65 986 58 987 q 86 985 74 985 q 157 991 114 985 q 242 1002 227 1002 q 269 994 261 1002 q 356 979 283 979 q 494 986 382 986 q 500 937 494 971 q 534 991 509 958 z "},"8":{"ha":945,"x_min":8,"x_max":901,"o":"m 900 300 q 901 273 901 286 q 829 75 901 159 q 683 -3 760 -3 q 663 0 672 -3 q 635 58 639 58 q 635 56 635 58 q 628 16 632 36 q 601 -4 625 -4 q 575 0 590 -4 q 526 24 562 24 q 452 12 507 24 q 365 0 397 0 q 321 17 343 7 l 218 29 q 8 301 54 52 q 37 439 24 371 q 104 533 57 505 q 44 566 69 533 q 15 669 15 603 q 39 803 15 728 q 150 922 54 852 q 307 994 245 991 q 458 1010 350 1010 q 699 972 631 1010 q 787 922 711 961 q 859 860 843 892 q 852 861 855 861 q 834 835 834 861 q 835 823 834 829 q 880 676 880 791 q 867 556 880 612 q 839 496 854 500 q 818 489 830 489 q 793 493 811 489 q 771 496 779 496 q 766 496 768 496 q 753 494 760 494 q 724 497 741 494 q 690 509 697 501 q 689 515 689 510 q 694 542 689 524 q 699 559 699 556 l 699 559 q 691 567 697 559 q 683 575 686 575 q 680 570 680 574 q 671 548 679 566 q 664 521 664 530 q 679 488 664 503 q 737 466 701 466 q 762 468 749 466 q 900 300 888 461 m 791 879 l 699 932 l 682 916 l 791 879 m 586 550 q 591 549 589 549 q 616 631 616 549 q 605 719 616 679 q 578 758 594 758 q 569 755 574 758 l 549 741 q 518 736 540 736 q 376 751 469 736 l 372 818 l 336 892 q 353 774 353 851 l 353 751 q 323 749 351 751 q 288 688 288 745 q 290 646 288 650 q 349 589 304 589 q 395 607 376 589 q 447 606 400 607 l 491 604 q 586 550 491 603 m 606 283 l 561 355 q 484 389 541 389 q 432 386 469 389 q 372 383 394 383 q 314 314 314 343 q 389 262 314 278 q 451 261 387 262 q 521 260 515 260 q 566 259 566 260 l 559 258 q 606 283 600 261 m 191 58 l 132 135 q 89 193 100 193 q 83 179 83 193 q 191 58 83 135 z "},"9":{"ha":872,"x_min":-5,"x_max":833,"o":"m 806 825 q 823 722 814 806 q 833 525 833 624 q 785 211 833 318 q 707 264 755 232 q 692 268 700 268 q 628 233 664 268 l 604 250 q 604 240 604 245 q 628 212 604 216 l 631 212 q 662 233 646 212 q 693 257 680 256 l 697 257 q 774 205 724 257 q 692 96 743 151 q 587 18 631 29 q 453 -5 494 -5 q 322 33 383 -5 q 260 123 299 49 q 221 195 222 195 q 253 258 225 258 q 281 243 265 258 q 421 220 380 220 q 502 248 478 220 q 568 305 534 253 q 600 389 600 353 l 600 399 q 597 431 600 409 q 592 464 592 460 q 595 468 592 468 q 616 488 599 468 q 637 517 633 509 q 667 571 642 526 q 683 607 683 596 q 682 610 683 608 q 606 507 644 550 q 417 400 510 403 l 397 400 q 119 488 227 400 q 18 642 35 557 q -1 681 14 656 q -5 693 -3 682 q 16 825 -3 770 q 170 975 60 960 l 253 1008 q 328 1005 299 1005 q 367 1008 356 1005 q 468 997 422 1007 q 531 982 498 990 q 806 825 806 889 m 94 549 q 216 468 94 519 l 151 533 q 104 559 118 559 q 94 549 94 559 m 389 799 q 268 772 313 798 q 224 708 224 747 q 408 561 224 621 q 585 665 521 578 l 585 670 q 519 758 585 725 q 454 781 475 781 q 422 790 454 781 q 389 799 389 798 m 681 861 l 785 777 q 745 838 775 799 q 681 861 725 852 z "},"\u0000":{"ha":0,"x_min":0,"x_max":0,"o":""},"\u001d":{"ha":0,"x_min":0,"x_max":0,"o":""}," ":{"ha":694,"x_min":0,"x_max":0,"o":""}," ":{"ha":694,"x_min":0,"x_max":0,"o":""},"!":{"ha":408,"x_min":-3,"x_max":366,"o":"m 332 517 q 307 508 332 513 q 282 501 282 504 q 339 481 309 490 q 354 415 345 454 l 354 414 q 346 411 354 411 q 293 418 339 411 q 221 425 248 425 q 137 401 201 425 q 47 376 73 376 q 17 396 22 376 q 6 517 6 434 q 9 625 6 564 l 62 646 q 14 656 14 647 l 14 657 q 16 720 16 692 q 8 800 16 779 q 16 838 16 814 q 8 897 16 857 q 0 949 0 936 q 18 978 0 975 q 170 986 90 979 q 193 996 179 996 q 229 987 203 996 q 273 979 256 979 q 311 988 288 979 q 345 997 334 997 q 366 976 366 997 q 366 966 366 972 q 347 859 358 957 q 336 749 336 768 q 335 664 336 741 q 332 517 334 574 m 360 127 q 221 -20 360 14 q 195 -22 210 -22 q 71 15 136 -22 q 0 98 5 53 q -3 132 -3 115 q 62 253 -3 212 q 188 307 125 279 q 203 310 195 310 q 286 257 228 310 q 288 253 288 256 q 277 231 288 249 q 268 212 268 217 q 269 208 268 210 q 300 225 285 225 q 343 184 323 225 q 360 127 360 151 m 317 905 l 257 937 q 314 838 306 890 l 317 905 m 135 0 l 99 58 l 50 90 q 135 0 57 41 z "},"\"":{"ha":801,"x_min":7,"x_max":761,"o":"m 371 815 q 330 665 371 758 q 218 510 282 557 q 228 553 228 529 q 197 628 228 591 q 64 686 117 631 q 11 786 20 730 q 7 827 7 808 q 72 940 7 903 q 199 994 136 968 q 214 997 205 997 q 297 945 239 997 q 298 940 298 943 q 288 918 298 936 q 279 899 279 905 q 280 896 279 897 q 311 913 296 913 q 354 872 334 913 q 371 815 371 839 m 146 688 l 110 746 l 61 778 q 146 688 68 729 m 761 827 q 721 676 761 770 q 608 521 672 568 q 618 564 618 541 q 587 639 618 603 q 454 697 507 642 q 401 798 411 742 q 397 838 397 819 q 463 951 397 914 q 589 1006 526 979 q 604 1008 595 1008 q 688 956 629 1008 q 689 951 689 954 q 678 929 689 947 q 669 910 669 916 q 671 907 669 908 q 701 924 686 924 q 744 884 725 924 q 761 827 761 850 m 536 699 l 500 757 l 451 789 q 536 699 458 741 z "},"#":{"ha":795,"x_min":7,"x_max":751,"o":"m 418 454 q 418 469 418 463 q 415 490 418 490 q 407 543 407 494 l 407 558 q 333 551 380 555 l 329 453 l 396 453 q 418 454 399 453 m 460 918 l 615 926 q 651 899 651 922 q 647 794 651 890 q 714 791 680 793 q 723 793 719 793 q 747 768 741 793 q 749 751 749 762 q 724 596 749 709 q 690 570 720 586 q 637 566 682 567 l 633 478 q 664 479 651 479 q 705 468 703 479 q 733 424 720 446 q 751 313 751 387 q 750 283 751 299 q 699 229 747 229 q 682 231 689 229 q 662 232 672 232 q 621 227 642 232 q 615 161 616 167 q 567 135 611 149 q 485 121 522 121 q 447 129 457 121 q 387 178 420 153 q 396 236 389 191 q 366 235 378 235 q 337 237 341 235 q 330 279 337 245 q 318 253 328 272 q 311 153 314 160 q 262 126 307 140 q 180 113 218 113 q 143 121 153 113 q 83 170 117 144 q 90 221 85 179 l 44 222 q 35 221 39 221 q 11 245 18 221 q 9 262 9 252 q 35 418 9 305 q 68 444 39 428 q 114 449 75 446 q 115 463 115 457 q 111 482 115 481 q 102 534 102 486 q 53 546 56 534 q 25 590 39 568 q 7 701 7 627 q 8 730 7 715 q 60 785 11 785 q 77 783 69 785 q 104 782 89 782 q 117 860 109 854 q 155 909 126 865 l 311 918 q 347 890 347 914 q 343 777 347 880 q 360 776 353 776 q 374 777 368 776 l 408 778 q 421 868 412 863 q 460 918 431 873 z "},"$":{"ha":915,"x_min":-5,"x_max":890,"o":"m 890 301 q 839 224 869 257 q 667 126 768 142 q 517 81 611 98 q 515 49 515 60 q 517 35 515 37 l 528 5 q 505 0 528 0 q 267 -22 475 0 q 246 0 257 -16 l 246 3 q 253 96 246 18 q 203 92 218 92 q 103 142 139 92 l 127 199 q 78 154 89 154 q 26 179 58 154 q -5 224 -5 204 q 18 262 -5 244 q 53 277 36 269 q 114 315 93 294 q 121 318 115 318 q 157 310 130 318 q 192 301 184 301 q 197 302 196 301 l 131 332 q 168 372 168 371 q 201 387 185 387 q 236 358 217 387 q 275 310 262 319 l 288 427 q 254 435 268 431 q 261 461 261 435 q 252 518 261 490 q 222 559 240 551 q 236 529 228 556 q 243 476 243 501 q 229 443 243 443 q 224 444 227 443 q 77 526 138 468 q 18 604 36 566 q 5 694 5 673 q 36 774 5 749 q 109 847 54 823 q 246 888 130 856 l 249 888 q 258 869 258 888 q 250 816 258 857 q 280 862 253 822 q 314 903 307 901 q 349 908 331 905 q 357 942 354 940 q 368 964 368 947 q 366 982 368 972 l 586 1023 q 615 1007 591 1022 q 627 983 627 1000 q 620 953 627 970 l 615 922 q 785 893 729 917 q 806 863 806 875 q 793 838 806 851 l 736 686 q 589 718 701 694 l 572 582 l 606 582 q 775 529 698 582 l 775 528 q 755 514 775 526 l 720 493 q 778 505 745 505 q 817 493 806 505 q 890 301 876 425 m 323 720 q 246 686 246 717 q 313 633 246 656 l 323 720 m 551 408 l 538 289 q 587 351 587 318 q 551 408 587 380 z "},"%":{"ha":866,"x_min":5,"x_max":845,"o":"m 14 -4 l 14 -3 q 53 78 14 11 q 136 228 113 179 q 187 395 183 326 l 236 414 q 235 415 235 414 q 290 528 235 425 q 344 646 344 631 q 343 648 344 648 q 457 835 380 720 q 583 986 553 981 q 648 996 612 987 q 672 1004 659 1004 q 707 997 682 1004 q 751 989 733 989 q 789 998 766 989 q 823 1007 812 1007 q 845 986 845 1007 q 844 977 845 982 q 711 766 819 942 q 549 479 579 554 q 428 249 537 452 q 282 0 308 28 q 157 -11 244 -3 q 61 -18 87 -18 q 14 -4 18 -18 m 766 957 l 726 957 q 736 936 736 947 q 713 893 736 924 q 693 847 693 866 l 693 843 l 766 957 m 827 184 q 689 37 827 71 q 663 35 677 35 q 539 72 604 35 q 468 155 473 110 q 465 189 465 172 q 530 310 465 269 q 655 364 593 336 q 671 367 663 367 q 754 314 696 367 q 755 310 755 313 q 745 288 755 306 q 736 269 736 274 q 737 265 736 267 q 768 282 753 282 q 811 241 791 282 q 827 184 827 208 m 603 57 l 566 115 l 518 147 q 603 57 525 98 m 368 786 q 229 639 368 672 q 203 636 218 636 q 79 674 144 636 q 8 757 14 711 q 5 790 5 774 q 71 911 5 871 q 196 965 133 937 q 211 968 203 968 q 294 916 236 968 q 296 911 296 914 q 285 889 296 907 q 276 870 276 876 q 277 867 276 868 q 308 884 293 884 q 351 843 332 884 q 368 786 368 810 m 143 659 l 107 717 l 58 749 q 143 659 65 700 z "},"&":{"ha":894,"x_min":8,"x_max":858,"o":"m 611 538 q 572 524 601 529 q 569 519 569 524 q 635 436 569 501 q 705 482 673 443 q 751 555 716 497 q 843 407 789 529 q 715 275 804 382 q 847 199 755 248 q 858 182 858 195 q 812 109 858 160 q 733 29 790 83 q 711 0 722 14 q 636 57 647 57 q 635 56 635 57 q 628 16 632 36 q 601 -4 625 -4 q 575 0 590 -4 q 526 24 562 24 q 452 12 507 24 q 365 0 397 0 q 321 17 343 7 l 218 29 q 8 301 54 52 q 37 439 24 371 q 104 533 57 505 q 44 566 69 533 q 15 669 15 603 q 39 803 15 728 q 150 922 54 852 q 307 994 245 991 q 379 1006 337 1006 q 519 974 451 1006 q 647 865 600 936 q 682 768 682 842 q 655 620 682 699 q 611 538 629 542 m 281 762 q 258 694 258 742 q 262 646 258 653 q 321 589 276 589 q 377 608 349 589 q 424 604 384 605 q 458 628 425 606 q 464 627 461 627 q 486 700 486 627 q 454 786 486 786 q 444 783 450 786 l 397 806 l 387 806 q 281 762 333 806 m 541 271 q 536 282 538 277 q 498 317 521 297 q 465 343 476 336 q 427 383 444 379 q 404 384 425 384 q 345 383 383 384 q 288 310 288 345 q 365 239 288 267 l 477 239 q 541 271 534 239 m 191 58 l 132 135 q 89 193 100 193 q 83 179 83 193 q 191 58 83 135 z "},"'":{"ha":418,"x_min":7,"x_max":371,"o":"m 371 815 q 330 665 371 758 q 218 510 282 557 q 228 553 228 529 q 197 628 228 591 q 64 686 117 631 q 11 786 20 730 q 7 827 7 808 q 72 940 7 903 q 199 994 136 968 q 214 997 205 997 q 297 945 239 997 q 298 940 298 943 q 288 918 298 936 q 279 899 279 905 q 280 896 279 897 q 311 913 296 913 q 354 872 334 913 q 371 815 371 839 m 146 688 l 110 746 l 61 778 q 146 688 68 729 z "},"(":{"ha":577,"x_min":3,"x_max":566,"o":"m 465 782 q 478 779 473 779 q 490 787 487 779 q 498 848 497 827 l 465 782 m 22 222 q 3 450 3 271 q 58 798 3 673 q 136 745 87 777 q 147 742 142 742 q 215 796 175 742 l 212 796 q 182 776 197 796 q 150 751 164 753 l 146 751 q 69 803 120 751 q 228 960 149 939 q 386 1003 285 1003 q 519 986 453 1003 q 545 993 534 993 q 566 962 566 993 q 561 928 566 947 q 503 749 547 909 q 396 734 441 746 q 264 653 283 710 q 231 469 231 586 q 256 376 231 383 l 256 369 q 293 290 256 316 q 330 275 315 275 q 418 265 362 267 q 505 260 484 262 q 518 235 510 260 q 530 211 526 211 q 511 87 524 121 q 393 0 481 5 q 308 22 354 0 q 250 45 261 45 q 224 26 233 45 q 127 66 168 41 q 22 222 31 126 m 199 103 l 94 187 q 135 126 104 165 q 199 103 154 111 z "},")":{"ha":600,"x_min":-5,"x_max":558,"o":"m 62 843 q 71 782 64 821 q 83 774 75 774 q 96 777 89 774 l 62 843 m 539 216 q 433 61 531 121 q 338 21 393 36 q 311 39 328 39 q 254 17 300 39 q 168 -5 207 -5 q 50 82 81 0 q 31 205 37 115 q 43 230 35 205 q 56 254 52 254 q 143 260 78 257 q 231 269 199 261 q 268 285 246 269 q 306 363 306 311 l 306 371 q 331 464 331 378 q 297 647 331 581 q 165 729 278 704 q 58 743 119 741 q 0 922 14 904 q -5 957 -5 942 q 17 987 -5 987 q 42 981 26 987 q 175 997 109 997 q 334 954 277 997 q 492 798 412 933 q 415 746 442 746 l 411 746 q 380 770 397 747 q 349 790 365 790 l 346 790 q 414 736 387 736 q 425 739 420 736 q 503 791 474 771 q 558 444 558 668 q 539 216 558 265 m 363 97 q 427 121 407 106 q 467 182 457 160 l 363 97 z "},"*":{"ha":697,"x_min":23,"x_max":656,"o":"m 438 616 q 552 750 505 690 q 656 614 648 644 l 656 612 q 602 551 656 595 q 547 503 548 507 q 656 378 558 503 q 529 289 551 296 q 526 288 528 288 q 431 393 503 288 q 403 424 423 393 q 370 453 383 453 l 369 453 q 366 450 366 453 q 395 408 366 443 q 423 364 423 372 q 420 361 423 361 l 420 265 q 340 228 395 233 q 252 225 295 227 q 248 284 248 251 q 256 389 248 330 q 184 293 229 340 q 130 252 144 252 q 127 253 129 252 q 31 361 76 317 q 31 364 31 362 q 127 478 31 391 q 23 592 23 564 l 23 593 q 140 742 23 657 q 256 618 237 637 q 257 707 257 671 q 255 778 257 778 q 352 785 254 778 q 450 790 440 790 l 451 790 q 435 659 450 787 q 430 624 430 636 q 434 615 430 615 q 438 616 435 615 z "},"+":{"ha":747,"x_min":-1,"x_max":727,"o":"m 494 616 q 566 623 504 623 q 692 619 614 623 q 701 621 696 621 q 725 596 718 621 q 727 578 727 589 q 701 424 727 535 q 669 397 690 404 q 576 392 653 392 q 488 393 538 392 q 467 414 479 393 q 441 433 454 433 l 439 433 q 436 429 436 433 q 460 384 436 422 q 484 338 484 346 q 479 334 484 334 q 490 317 479 332 q 502 285 502 300 q 479 253 502 265 q 350 220 454 221 q 216 221 283 221 q 208 237 208 221 q 215 297 208 253 q 222 354 222 340 q 216 371 222 371 q 98 365 140 365 q 45 374 47 365 q 16 418 31 396 q -1 521 -1 452 q 0 558 -1 538 q 52 612 0 612 q 68 611 60 612 q 88 610 77 610 q 146 616 113 610 q 208 627 199 627 q 225 623 218 627 l 232 618 q 252 698 245 618 q 258 772 258 757 q 257 778 258 778 l 382 784 q 507 790 505 790 q 492 659 506 789 q 486 624 486 636 q 490 615 486 615 q 494 616 492 615 z "},",":{"ha":410,"x_min":-4,"x_max":360,"o":"m 360 127 q 319 -22 360 71 q 207 -178 271 -131 q 217 -135 217 -158 q 186 -60 217 -96 q 53 -1 106 -57 q 0 98 9 43 q -4 139 -4 121 q 61 253 -4 215 q 188 307 125 281 q 203 310 195 310 q 286 257 228 310 q 288 253 288 256 q 277 231 288 249 q 268 212 268 217 q 269 208 268 210 q 300 225 285 225 q 343 184 323 225 q 360 127 360 151 m 135 0 l 99 58 l 50 90 q 135 0 57 41 z "},"-":{"ha":785,"x_min":-1,"x_max":741,"o":"m 536 617 q 597 623 545 623 q 705 619 638 623 q 715 621 710 621 q 739 596 732 621 q 741 579 741 590 q 715 424 741 536 q 682 397 704 404 q 437 389 549 390 q 262 374 410 387 q 100 363 149 363 q 45 374 47 363 q 16 418 31 396 q -1 521 -1 452 q 0 558 -1 538 q 52 612 0 612 q 68 611 60 612 q 88 610 77 610 q 160 616 116 610 q 244 627 229 627 q 271 619 264 627 q 359 604 286 604 q 498 607 364 604 q 503 562 502 596 q 536 617 519 606 z "},"­":{"ha":785,"x_min":-1,"x_max":741,"o":"m 536 617 q 597 623 545 623 q 705 619 638 623 q 715 621 710 621 q 739 596 732 621 q 741 579 741 590 q 715 424 741 536 q 682 397 704 404 q 437 389 549 390 q 262 374 410 387 q 100 363 149 363 q 45 374 47 363 q 16 418 31 396 q -1 521 -1 452 q 0 558 -1 538 q 52 612 0 612 q 68 611 60 612 q 88 610 77 610 q 160 616 116 610 q 244 627 229 627 q 271 619 264 627 q 359 604 286 604 q 498 607 364 604 q 503 562 502 596 q 536 617 519 606 z "},".":{"ha":407,"x_min":-3,"x_max":360,"o":"m 360 127 q 221 -20 360 14 q 195 -22 210 -22 q 71 15 136 -22 q 0 98 5 53 q -3 132 -3 115 q 62 253 -3 212 q 188 307 125 279 q 203 310 195 310 q 286 257 228 310 q 288 253 288 256 q 277 231 288 249 q 268 212 268 217 q 269 208 268 210 q 300 225 285 225 q 343 184 323 225 q 360 127 360 151 m 135 0 l 99 58 l 50 90 q 135 0 57 41 z "},"/":{"ha":787,"x_min":14,"x_max":845,"o":"m 14 -4 l 14 -3 q 52 78 14 11 q 136 228 113 179 q 187 395 183 326 l 236 414 q 235 415 235 414 q 290 528 235 425 q 343 646 343 629 q 342 648 343 648 q 456 835 380 720 q 583 986 553 981 q 648 996 612 987 q 672 1004 658 1004 q 707 997 682 1004 q 751 989 733 989 q 789 998 766 989 q 823 1007 812 1007 q 845 986 845 1007 q 844 977 845 982 q 732 766 831 960 q 590 479 622 557 q 469 249 579 452 q 323 0 350 28 q 75 -18 76 -17 l 72 -18 q 14 -4 18 -18 m 808 957 l 768 957 q 777 936 777 947 q 755 893 777 924 q 734 847 734 866 l 734 843 l 808 957 z "},":":{"ha":404,"x_min":-3,"x_max":368,"o":"m 368 578 q 229 431 368 464 q 203 428 218 428 q 79 465 144 428 q 8 549 14 503 q 5 582 5 566 q 71 703 5 663 q 196 757 134 729 q 211 760 203 760 q 294 707 236 760 q 296 703 296 705 q 285 681 296 699 q 277 662 277 667 q 278 659 277 660 q 309 675 293 675 q 351 635 332 675 q 368 578 368 602 m 143 450 l 107 509 l 58 541 q 143 450 65 492 m 360 127 q 221 -20 360 14 q 195 -22 210 -22 q 71 15 136 -22 q 0 98 5 53 q -3 132 -3 115 q 62 253 -3 212 q 188 307 125 279 q 203 310 195 310 q 286 257 228 310 q 288 253 288 256 q 277 231 288 249 q 268 212 268 217 q 269 208 268 210 q 300 225 285 225 q 343 184 323 225 q 360 127 360 151 m 135 0 l 99 58 l 50 90 q 135 0 57 41 z "},";":{"ha":402,"x_min":-4,"x_max":368,"o":"m 360 127 q 319 -22 360 71 q 207 -178 271 -131 q 217 -135 217 -158 q 186 -60 217 -96 q 53 -1 106 -57 q 0 98 9 43 q -4 139 -4 121 q 61 253 -4 215 q 188 307 125 281 q 203 310 195 310 q 286 257 228 310 q 288 253 288 256 q 277 231 288 249 q 268 212 268 217 q 269 208 268 210 q 300 225 285 225 q 343 184 323 225 q 360 127 360 151 m 135 0 l 99 58 l 50 90 q 135 0 57 41 m 368 578 q 229 431 368 464 q 203 428 218 428 q 79 465 144 428 q 8 549 14 503 q 5 582 5 566 q 71 703 5 663 q 196 757 134 729 q 211 760 203 760 q 294 707 236 760 q 296 703 296 705 q 285 681 296 699 q 277 662 277 667 q 278 659 277 660 q 309 675 293 675 q 351 635 332 675 q 368 578 368 602 m 143 450 l 107 509 l 58 541 q 143 450 65 492 z "},";":{"ha":402,"x_min":-4,"x_max":368,"o":"m 360 127 q 319 -22 360 71 q 207 -178 271 -131 q 217 -135 217 -158 q 186 -60 217 -96 q 53 -1 106 -57 q 0 98 9 43 q -4 139 -4 121 q 61 253 -4 215 q 188 307 125 281 q 203 310 195 310 q 286 257 228 310 q 288 253 288 256 q 277 231 288 249 q 268 212 268 217 q 269 208 268 210 q 300 225 285 225 q 343 184 323 225 q 360 127 360 151 m 135 0 l 99 58 l 50 90 q 135 0 57 41 m 368 578 q 229 431 368 464 q 203 428 218 428 q 79 465 144 428 q 8 549 14 503 q 5 582 5 566 q 71 703 5 663 q 196 757 134 729 q 211 760 203 760 q 294 707 236 760 q 296 703 296 705 q 285 681 296 699 q 277 662 277 667 q 278 659 277 660 q 309 675 293 675 q 351 635 332 675 q 368 578 368 602 m 143 450 l 107 509 l 58 541 q 143 450 65 492 z "},"<":{"ha":787,"x_min":-1,"x_max":749,"o":"m 724 596 q 332 486 354 493 l 488 441 q 546 429 490 433 q 650 414 617 425 q 715 353 709 396 q 718 317 718 336 q 700 225 718 269 q 677 227 689 227 q 625 221 656 227 q 583 215 593 215 q 563 222 570 215 q 468 237 547 237 q 390 255 463 237 q 320 273 318 273 q 232 325 320 275 q 175 314 192 325 q 169 313 173 313 q 45 380 144 313 q 16 425 31 403 q -1 528 -1 459 q 0 566 -1 545 q 47 642 0 629 q 62 641 54 641 q 125 652 90 641 q 178 667 170 667 q 193 661 186 667 q 203 656 199 656 q 220 669 213 656 q 225 682 225 679 q 224 682 225 682 q 332 705 224 683 q 447 726 441 726 q 492 697 447 718 q 469 728 469 715 q 475 737 469 733 q 714 791 604 771 q 724 793 719 793 q 747 768 741 793 q 749 751 749 762 q 724 596 749 709 z "},"=":{"ha":790,"x_min":7,"x_max":751,"o":"m 545 789 q 606 795 553 795 q 714 791 646 795 q 723 793 719 793 q 747 768 741 793 q 749 751 749 762 q 724 596 749 709 q 690 570 713 576 q 446 561 557 562 q 271 546 418 559 q 109 534 157 534 q 53 546 56 534 q 24 590 39 568 q 7 693 7 625 q 8 730 7 711 q 60 785 8 785 q 77 783 68 785 q 97 782 85 782 q 168 789 125 782 q 253 799 237 799 q 279 791 272 799 q 360 777 294 777 q 439 778 372 777 q 512 786 507 779 l 505 777 q 511 734 505 768 q 545 789 528 778 m 298 225 q 210 218 288 218 q 44 222 149 218 q 35 221 39 221 q 11 245 18 221 q 9 262 9 252 q 35 418 9 305 q 68 444 45 437 q 396 453 244 453 q 546 468 441 456 q 665 479 635 479 q 705 468 703 479 q 734 424 720 446 q 751 321 751 389 q 750 283 751 303 q 699 229 750 229 q 682 231 690 229 q 663 232 673 232 q 616 225 641 232 q 578 215 582 215 q 562 222 570 215 q 475 237 547 237 q 402 236 469 237 q 330 235 334 235 q 330 279 330 252 q 298 225 314 236 z "},">":{"ha":762,"x_min":-1,"x_max":749,"o":"m 24 596 q -1 751 -1 709 q 0 768 -1 762 q 24 793 7 793 q 33 791 28 793 q 273 737 144 771 q 278 728 278 733 q 256 697 278 715 q 300 726 300 718 q 416 705 306 726 q 523 682 523 683 q 522 682 522 682 q 528 669 522 680 q 545 656 535 656 q 555 661 549 656 q 570 667 562 667 q 625 652 578 667 q 685 641 659 641 q 700 642 693 641 q 747 566 747 629 q 749 527 749 545 q 732 425 749 459 q 703 380 717 403 q 578 313 604 313 q 572 314 574 313 q 515 325 555 325 q 427 273 427 275 q 354 255 429 273 q 273 237 278 237 q 185 222 200 237 q 164 215 178 215 q 123 221 155 215 q 71 227 92 227 q 47 225 58 227 q 29 317 29 269 q 32 353 29 336 q 98 414 39 396 q 201 429 131 425 q 260 441 257 433 l 416 486 q 24 596 393 493 z "},"?":{"ha":805,"x_min":-3,"x_max":808,"o":"m 366 463 q 346 460 354 460 q 328 465 335 460 l 319 469 q 292 397 318 469 l 142 397 q 8 428 39 397 q 7 445 7 436 q 58 582 7 507 q 201 637 114 629 q 366 646 283 642 l 397 647 l 428 648 q 458 643 440 643 q 539 715 521 643 q 542 737 542 720 q 506 777 542 772 q 477 779 478 779 q 476 798 476 789 q 493 892 476 852 l 457 818 l 446 786 q 328 794 392 794 q 83 745 178 794 l 54 782 q 49 796 49 785 q 77 875 49 822 q 136 953 106 928 q 268 990 178 977 q 429 1004 351 1004 q 522 994 494 1004 q 620 970 576 991 q 695 917 640 958 q 774 814 750 876 q 808 688 781 798 q 632 496 796 518 l 366 463 m 360 127 q 221 -20 360 14 q 195 -22 210 -22 q 71 15 136 -22 q 0 98 5 53 q -3 132 -3 115 q 62 253 -3 212 q 188 307 125 279 q 203 310 195 310 q 286 257 228 310 q 288 253 288 256 q 277 231 288 249 q 268 212 268 217 q 269 208 268 210 q 300 225 285 225 q 343 184 323 225 q 360 127 360 151 m 135 0 l 99 58 l 50 90 q 135 0 57 41 z "},"@":{"ha":929,"x_min":0,"x_max":890,"o":"m 890 446 q 447 0 890 0 l 444 0 q 90 149 205 1 q 0 446 0 264 q 104 741 0 615 q 444 889 228 889 q 804 741 692 889 q 890 446 890 628 m 851 446 q 764 711 835 624 q 444 850 669 825 q 37 446 57 811 q 37 427 37 437 q 97 218 37 319 q 444 39 200 46 q 764 168 660 40 q 851 446 851 273 m 578 627 l 530 667 q 526 700 526 682 q 550 765 526 741 q 548 766 548 766 q 551 769 548 768 q 566 771 557 771 q 599 747 599 771 q 611 703 611 725 q 578 627 611 668 m 498 779 q 507 734 507 756 q 497 684 507 709 l 457 689 q 443 742 443 711 q 453 786 443 765 q 471 790 463 790 q 498 779 486 790 m 425 682 l 393 668 q 378 732 378 705 q 380 754 378 744 q 414 770 393 770 q 422 770 418 770 q 431 725 431 749 q 425 682 431 705 m 364 661 l 343 639 q 310 711 310 683 l 310 715 q 351 742 330 742 q 366 686 366 718 q 364 661 366 674 m 570 600 q 575 553 575 574 q 556 466 575 524 q 538 351 538 408 q 562 178 538 281 q 553 122 557 131 q 477 81 534 81 l 469 81 q 456 80 463 80 q 363 191 378 80 q 372 300 372 252 q 338 449 372 383 q 304 539 304 514 q 309 568 304 553 q 374 635 349 616 q 467 671 407 657 q 570 600 541 663 m 319 628 l 294 597 q 264 644 264 621 l 264 647 q 268 661 265 654 q 289 677 277 676 q 319 628 319 654 z "},"A":{"ha":895,"x_min":4,"x_max":860,"o":"m 510 990 q 546 1000 532 1000 q 568 979 568 1000 q 567 970 568 975 l 567 968 q 688 747 567 951 q 817 522 817 529 q 814 424 817 515 q 811 262 811 319 q 786 254 811 257 q 761 248 761 250 q 825 215 786 235 q 833 161 828 195 q 847 134 840 147 q 860 92 860 109 q 838 60 860 68 q 704 20 793 41 q 534 -9 592 -9 q 482 9 488 -9 q 481 41 481 16 q 489 245 481 98 q 476 244 484 244 q 383 262 448 244 q 340 298 367 271 q 355 150 355 257 q 323 0 355 36 q 178 -16 275 -3 q 66 -26 94 -26 q 31 -16 33 -26 q 118 93 31 -3 q 14 -4 14 22 q 4 124 4 31 q 9 286 4 191 l 58 306 q 31 329 47 310 q 14 361 14 349 q 17 429 17 405 q 13 460 17 460 q 9 457 11 458 q 113 646 37 510 q 205 764 131 650 q 281 884 243 823 q 306 879 292 879 q 412 925 345 879 q 510 990 498 985 m 497 482 q 488 518 494 482 q 488 522 488 519 q 456 578 488 534 q 391 682 407 644 q 364 576 368 585 l 371 549 q 345 479 351 489 q 424 481 350 479 q 497 482 498 482 m 558 197 q 522 105 525 111 q 547 121 526 112 l 558 197 z "},"B":{"ha":932,"x_min":1,"x_max":890,"o":"m 890 301 q 852 174 877 228 q 681 29 791 45 l 578 17 q 534 0 568 12 q 447 12 502 0 q 372 24 392 24 q 324 0 336 24 q 298 -4 309 -4 q 271 16 274 -4 q 264 56 267 36 l 264 58 q 260 0 264 58 q 153 -7 204 -7 q 22 39 22 -7 q 1 246 1 93 q 9 463 1 337 l 18 604 q 41 618 29 611 q 83 657 58 633 q 102 675 92 664 l 9 633 q 17 681 17 648 q 10 767 17 705 q 3 857 3 829 q 22 928 3 913 q 243 978 70 954 q 519 1002 406 1002 q 592 994 574 1002 q 749 922 653 991 q 860 803 845 852 q 884 669 884 728 q 854 566 884 603 q 795 533 829 533 q 861 439 842 505 q 890 301 876 371 m 608 646 q 612 688 612 650 q 575 749 612 745 q 546 751 551 751 l 546 774 q 563 892 546 851 l 527 818 l 522 751 q 345 736 403 736 q 309 741 317 736 l 288 755 q 290 686 290 719 q 269 522 290 590 q 330 590 286 568 q 359 604 355 604 q 425 606 364 604 q 498 607 486 607 q 550 589 522 589 q 608 646 595 589 m 816 179 q 810 193 816 193 q 767 135 799 193 l 707 58 q 816 179 816 135 m 527 383 q 461 384 490 384 q 381 382 404 384 q 279 340 299 374 l 279 232 q 334 273 296 273 q 371 260 361 273 q 444 261 376 260 q 510 262 511 262 q 585 314 585 278 q 527 383 585 343 m 140 621 l 124 637 l 83 596 l 140 621 z "},"C":{"ha":817,"x_min":9,"x_max":810,"o":"m 671 710 q 684 707 678 707 q 696 715 692 707 q 704 777 703 754 l 671 710 m 728 987 q 753 994 743 994 q 774 964 774 994 q 769 929 774 949 q 711 694 747 839 q 647 690 680 690 q 524 720 559 690 q 435 734 496 728 q 389 737 408 737 q 351 730 360 737 q 279 681 318 725 q 243 605 243 639 l 243 600 q 243 588 243 595 q 240 526 243 567 q 235 441 235 465 q 255 376 235 382 l 255 373 q 334 290 255 317 q 414 275 380 275 q 454 269 436 269 q 507 279 475 269 q 564 289 540 289 q 589 288 575 289 q 601 263 593 288 q 614 239 610 239 q 618 277 615 239 q 622 283 619 283 q 726 291 668 283 q 791 298 785 298 q 808 290 808 298 q 810 271 810 285 q 797 147 810 236 q 745 0 778 12 q 718 -3 739 -3 q 650 0 705 -3 q 555 3 595 3 q 476 0 513 3 q 403 12 441 0 q 357 24 365 24 q 323 0 336 24 q 297 -4 308 -4 q 270 16 273 -4 q 264 56 267 36 q 261 58 264 58 q 223 26 254 58 q 37 183 37 119 q 20 286 29 203 q 9 484 9 385 q 58 798 9 690 q 136 745 87 777 q 147 742 142 742 q 215 796 175 742 l 212 796 q 181 776 197 796 q 150 751 163 753 l 146 751 q 69 803 120 751 q 228 960 149 939 q 472 1004 285 1004 q 728 987 591 1004 m 554 68 q 519 55 544 66 q 471 45 496 45 l 463 45 q 492 28 463 40 l 495 28 q 554 68 524 28 m 199 103 l 94 187 q 134 126 104 165 q 199 103 154 111 z "},"D":{"ha":891,"x_min":1,"x_max":849,"o":"m 264 56 l 264 58 q 260 0 264 58 q 153 -7 204 -7 q 22 39 22 -7 q 1 246 1 93 q 9 463 1 337 l 18 604 q 41 618 29 611 q 83 657 58 633 q 106 679 92 664 l 9 633 q 17 681 17 648 q 10 767 17 705 q 3 857 3 829 q 22 928 3 913 q 243 978 70 954 q 519 1002 406 1002 q 592 994 574 1002 q 674 954 641 991 q 735 888 730 892 q 814 614 785 850 q 849 315 831 464 q 828 183 846 239 q 674 33 783 49 l 591 0 q 517 3 545 3 q 477 0 488 3 q 404 12 442 0 q 357 24 366 24 q 324 0 336 24 q 298 -4 309 -4 q 271 16 274 -4 q 264 56 267 36 m 579 315 q 582 368 582 318 q 579 517 582 419 q 542 726 576 722 q 513 729 518 729 l 513 751 q 530 869 513 829 l 493 796 l 489 729 q 309 741 335 729 l 288 755 q 296 427 296 631 q 281 178 296 227 q 342 245 299 224 q 371 260 367 260 q 420 268 376 260 q 469 277 463 277 q 521 258 493 258 q 579 315 566 258 m 140 621 l 124 637 l 83 596 l 140 621 z "},"E":{"ha":940,"x_min":0,"x_max":908,"o":"m 699 710 q 711 707 706 707 q 724 715 720 707 q 732 777 730 754 l 699 710 m 536 617 q 623 623 545 623 q 789 619 685 623 q 798 621 793 621 q 822 596 815 621 q 824 578 824 589 q 799 424 824 535 q 765 397 787 404 q 383 387 562 389 q 358 418 367 399 q 353 439 353 431 q 372 456 353 456 q 382 461 382 456 q 372 478 382 468 q 340 424 340 471 q 363 330 363 364 q 335 254 363 285 q 374 300 359 279 q 693 313 550 311 q 697 290 697 313 q 701 267 697 267 q 724 290 705 267 q 746 313 742 313 q 896 282 896 311 q 908 102 908 239 q 880 -28 908 -17 l 879 -28 q 711 12 864 -28 q 476 54 556 54 q 458 53 467 54 q 233 12 396 49 q 49 -21 79 -21 q 31 -16 32 -21 q 118 93 31 -3 q 14 -4 14 22 q 4 182 7 21 q 3 273 3 230 q 8 463 3 382 l 61 484 q 31 503 47 489 q 12 536 12 522 l 12 538 q 15 601 15 578 q 9 635 15 635 l 8 633 q 16 688 16 647 q 8 803 16 720 q 0 918 0 886 q 18 978 0 975 q 64 981 26 979 q 311 983 199 982 l 340 957 l 363 983 q 543 977 410 978 l 573 977 q 728 987 701 977 q 753 994 743 994 q 775 964 775 994 q 770 929 775 949 q 758 831 768 928 q 739 694 747 725 q 713 689 737 689 q 612 696 693 689 q 492 703 532 703 q 399 673 422 703 l 393 675 q 383 692 393 686 q 372 704 372 700 q 378 713 372 705 q 386 730 383 721 q 388 741 388 736 q 358 775 388 760 q 375 732 375 749 q 364 701 375 724 l 371 673 q 358 632 358 642 q 326 616 358 623 q 278 635 292 621 q 254 640 272 640 q 203 630 229 640 q 175 607 176 621 q 174 589 174 598 q 224 505 174 531 q 225 498 225 502 q 210 456 225 481 q 180 408 196 432 q 240 500 240 475 q 212 529 240 504 q 186 590 186 551 q 187 602 186 595 q 240 629 191 629 q 271 619 261 629 q 366 604 286 604 q 438 606 378 604 q 497 607 498 607 q 510 611 496 607 q 503 562 503 589 q 536 617 519 606 m 619 126 q 584 113 610 125 q 534 103 561 103 l 528 103 q 557 86 528 98 l 560 86 q 619 126 589 86 z "},"F":{"ha":819,"x_min":0,"x_max":824,"o":"m 699 710 q 711 707 706 707 q 724 715 720 707 q 732 777 730 754 l 699 710 m 536 617 q 623 623 545 623 q 789 619 685 623 q 798 621 793 621 q 822 596 815 621 q 824 578 824 589 q 799 424 824 535 q 765 397 787 404 q 383 387 562 389 q 340 424 349 404 q 355 208 355 382 q 323 0 355 36 q 178 -16 275 -3 q 66 -26 94 -26 q 31 -16 33 -26 q 118 93 31 -3 q 14 -4 14 22 q 4 182 7 21 q 3 273 3 230 q 8 463 3 382 l 61 484 l 52 488 q 31 503 43 494 q 12 536 12 522 l 12 538 q 15 601 15 578 q 9 635 15 635 q 8 640 8 635 q 16 688 16 647 q 8 803 16 720 q 0 918 0 886 q 18 978 0 975 q 64 981 26 979 q 311 983 199 982 l 340 957 l 363 983 q 543 977 410 978 l 573 977 q 728 987 701 977 q 753 994 743 994 q 775 964 775 994 q 770 929 775 949 q 758 831 768 928 q 739 694 747 725 q 713 689 737 689 q 612 696 693 689 q 492 703 532 703 q 399 673 415 703 l 393 682 l 383 692 q 372 704 372 700 q 378 713 372 705 q 386 730 383 721 q 388 741 388 736 q 358 775 388 760 q 375 732 375 749 q 364 701 375 724 l 371 673 q 358 632 358 642 q 326 616 358 623 q 278 635 292 621 q 216 660 253 660 q 200 648 201 660 q 210 657 201 657 q 271 619 233 657 q 366 604 286 604 q 484 607 378 604 q 503 562 496 596 q 536 617 519 606 z "},"G":{"ha":883,"x_min":9,"x_max":865,"o":"m 800 461 q 797 366 797 411 q 865 66 797 121 q 823 25 857 40 l 780 44 l 802 12 q 604 0 646 0 q 564 114 602 25 q 544 58 555 82 q 481 0 518 3 q 450 -7 468 -7 q 397 5 431 -7 q 351 17 363 17 q 323 0 333 17 q 297 -4 308 -4 q 270 16 273 -4 q 264 56 267 36 q 261 58 264 58 q 223 26 254 58 q 37 183 37 119 q 20 286 29 203 q 9 484 9 385 q 58 798 9 690 q 136 745 87 777 q 151 741 143 741 q 215 775 179 741 l 239 758 q 239 768 239 764 q 215 796 239 792 l 212 796 q 181 776 197 796 q 150 751 163 753 l 146 751 q 69 803 120 751 q 228 960 149 939 q 488 1006 311 1006 q 591 994 559 1006 q 673 954 640 991 q 734 888 729 892 q 795 823 776 857 q 836 684 826 774 l 836 682 q 625 618 836 646 q 625 621 625 618 q 610 668 625 631 q 541 726 587 722 q 435 746 460 746 q 359 715 385 746 q 283 681 322 710 q 243 618 243 650 l 243 614 q 243 602 243 609 q 240 536 243 581 q 235 446 235 472 q 255 376 235 382 l 255 372 q 332 279 255 317 q 410 253 387 253 q 526 260 463 253 q 494 378 494 307 q 497 412 494 395 q 618 416 533 414 q 652 396 625 416 q 687 376 680 376 q 694 385 694 376 q 683 424 694 396 q 800 461 749 433 m 199 103 l 94 187 q 134 126 104 165 q 199 103 154 111 z "},"H":{"ha":899,"x_min":1,"x_max":860,"o":"m 811 262 q 786 254 811 257 q 761 248 761 250 q 818 227 786 235 q 833 161 823 200 q 847 134 840 147 q 860 92 860 109 q 838 60 860 68 q 704 20 793 41 q 533 -9 591 -9 q 482 9 488 -9 q 477 84 477 26 q 489 371 477 176 q 475 370 484 370 q 383 387 448 370 q 340 424 367 396 q 355 208 355 382 q 323 0 355 36 q 178 -16 275 -3 q 66 -26 94 -26 q 31 -16 33 -26 q 118 93 31 -3 q 14 -4 14 22 q 4 182 7 21 q 3 273 3 230 q 8 463 3 382 l 57 482 q 28 505 46 485 q 12 536 12 524 l 12 538 q 15 601 15 578 q 9 635 15 635 l 8 633 q 15 688 15 648 q 8 802 15 720 q 1 917 1 885 q 18 978 1 974 q 102 984 47 984 q 140 983 119 984 l 252 981 l 265 981 q 311 983 309 981 l 340 957 l 362 983 q 378 869 378 960 q 364 701 378 728 l 371 673 q 358 632 358 642 q 326 616 358 623 q 278 635 310 618 q 216 660 253 660 l 210 657 q 271 619 233 657 q 359 604 286 604 q 431 606 364 604 q 497 607 498 607 q 488 643 494 607 q 494 696 494 657 q 487 812 494 729 q 479 926 479 895 q 497 987 479 983 q 648 996 570 987 q 672 1004 659 1004 q 708 997 682 1004 q 751 989 733 989 q 789 998 766 989 q 823 1007 812 1007 q 845 986 845 1007 q 844 977 845 982 q 827 785 838 966 q 815 590 815 621 q 811 262 815 570 m 795 916 l 736 947 q 793 847 785 899 l 795 916 m 525 111 q 547 121 526 112 l 558 197 l 525 111 z "},"I":{"ha":422,"x_min":-1,"x_max":380,"o":"m 332 253 q 307 244 332 249 q 282 237 282 240 q 339 216 309 227 q 355 151 345 191 q 368 123 361 138 q 380 82 380 98 q 359 50 380 60 q 227 9 314 33 q 56 -20 114 -20 q 4 0 10 -20 q -1 79 -1 18 q 10 361 -1 171 l 62 382 q 14 393 14 383 l 14 393 q 16 469 16 430 q 9 633 16 547 q 16 688 16 647 q 8 803 16 720 q 0 918 0 886 q 18 978 0 975 q 170 986 90 979 q 193 996 179 996 q 229 987 203 996 q 273 979 256 979 q 311 988 288 979 q 345 997 334 997 q 366 976 366 997 q 366 966 366 972 q 347 775 359 957 q 336 582 336 611 q 332 253 336 559 m 317 905 l 257 937 q 314 838 306 890 l 317 905 m 81 192 q 64 151 73 171 q 41 100 41 101 q 68 111 48 102 l 81 192 z "},"J":{"ha":818,"x_min":0,"x_max":766,"o":"m 279 0 q 104 146 208 1 q 0 410 0 292 q 29 503 0 454 q 78 517 36 515 q 134 522 127 519 q 149 525 140 525 q 175 511 175 525 q 174 507 175 509 q 193 458 189 458 q 193 463 193 458 l 193 467 q 218 507 193 504 q 285 511 260 511 q 315 507 309 511 q 349 457 349 486 q 343 441 349 449 q 330 382 330 411 q 374 283 330 326 q 415 250 406 250 l 415 250 q 394 191 415 244 q 368 124 370 131 q 468 315 447 231 q 490 536 490 406 q 468 802 490 675 q 449 878 449 846 q 472 918 449 911 q 517 933 511 932 q 511 873 511 897 q 513 852 511 861 q 515 846 514 846 q 519 866 517 846 q 524 886 522 886 q 523 892 524 889 q 524 909 523 898 q 541 937 524 935 q 713 946 640 945 q 724 950 718 950 q 745 929 736 950 q 765 648 761 774 q 766 640 766 644 q 733 599 766 606 l 648 587 l 616 616 l 612 600 l 632 581 l 634 557 l 636 551 q 646 559 639 559 q 655 570 646 563 l 659 573 q 672 576 663 576 q 733 585 686 576 q 739 585 736 585 q 765 572 755 585 q 766 562 766 570 q 734 369 766 525 q 677 142 694 178 q 494 0 597 41 l 503 67 q 457 26 497 49 q 390 0 424 14 q 318 3 346 3 q 279 0 290 3 m 647 195 q 652 222 652 212 q 643 235 652 235 q 630 159 630 235 q 631 129 630 145 l 647 195 z "},"K":{"ha":829,"x_min":1,"x_max":845,"o":"m 725 241 q 700 233 725 236 q 675 227 675 229 q 732 205 700 214 q 747 140 737 179 q 774 93 761 117 q 798 22 798 49 q 791 0 798 8 q 639 -33 770 -33 q 482 9 494 -33 q 432 102 457 56 q 394 265 394 181 q 395 289 394 277 l 393 289 q 380 311 383 289 q 380 332 380 320 q 380 359 380 345 q 383 387 382 371 q 340 424 367 396 q 355 208 355 382 q 323 0 355 36 q 178 -16 275 -3 q 66 -26 94 -26 q 31 -16 33 -26 q 118 93 31 -3 q 14 -4 14 22 q 4 182 7 21 q 3 273 3 230 q 8 463 3 382 l 57 482 q 28 505 46 485 q 12 536 12 524 l 12 538 q 15 601 15 578 q 9 635 15 635 l 8 633 q 15 688 15 648 q 8 802 15 720 q 1 917 1 885 q 18 978 1 974 q 102 984 47 984 q 140 983 119 984 l 252 981 l 265 981 q 311 983 309 981 l 340 957 l 362 983 q 378 869 378 960 q 364 701 378 728 l 371 673 q 358 632 358 642 q 326 616 358 623 q 278 635 310 618 q 216 660 253 660 l 210 657 q 271 619 233 657 q 359 604 286 604 q 385 598 364 604 q 411 591 406 591 q 472 715 411 596 q 521 868 476 724 q 583 986 555 981 q 648 996 612 987 q 672 1004 659 1004 q 708 997 682 1004 q 751 989 733 989 q 789 998 766 989 q 823 1007 812 1007 q 845 986 845 1007 q 844 977 845 982 q 661 465 777 779 l 661 465 q 690 385 661 458 q 725 241 725 301 m 808 957 l 768 957 q 785 925 785 942 q 777 894 785 917 q 772 863 772 877 q 772 854 772 859 l 808 957 m 518 22 q 520 22 518 22 q 546 31 525 22 l 476 117 q 475 111 475 115 q 494 60 475 96 q 517 22 515 22 q 518 22 518 22 z "},"L":{"ha":688,"x_min":-1,"x_max":668,"o":"m 661 323 q 646 244 661 307 q 631 157 631 180 l 627 135 q 618 136 623 136 q 595 134 608 136 q 553 175 578 155 l 575 138 q 514 129 517 129 q 484 115 484 123 q 536 123 503 123 q 639 110 581 123 q 652 78 644 100 q 668 18 668 21 q 644 -20 668 -9 l 640 -20 q 506 -1 620 -20 q 316 18 389 18 q 285 17 299 18 q 142 0 235 14 q 37 -11 61 -11 q 4 0 7 -11 q -1 79 -1 18 q 10 361 -1 171 l 62 382 q 14 393 14 383 l 14 393 q 16 469 16 430 q 9 633 16 547 q 16 688 16 647 q 8 803 16 720 q 0 918 0 886 q 18 978 0 975 q 170 986 90 979 l 196 929 l 196 986 q 317 978 271 978 q 392 987 370 978 q 417 994 407 994 q 439 964 439 994 q 433 929 439 949 l 408 840 q 367 608 376 726 q 179 536 213 536 q 172 539 174 536 q 172 545 172 541 q 193 619 172 563 q 225 697 213 672 q 228 708 228 703 q 198 739 228 739 q 181 737 191 739 q 210 703 210 723 q 208 693 210 699 q 181 625 195 660 q 160 549 160 570 q 164 534 160 539 q 174 514 174 528 q 164 482 174 498 l 192 522 q 366 591 347 591 l 367 591 q 371 522 371 567 q 360 358 371 441 q 335 254 349 269 q 482 300 356 257 q 636 339 597 339 q 661 323 661 339 m 67 97 l 42 175 q 40 134 42 158 l 38 114 q 67 97 38 110 z "},"M":{"ha":1202,"x_min":3,"x_max":1156,"o":"m 1121 253 q 1096 244 1121 249 q 1071 237 1071 240 q 1128 216 1097 227 q 1118 142 1118 163 q 1120 131 1118 134 q 1133 103 1126 117 q 1144 61 1144 78 q 1124 29 1144 39 q 1008 -1 1087 16 q 857 -22 913 -22 q 794 -1 800 -22 q 790 41 790 12 q 791 86 790 60 q 804 267 797 176 q 803 277 803 268 q 805 312 803 282 q 807 359 807 342 q 793 415 807 404 l 791 415 q 623 225 765 415 q 625 216 625 221 q 607 203 625 203 q 575 210 595 203 q 465 310 546 220 q 386 408 395 392 q 343 444 370 416 q 357 231 357 407 q 323 0 357 37 q 71 -18 71 -17 l 58 -18 q 14 -4 18 -18 q 11 64 11 5 q 31 669 11 338 l 134 616 l 82 654 q 22 705 26 693 q 15 754 15 721 l 15 765 q 18 802 16 800 q 25 833 25 814 q 14 898 25 856 q 3 954 3 940 q 29 981 3 977 l 131 981 q 311 983 219 981 l 340 957 l 362 983 q 385 925 385 947 q 379 903 385 914 l 386 875 q 374 833 374 843 q 480 669 372 833 q 594 505 589 505 q 768 819 763 772 l 800 664 q 806 713 806 677 q 803 781 806 741 q 790 925 790 908 q 807 978 790 975 q 958 986 879 979 q 983 996 969 996 q 1019 987 993 996 q 1061 979 1044 979 q 1099 988 1076 979 q 1135 997 1122 997 q 1156 977 1156 997 q 1154 966 1156 972 q 1136 775 1147 957 q 1126 582 1126 611 q 1121 253 1126 559 m 1105 905 l 1046 937 q 1103 838 1095 890 l 1105 905 m 66 68 l 41 125 q 39 90 39 117 q 41 46 39 71 q 43 26 42 26 l 43 26 q 45 26 43 26 q 71 35 50 26 l 104 18 q 66 68 86 45 z "},"N":{"ha":891,"x_min":3,"x_max":845,"o":"m 811 262 q 786 254 811 257 q 761 248 761 250 q 818 227 786 235 q 808 149 808 169 q 808 140 808 143 q 822 113 815 126 q 835 71 835 87 q 812 39 835 47 q 699 7 777 25 q 547 -14 604 -14 q 482 9 489 -14 q 479 46 479 20 q 481 96 479 66 q 493 277 488 186 q 440 330 452 318 q 386 408 403 372 q 343 444 370 416 q 357 231 357 407 q 323 0 357 37 l 77 -18 l 72 -18 q 14 -4 18 -18 q 11 64 11 5 q 31 669 11 338 l 138 606 q 82 654 134 616 q 22 705 26 693 q 15 754 15 721 l 15 765 q 18 802 16 800 q 25 833 25 814 q 14 898 25 856 q 3 954 3 940 q 29 981 3 977 l 131 981 q 311 983 219 981 l 340 957 l 362 983 q 385 925 385 947 q 379 903 385 914 l 386 875 q 374 833 374 843 q 460 676 372 833 q 546 518 547 518 q 572 489 564 489 q 575 492 575 489 q 571 505 575 496 q 489 673 561 532 q 496 722 496 687 q 492 790 496 749 q 479 935 479 918 q 497 987 479 983 q 648 996 570 987 q 672 1004 659 1004 q 707 997 682 1004 q 751 989 733 989 q 789 998 766 989 q 823 1007 812 1007 q 845 986 845 1007 q 844 977 845 982 q 826 785 838 966 q 815 590 815 621 q 811 262 815 570 m 795 916 l 736 947 q 793 847 785 899 l 795 916 m 66 68 l 41 125 q 39 90 39 117 q 41 46 39 71 q 43 26 42 26 l 43 26 q 45 26 43 26 q 71 35 50 26 l 104 18 q 66 68 86 45 z "},"O":{"ha":892,"x_min":9,"x_max":848,"o":"m 848 315 q 827 183 846 239 q 673 33 783 49 l 590 0 q 516 3 545 3 q 476 0 488 3 q 403 12 441 0 q 357 24 365 24 q 323 0 336 24 q 297 -4 308 -4 q 270 16 273 -4 q 264 56 267 36 q 261 58 264 58 q 223 26 254 58 q 37 183 37 119 q 20 286 29 203 q 9 484 9 385 q 58 798 9 690 q 136 745 87 777 q 151 741 143 741 q 215 775 179 741 l 239 758 q 239 768 239 764 q 215 796 239 792 l 212 796 q 181 776 197 796 q 150 751 163 753 l 146 751 q 69 803 120 751 q 228 960 149 939 q 488 1006 311 1006 q 591 994 559 1006 q 673 954 640 991 q 734 888 729 892 q 817 585 786 848 q 817 576 817 581 q 803 493 817 549 l 786 447 q 827 521 823 521 q 827 519 827 521 q 843 403 840 481 q 848 315 846 325 m 579 315 q 582 463 582 318 q 541 726 582 686 q 435 746 460 746 q 359 715 385 746 q 283 681 322 710 q 243 618 243 650 l 243 614 q 243 602 243 609 q 240 536 243 581 q 235 446 235 472 q 255 376 235 382 l 255 372 q 322 267 255 316 q 389 228 375 228 q 410 240 389 229 q 432 252 432 251 q 479 244 452 244 q 579 315 561 244 m 199 103 l 94 187 q 134 126 104 165 q 199 103 154 111 z "},"P":{"ha":876,"x_min":1,"x_max":878,"o":"m 350 134 q 361 83 361 104 q 324 0 361 41 q 298 -4 309 -4 q 271 16 274 -4 q 264 56 267 36 l 264 58 q 260 0 264 58 q 153 -7 204 -7 q 22 39 22 -7 q 1 246 1 93 q 9 463 1 337 l 18 604 q 41 618 29 611 q 83 657 58 633 q 106 679 92 664 l 9 633 q 17 681 17 648 q 10 767 17 705 q 3 857 3 829 q 22 928 3 913 q 243 978 70 954 q 519 1002 406 1002 q 592 994 574 1002 q 686 937 641 991 q 760 854 753 860 q 840 762 816 812 q 878 646 857 730 q 842 538 867 585 q 674 412 783 428 l 571 400 q 527 383 562 396 q 437 384 469 384 q 396 383 404 384 q 311 345 331 378 q 321 249 315 290 q 350 134 334 149 m 608 646 q 612 688 612 650 q 575 749 612 745 q 546 751 551 751 l 546 774 q 563 892 546 851 l 527 818 l 522 751 q 345 736 403 736 q 309 741 317 736 l 288 755 q 290 686 290 719 q 269 522 290 590 q 330 590 286 568 q 359 604 355 604 q 421 606 364 604 q 498 607 479 607 q 550 589 522 589 q 608 646 595 589 m 140 621 l 124 637 l 83 596 l 140 621 z "},"Q":{"ha":916,"x_min":9,"x_max":877,"o":"m 827 519 q 836 440 836 490 q 819 307 836 368 q 760 214 798 236 q 877 124 877 151 q 876 121 877 122 q 852 89 871 103 q 797 102 838 97 l 814 66 q 712 -17 736 -17 q 681 3 696 -17 q 664 24 665 24 q 687 -17 664 20 q 515 102 608 7 q 562 29 518 62 q 480 11 529 11 q 421 15 458 11 q 370 20 385 20 q 323 0 334 20 q 297 -4 308 -4 q 270 16 273 -4 q 264 56 267 36 q 261 58 264 58 q 223 26 254 58 q 37 183 37 119 q 20 286 29 203 q 9 484 9 385 q 58 798 9 690 q 136 745 117 755 q 151 741 143 741 q 215 775 179 741 l 239 758 q 239 768 239 764 q 215 796 239 792 l 212 796 q 181 776 197 796 q 150 751 163 753 l 146 751 q 69 803 120 751 q 228 960 149 939 q 488 1006 311 1006 q 591 994 559 1006 q 673 954 640 991 q 734 888 729 892 q 817 585 786 848 q 817 576 817 581 q 803 493 817 549 q 789 428 789 440 l 806 481 q 827 521 823 521 q 827 519 827 521 m 583 367 q 585 409 585 370 q 583 522 585 448 q 541 726 579 689 q 435 746 460 746 q 359 715 385 746 q 283 681 322 710 q 243 618 243 650 l 243 614 q 243 602 243 609 q 240 536 243 581 q 235 446 235 472 q 255 376 235 382 l 255 372 q 332 279 255 317 q 410 253 387 253 l 369 289 q 314 436 330 363 q 368 440 346 440 q 507 387 450 440 q 570 363 570 371 l 583 367 m 199 103 l 94 187 q 134 126 104 165 q 199 103 154 111 z "},"R":{"ha":909,"x_min":1,"x_max":878,"o":"m 878 646 q 842 538 867 585 q 674 412 783 428 l 571 400 q 527 383 562 396 l 641 387 q 823 174 783 174 l 825 174 q 859 140 859 153 q 859 138 859 139 q 763 119 837 125 l 796 83 q 694 0 718 0 q 663 20 678 0 q 646 40 648 40 q 670 0 646 36 q 490 147 567 75 q 303 446 309 319 q 313 302 304 367 q 350 134 334 149 q 361 83 361 104 q 324 0 361 41 q 298 -4 309 -4 q 271 16 274 -4 q 264 56 267 36 l 264 58 q 260 0 264 58 q 153 -7 204 -7 q 22 39 22 -7 q 1 246 1 93 q 9 463 1 337 l 18 604 q 41 618 29 611 q 83 657 58 633 q 106 679 92 664 l 9 633 q 17 681 17 648 q 10 767 17 705 q 3 857 3 829 q 22 928 3 913 q 243 978 70 954 q 519 1002 406 1002 q 592 994 574 1002 q 686 937 641 991 q 760 854 753 860 q 840 762 816 812 q 878 646 857 730 m 608 646 q 612 688 612 650 q 575 749 612 745 q 546 751 551 751 l 546 774 q 563 892 546 851 l 527 818 l 522 751 q 345 736 403 736 q 309 741 317 736 l 288 755 q 290 686 290 719 q 269 522 290 590 q 330 590 286 568 q 372 604 355 604 q 498 607 492 607 q 550 589 522 589 q 608 646 595 589 m 621 125 l 555 203 q 579 159 579 161 q 621 125 579 155 m 485 256 l 485 304 l 449 310 l 485 256 m 140 621 l 124 637 l 83 596 l 140 621 z "},"S":{"ha":915,"x_min":-5,"x_max":890,"o":"m 890 301 q 846 175 873 229 q 681 29 782 45 q 427 -26 568 -26 q 304 0 350 -26 q 297 -3 300 -1 q 292 8 292 -3 q 303 62 292 18 q 312 109 312 95 q 311 114 312 112 q 311 115 311 115 q 260 0 307 115 q 248 -1 254 -1 q 182 17 217 -1 q 103 86 136 40 l 127 143 q 78 98 89 98 q 26 123 58 98 q -5 168 -5 149 q 18 207 -5 189 l 100 288 q 107 290 102 290 q 142 282 115 290 q 178 273 170 273 q 184 275 182 273 l 117 304 q 155 345 155 343 q 188 359 171 359 q 216 340 204 359 q 481 207 274 221 q 587 296 587 245 q 538 364 587 329 q 252 436 444 366 l 253 436 q 258 467 258 436 q 245 593 258 522 q 207 682 228 673 q 227 608 216 677 q 239 489 239 539 q 227 444 239 444 q 224 444 226 444 q 77 526 138 468 q 18 604 36 566 q 114 676 60 624 q 161 730 161 724 l 161 732 q 150 722 159 730 q 8 633 94 671 q -4 724 -4 703 q 26 803 -4 778 q 264 958 64 905 l 267 958 q 277 940 277 958 q 272 910 277 928 q 264 885 267 892 q 298 933 271 893 q 332 974 325 972 q 574 996 449 996 q 803 964 729 996 q 824 933 824 946 q 811 908 824 922 l 726 715 q 435 765 525 765 q 392 758 404 765 q 319 728 336 745 q 300 672 300 709 l 300 667 q 576 582 371 582 l 602 582 q 775 529 707 576 q 743 508 775 526 l 730 497 q 778 505 754 505 q 817 493 806 505 q 890 301 876 425 m 633 328 l 627 389 l 550 393 q 589 383 572 390 q 633 328 616 367 z "},"T":{"ha":1019,"x_min":-9,"x_max":1003,"o":"m 665 253 q 641 244 665 249 q 616 237 616 240 q 673 216 642 227 q 688 151 678 191 q 703 123 694 138 q 714 82 714 98 q 692 50 714 60 q 560 9 648 33 q 389 -20 448 -20 q 338 0 343 -20 q 333 82 333 18 q 343 361 333 174 l 396 382 q 347 393 347 383 l 347 393 q 361 612 353 504 q 338 616 355 616 q 279 610 324 616 q 207 604 233 604 q 130 625 156 604 q 39 745 87 660 q -9 869 -9 831 q -5 885 -9 879 q 24 903 9 903 q 38 897 32 903 q 124 885 64 885 q 395 917 228 885 q 367 746 382 885 q 391 854 376 765 q 428 926 401 921 q 483 949 467 935 q 550 970 499 964 q 642 987 613 975 q 730 1004 682 1004 q 787 999 760 1004 l 964 954 q 1003 892 1003 945 q 998 810 1003 888 q 987 668 994 739 q 935 587 977 587 q 833 624 909 587 q 732 660 757 660 q 710 652 718 660 q 701 693 708 652 q 673 778 692 747 q 595 823 645 823 q 556 818 576 823 q 674 761 650 810 q 702 650 688 705 q 669 584 669 608 q 665 253 669 559 m 571 629 l 511 661 q 568 561 560 614 l 571 629 m 414 192 q 397 151 406 171 q 367 102 376 109 l 374 103 q 376 102 374 102 q 401 111 381 102 l 414 192 z "},"U":{"ha":818,"x_min":0,"x_max":766,"o":"m 174 926 q 89 729 150 799 l 165 785 q 193 882 193 864 l 193 886 q 218 926 193 924 q 285 930 260 930 q 315 926 309 930 q 349 876 349 905 q 343 861 349 868 q 319 729 332 848 q 307 600 307 625 q 272 579 307 593 q 235 555 237 566 l 235 553 q 240 549 235 549 q 288 568 253 549 q 299 570 294 570 q 313 561 313 570 q 302 545 313 555 q 303 528 303 538 q 301 492 303 513 q 300 437 300 450 q 323 375 300 382 l 323 369 q 370 278 323 315 q 415 250 403 250 l 415 250 q 394 191 415 244 q 378 131 383 151 q 468 315 447 231 q 490 536 490 406 q 468 802 490 675 q 449 878 449 846 q 472 918 449 911 q 524 933 517 931 q 511 873 511 897 q 513 852 511 861 q 515 846 514 846 q 519 866 517 846 q 524 886 522 886 l 523 892 q 524 909 523 898 q 541 937 530 928 q 713 946 640 945 q 724 950 718 950 q 745 929 736 950 q 765 648 761 774 q 766 640 766 644 q 733 599 766 606 l 648 587 l 616 616 l 612 600 l 625 587 l 625 580 l 639 580 q 659 576 650 576 q 733 585 686 576 q 739 585 736 585 q 765 572 755 585 q 766 562 766 570 q 734 369 766 525 q 677 142 694 178 q 528 18 631 60 l 503 69 q 504 50 504 59 q 479 0 504 15 q 405 3 433 3 q 366 0 376 3 q 210 53 286 1 q 81 218 118 113 q 49 326 68 224 q 32 428 40 370 l 77 428 q 29 468 39 444 q 11 648 22 485 q 0 829 0 798 q 29 922 0 873 q 78 936 36 935 q 134 942 127 939 q 149 945 140 945 q 175 930 175 945 q 174 926 175 928 m 515 203 q 520 229 520 220 q 511 243 520 243 q 498 166 498 243 q 498 138 498 153 l 515 203 z "},"V":{"ha":800,"x_min":-4,"x_max":766,"o":"m 649 587 q 684 581 658 581 q 733 585 703 581 q 739 585 736 585 q 766 572 756 585 q 766 569 766 572 q 684 350 766 543 q 575 106 615 192 q 403 0 506 41 l 315 29 q 144 233 233 61 q 74 400 109 306 l 118 400 q 71 440 81 416 q -4 760 -4 608 q 0 829 -4 794 q 29 922 5 884 q 78 936 36 935 q 134 942 128 939 q 149 945 140 945 q 175 930 175 945 q 174 926 175 928 q 193 878 189 878 q 193 882 193 878 l 193 886 q 218 926 193 924 q 243 932 228 928 q 265 936 258 936 q 283 930 275 936 q 317 880 317 909 q 311 855 317 875 q 306 819 306 835 q 311 680 306 772 q 322 576 315 587 q 250 532 253 542 l 250 530 q 256 525 250 525 q 303 545 268 525 q 315 546 310 546 q 328 538 328 546 q 318 521 328 532 q 351 395 321 468 q 411 306 383 314 q 464 525 437 415 q 494 750 494 665 q 490 810 494 783 q 471 886 471 854 q 494 926 471 920 q 546 942 539 939 q 534 883 534 907 q 535 861 534 871 q 538 856 535 857 q 553 893 542 856 q 565 930 564 930 q 568 932 566 930 q 587 937 571 935 q 713 946 664 945 q 724 950 718 950 q 745 929 736 950 q 766 648 761 774 q 766 640 766 644 q 733 599 766 606 l 649 587 m 539 113 q 578 180 578 168 q 575 184 578 184 q 471 65 559 184 l 539 113 z "},"W":{"ha":1244,"x_min":-4,"x_max":1208,"o":"m 1175 555 l 1090 545 q 1125 538 1099 538 q 1175 542 1145 538 q 1181 543 1178 543 q 1207 529 1198 543 q 1208 526 1208 528 q 1125 307 1208 500 q 1017 62 1057 149 q 993 26 1008 45 q 886 -43 956 -16 l 757 -14 q 680 67 711 -4 q 621 207 649 138 q 575 106 587 134 q 530 69 555 87 q 403 0 472 28 l 315 29 q 74 400 191 71 l 118 400 q 71 440 100 408 q -4 760 -4 608 q 0 829 -4 794 q 29 922 5 884 q 78 936 36 935 q 134 942 128 939 q 149 945 140 945 q 175 930 175 945 q 174 926 175 928 q 193 878 189 878 q 193 882 193 878 l 193 886 q 218 926 193 924 q 243 932 228 928 q 265 936 258 936 q 283 930 275 936 q 317 880 317 909 q 311 855 317 875 q 306 819 306 835 q 311 683 306 772 q 322 576 315 594 q 288 556 322 570 q 250 532 253 542 l 250 530 q 256 525 250 525 q 303 545 268 525 q 315 546 310 546 q 328 538 328 546 q 318 521 328 532 q 351 395 321 468 q 411 306 383 314 q 485 633 439 414 q 482 675 482 653 q 486 732 482 702 q 515 806 494 796 l 511 806 q 489 814 498 806 q 471 886 471 856 q 494 926 471 920 q 539 942 535 939 q 534 890 535 914 q 553 893 542 892 q 566 930 558 911 l 568 932 q 587 937 571 935 q 671 946 614 942 q 682 950 677 950 q 710 893 703 950 q 725 888 718 892 q 758 838 758 867 q 753 812 758 832 q 747 777 747 791 q 778 519 747 729 q 757 539 764 532 q 745 550 754 546 q 713 571 725 571 q 707 570 710 571 l 726 529 q 745 501 739 528 q 756 503 751 503 q 770 494 770 503 q 760 478 770 489 q 793 351 762 425 q 853 262 825 271 q 936 745 936 611 q 932 807 936 781 q 913 884 913 851 q 936 924 913 917 q 981 939 977 936 q 975 880 975 903 q 977 859 975 867 q 979 852 978 854 q 995 890 983 852 q 1006 928 1006 928 q 1010 930 1007 928 q 1029 935 1013 932 q 1154 943 1056 939 q 1165 947 1160 947 q 1185 927 1178 947 q 1200 771 1193 907 q 1207 606 1203 688 q 1208 597 1208 602 q 1175 555 1208 563 z "},"X":{"ha":829,"x_min":8,"x_max":845,"o":"m 725 241 q 700 233 725 236 q 675 227 675 229 q 732 205 700 214 q 747 140 737 179 q 773 93 761 117 q 797 22 797 49 q 791 0 797 8 q 639 -33 769 -33 q 481 9 494 -33 q 443 79 463 45 q 416 216 416 137 q 416 244 416 230 l 414 244 q 403 267 406 244 q 402 288 402 276 q 403 315 402 300 q 406 343 404 326 q 366 245 376 245 q 363 235 365 245 q 371 186 371 231 q 323 0 371 52 l 84 -18 l 72 -18 q 14 -4 18 -18 l 14 -3 q 82 184 14 12 q 162 468 158 378 l 211 488 q 166 543 197 493 q 136 611 155 564 l 119 653 q 8 958 8 893 q 18 978 8 977 q 102 984 47 984 q 140 983 119 984 l 252 981 l 265 981 q 311 983 308 981 l 340 957 l 393 722 q 416 690 393 713 l 431 686 l 446 682 l 446 683 q 471 760 446 689 q 521 890 496 825 q 583 986 555 981 q 648 996 612 987 q 672 1004 658 1004 q 707 997 682 1004 q 751 989 733 989 q 789 998 766 989 q 823 1007 812 1007 q 845 986 845 1007 q 844 977 845 982 q 661 465 777 779 l 661 465 q 690 385 661 458 q 725 241 725 301 m 808 957 l 768 957 q 785 925 785 942 q 777 894 785 917 q 771 863 771 877 q 772 854 771 859 l 808 957 m 518 22 q 520 22 518 22 q 546 31 525 22 l 476 117 q 475 111 475 115 q 494 60 475 96 q 517 22 515 22 q 518 22 518 22 z "},"Y":{"ha":791,"x_min":8,"x_max":845,"o":"m 537 334 q 513 325 537 329 q 489 318 489 321 q 546 297 513 307 q 561 232 551 271 q 579 77 579 171 q 569 18 579 33 q 330 0 344 1 l 318 0 q 260 14 264 0 q 250 145 250 47 q 260 406 250 243 l 264 456 q 219 511 250 461 q 157 606 197 551 q 119 653 123 653 q 8 958 8 893 q 18 978 8 977 q 102 984 47 984 q 140 983 119 984 l 259 981 l 265 981 q 311 983 308 981 l 340 957 l 393 722 q 416 690 393 713 l 431 686 l 446 682 l 446 683 q 471 760 446 689 q 521 890 496 825 q 583 986 555 981 q 648 996 612 987 q 672 1004 658 1004 q 707 997 682 1004 q 751 989 733 989 q 789 998 766 989 q 823 1007 812 1007 q 845 986 845 1007 q 844 977 845 982 q 684 575 789 835 q 610 486 647 530 q 537 334 538 396 m 808 957 l 768 957 q 785 925 785 942 q 777 894 785 917 q 771 863 771 877 q 772 854 771 859 l 808 957 z "},"Z":{"ha":929,"x_min":0,"x_max":909,"o":"m 896 282 q 909 102 909 239 q 881 -28 909 -17 l 880 -28 q 711 12 864 -28 q 476 54 556 54 q 458 53 467 54 q 233 12 396 49 q 49 -21 79 -21 q 31 -16 32 -21 q 118 93 31 -3 q 14 -4 14 22 q 7 115 7 21 q 28 286 7 258 q 256 545 38 363 q 475 722 366 633 q 481 755 481 739 q 444 836 481 804 q 460 793 460 810 q 449 762 460 785 l 456 734 q 429 721 429 725 q 397 705 429 711 q 310 707 354 707 q 0 689 150 707 q 7 751 7 703 q 3 850 7 790 q 0 908 0 884 q 18 978 0 974 q 102 984 47 984 q 140 983 119 984 q 286 981 274 981 q 311 983 309 981 l 340 957 l 363 983 q 543 977 410 978 l 573 977 q 728 987 701 977 q 753 994 743 994 q 775 964 775 994 q 770 929 775 949 q 739 694 762 839 q 546 513 738 689 q 351 298 354 338 l 335 254 q 374 300 345 261 q 693 313 550 311 q 697 290 697 313 q 701 267 697 267 q 724 290 706 267 q 746 313 742 313 q 896 282 896 311 m 732 777 l 699 710 q 711 707 706 707 q 724 715 720 707 q 732 777 729 729 m 620 126 q 585 113 610 125 q 534 103 562 103 l 528 103 q 557 86 528 98 l 561 86 q 620 126 590 86 z "},"[":{"ha":701,"x_min":-1,"x_max":668,"o":"m 661 323 q 646 244 661 307 q 631 157 631 180 q 627 135 631 136 q 618 136 623 136 q 595 134 608 136 q 553 175 578 155 l 575 138 q 514 129 517 129 q 484 115 484 123 q 536 123 503 123 q 639 110 581 123 q 652 78 644 100 q 668 18 668 21 q 644 -20 668 -9 l 640 -20 q 506 -1 620 -20 q 316 18 389 18 q 285 17 299 18 q 142 0 235 14 q 37 -11 61 -11 q 4 0 7 -11 q -1 79 -1 18 q 10 361 -1 171 l 62 382 q 14 393 14 383 l 14 393 q 16 469 16 430 q 9 633 16 547 q 16 688 16 647 q 8 803 16 720 q 0 918 0 886 q 18 978 0 975 q 170 986 90 979 l 196 929 l 196 986 q 349 982 238 982 l 410 982 q 610 997 583 985 q 635 1004 625 1004 q 657 974 657 1004 q 652 939 657 958 q 618 724 642 859 q 564 715 616 715 l 524 715 q 478 717 494 717 q 339 677 342 717 q 179 606 208 606 q 172 608 174 606 q 172 612 172 610 q 225 739 172 633 q 228 750 228 745 q 198 781 228 781 q 181 779 191 781 q 210 745 210 764 q 208 734 210 740 q 181 677 207 729 q 160 616 160 633 q 164 604 160 608 q 174 583 174 597 q 164 551 174 568 l 192 591 q 338 661 322 661 l 339 661 q 343 583 343 636 q 332 382 343 488 q 307 254 321 269 q 464 300 323 257 q 633 339 591 339 q 661 323 661 339 m 67 97 l 42 175 q 40 134 42 158 l 38 120 l 38 114 q 67 97 38 110 z "},"\\":{"ha":850,"x_min":3,"x_max":835,"o":"m 835 0 q 777 -14 831 -14 l 771 -14 q 525 4 764 -12 q 379 253 498 32 q 258 484 269 456 q 117 771 227 561 q 4 981 17 964 q 3 990 3 986 q 25 1011 3 1011 q 59 1002 36 1011 q 97 993 82 993 q 141 1001 115 993 q 176 1008 167 1008 q 200 1000 191 1008 q 265 990 236 991 q 392 839 296 985 q 506 653 468 724 q 505 650 505 652 q 559 532 505 633 q 613 419 613 429 q 612 418 613 418 l 661 399 q 713 232 665 330 q 796 82 736 183 q 835 1 835 15 l 835 0 m 114 847 l 114 851 q 94 897 114 870 q 71 940 71 928 q 81 961 71 951 l 40 961 l 114 847 z "},"]":{"ha":716,"x_min":-4,"x_max":666,"o":"m 4 654 q 19 734 4 671 q 35 821 35 798 q 39 843 35 842 q 47 842 43 842 q 71 844 57 842 q 113 803 87 822 l 90 840 q 151 848 149 848 q 182 863 182 854 q 130 854 163 854 q 26 868 83 854 q 14 900 22 878 q -4 960 -4 957 q 22 997 -4 987 q 27 998 24 998 q 160 979 49 998 q 349 960 277 960 q 380 961 366 960 q 524 978 431 964 q 629 989 604 989 q 661 978 659 989 q 666 896 666 960 q 656 616 666 804 l 603 596 q 652 585 652 595 q 649 500 649 544 q 657 345 649 426 q 649 290 649 330 q 656 175 649 258 q 664 60 664 92 q 648 0 664 3 q 496 -8 575 -1 l 469 49 l 469 -8 q 316 -4 427 -4 l 256 -4 q 54 -20 82 -7 q 29 -26 41 -26 q 7 4 7 -26 q 14 39 7 20 q 47 254 22 119 q 100 262 49 262 l 142 262 q 186 261 171 261 q 326 300 322 261 q 486 372 457 372 q 493 370 492 372 q 494 366 494 368 q 440 239 494 345 q 437 228 437 233 q 468 197 437 197 q 485 199 475 197 q 456 233 456 213 q 457 243 456 238 q 484 300 458 249 q 506 361 506 345 q 501 374 506 370 q 492 395 492 380 q 501 427 492 410 l 474 386 q 328 317 344 317 l 326 317 q 322 395 322 342 q 332 596 322 490 q 359 724 345 708 q 200 677 342 721 q 32 639 75 639 q 4 654 4 639 m 599 880 l 624 802 q 626 844 624 819 l 628 858 l 628 864 q 599 880 628 868 z "},"^":{"ha":787,"x_min":15,"x_max":745,"o":"m 612 1103 l 576 1161 l 528 1194 q 612 1103 534 1145 m 404 1480 q 745 1277 745 1328 q 744 1271 745 1274 q 682 1145 728 1234 q 635 1059 637 1059 q 630 1061 635 1061 q 589 1056 620 1061 q 379 1218 494 1133 q 355 1246 366 1223 q 347 1278 347 1265 q 346 1280 347 1280 q 332 1246 343 1280 l 363 1202 l 187 1053 l 23 1203 q 15 1234 15 1219 q 23 1255 15 1247 q 172 1369 62 1288 q 332 1468 308 1468 q 359 1484 351 1468 q 379 1500 368 1500 q 404 1480 402 1500 z "},"_":{"ha":908,"x_min":3,"x_max":864,"o":"m 541 252 q 559 254 543 254 q 829 222 619 254 q 838 224 834 224 q 863 199 856 224 q 864 182 864 193 q 839 26 864 139 q 806 0 828 7 q 787 -1 802 -1 q 441 24 721 -1 q 267 8 414 22 q 104 -3 153 -3 q 49 8 52 -3 q 20 53 35 31 q 3 155 3 87 q 4 193 3 173 q 56 248 4 248 q 73 245 64 248 q 92 244 81 244 q 164 252 119 244 q 249 261 233 261 q 275 254 268 261 q 363 239 290 239 q 429 240 368 239 q 501 241 489 241 l 500 239 q 507 197 500 231 q 541 252 524 240 z "},"`":{"ha":414,"x_min":11,"x_max":375,"o":"m 11 1351 q 28 1408 11 1375 q 71 1449 47 1449 q 101 1432 86 1449 q 102 1435 102 1433 q 94 1454 102 1440 q 83 1476 83 1472 q 85 1480 83 1479 q 168 1533 143 1533 q 183 1530 176 1533 q 309 1476 245 1503 q 375 1362 375 1438 q 370 1322 375 1344 q 318 1222 361 1266 q 184 1164 265 1166 q 154 1088 154 1127 q 163 1046 154 1065 q 52 1201 100 1093 q 11 1351 11 1294 m 236 1223 q 321 1314 313 1265 l 272 1282 l 236 1223 z "},"a":{"ha":716,"x_min":3,"x_max":688,"o":"m 408 792 q 437 800 425 800 q 454 783 454 800 q 454 776 454 780 l 454 774 q 550 598 454 761 q 653 418 653 423 q 651 339 653 412 q 649 210 649 256 q 629 203 649 205 q 609 198 609 200 q 661 172 629 188 q 667 129 663 156 q 677 107 672 118 q 688 73 688 87 q 670 47 688 54 q 564 16 635 33 q 427 -7 474 -7 q 386 7 390 -7 q 385 33 385 13 q 391 197 385 78 q 381 195 387 195 q 307 210 359 195 q 273 239 294 216 q 284 120 284 205 q 259 0 284 28 q 142 -12 220 -2 q 54 -21 75 -21 q 24 -12 26 -21 q 94 75 24 -2 q 12 -3 12 18 q 3 99 3 25 q 7 229 3 153 l 47 245 q 25 263 38 248 q 12 289 12 279 q 14 343 14 324 q 10 368 14 368 q 7 366 9 367 q 90 517 30 408 q 165 611 105 519 q 224 707 195 659 q 245 703 233 703 q 330 740 276 703 q 408 792 399 788 m 398 386 q 390 414 395 386 q 391 417 391 416 q 365 463 391 427 q 313 546 326 515 q 292 461 295 468 l 297 439 q 276 384 281 391 q 339 385 280 384 q 398 386 399 386 m 447 158 q 417 84 420 88 q 438 96 421 90 l 447 158 z "},"b":{"ha":746,"x_min":1,"x_max":713,"o":"m 713 241 q 682 139 702 182 q 545 23 633 36 l 463 14 q 427 0 455 9 q 358 9 401 0 q 298 19 314 19 q 260 0 269 19 q 239 -3 247 -3 q 217 13 220 -3 q 212 45 214 28 l 212 46 l 208 0 q 123 -5 163 -5 q 18 31 18 -5 q 1 197 1 75 q 7 370 1 270 l 15 484 q 33 494 24 489 q 67 526 47 507 q 81 540 74 531 l 7 507 q 14 545 14 519 q 8 614 14 564 q 3 686 3 663 q 18 742 3 730 q 195 783 56 764 q 416 802 325 802 q 474 795 459 802 q 600 738 523 793 q 688 642 676 682 q 707 536 707 582 q 684 452 707 482 q 636 427 664 427 q 689 351 673 404 q 713 241 701 297 m 487 517 q 490 550 490 519 q 460 599 490 595 q 437 601 441 601 l 437 619 q 450 713 437 681 l 422 654 l 418 601 q 276 589 323 589 q 247 593 254 589 l 231 604 q 233 549 233 575 q 215 418 233 472 q 264 472 229 454 q 288 484 284 484 q 340 485 292 484 q 399 486 389 486 q 440 471 418 471 q 487 517 476 471 m 653 143 q 648 155 653 155 q 614 108 640 155 l 566 47 q 653 143 653 108 m 422 307 q 369 307 392 307 q 305 305 323 307 q 224 273 239 299 l 224 186 q 267 218 237 218 q 297 208 290 218 q 355 209 301 208 q 408 210 410 210 q 469 251 469 222 q 422 307 469 275 m 113 496 l 100 510 l 67 477 l 113 496 z "},"c":{"ha":653,"x_min":7,"x_max":648,"o":"m 536 568 q 547 566 543 566 q 557 572 554 566 q 563 621 562 604 l 536 568 m 582 790 q 602 795 594 795 q 619 771 619 795 q 615 743 619 759 q 568 555 597 671 q 517 552 544 552 q 418 576 448 552 q 348 587 397 582 q 311 590 326 590 q 281 585 288 590 q 223 545 254 580 q 194 484 194 511 l 194 480 q 195 471 195 476 q 192 421 195 454 q 188 353 188 372 q 204 301 188 305 l 204 298 q 267 232 204 254 q 331 220 304 220 q 363 216 349 216 q 406 223 380 216 q 451 231 432 231 q 471 230 460 231 q 481 211 474 230 q 491 191 488 191 q 494 221 492 191 q 497 227 495 227 q 581 233 534 227 q 633 239 627 239 q 646 232 646 239 q 648 217 648 228 q 637 118 648 189 q 596 0 622 9 q 574 -2 591 -2 q 520 0 564 -2 q 444 2 476 2 q 380 0 410 2 q 322 9 353 0 q 286 19 292 19 q 258 0 269 19 q 237 -3 246 -3 q 216 13 218 -3 q 211 45 213 28 q 209 47 211 47 q 178 21 203 47 q 30 146 30 96 q 16 229 23 162 q 7 387 7 308 q 47 638 7 552 q 109 595 70 621 q 117 593 113 593 q 172 637 140 593 l 169 637 q 144 621 157 637 q 120 601 131 602 l 117 601 q 55 642 96 601 q 182 768 119 751 q 378 804 228 804 q 582 790 473 804 m 443 54 q 415 44 435 53 q 377 36 397 36 l 370 36 q 393 22 370 32 l 396 22 q 443 54 419 22 m 159 83 l 75 150 q 107 101 83 132 q 159 83 123 89 z "},"d":{"ha":713,"x_min":1,"x_max":680,"o":"m 212 45 l 212 46 l 208 0 q 123 -5 163 -5 q 18 31 18 -5 q 1 197 1 75 q 7 370 1 270 l 15 484 q 33 494 24 489 q 67 526 47 507 q 85 543 74 531 l 7 507 q 14 545 14 519 q 8 614 14 564 q 3 686 3 663 q 18 742 3 730 q 195 783 56 764 q 416 802 325 802 q 474 795 459 802 q 540 764 513 793 q 589 710 584 713 q 652 491 629 680 q 680 252 665 371 q 663 146 677 191 q 540 26 627 39 l 473 0 q 414 3 437 3 q 382 0 391 3 q 323 9 354 0 q 286 19 293 19 q 260 0 269 19 q 239 -3 247 -3 q 217 13 220 -3 q 212 45 214 28 m 464 252 q 466 294 466 254 q 464 414 466 335 q 434 581 461 578 q 410 583 415 583 l 410 601 q 424 696 410 663 l 395 637 l 391 583 q 247 593 269 583 l 231 604 q 237 341 237 505 q 225 142 237 181 q 274 197 239 179 q 297 208 294 208 q 336 214 301 208 q 375 221 371 221 q 417 207 395 207 q 464 252 453 207 m 113 496 l 100 510 l 67 477 l 113 496 z "},"e":{"ha":752,"x_min":0,"x_max":726,"o":"m 559 568 q 569 566 565 566 q 579 572 576 566 q 585 621 585 604 l 559 568 m 429 494 q 498 498 436 498 q 631 495 548 498 q 639 496 635 496 q 658 477 652 496 q 659 463 659 471 q 639 339 659 428 q 612 318 630 323 q 307 310 450 311 q 286 334 294 319 q 283 351 283 345 q 298 365 283 365 q 305 369 305 365 q 298 382 305 374 q 273 339 273 376 q 290 264 290 292 q 268 203 290 228 q 299 240 288 224 q 555 250 440 249 q 557 232 557 250 q 561 213 557 213 q 579 232 564 213 q 597 250 593 250 q 717 226 717 249 q 726 81 726 191 q 704 -22 726 -14 l 703 -22 q 569 9 691 -22 q 381 43 445 43 q 367 42 373 43 q 186 9 317 39 q 39 -17 64 -17 q 24 -12 26 -17 q 94 75 24 -2 q 11 -3 11 18 q 3 145 5 17 q 3 218 3 184 q 7 370 3 305 l 49 387 q 24 402 38 391 q 9 429 9 418 l 9 430 q 12 481 12 463 q 7 508 12 508 l 7 507 q 12 550 12 517 q 6 643 12 576 q 0 734 0 709 q 15 783 0 780 q 51 785 21 783 q 249 787 159 785 l 273 766 l 290 787 q 435 781 328 783 l 458 781 q 582 790 561 781 q 602 795 595 795 q 620 771 620 795 q 616 743 620 759 q 606 665 614 742 q 591 555 598 580 q 570 551 590 551 q 490 557 555 551 q 393 562 425 562 q 319 538 338 562 l 314 540 q 307 553 314 549 q 298 563 298 560 q 302 570 298 564 q 309 585 307 576 q 311 593 311 589 q 286 620 311 608 q 300 585 300 599 q 292 561 300 579 l 297 538 q 286 506 286 513 q 261 493 286 498 q 222 508 233 496 q 203 512 218 512 q 162 504 183 512 q 140 486 141 496 l 140 471 q 179 404 140 425 q 180 398 180 401 q 168 365 180 385 q 144 327 157 346 q 192 400 192 380 q 170 423 192 403 q 149 472 149 441 q 150 481 149 476 q 192 503 153 503 q 216 495 209 503 q 292 484 229 484 q 351 485 302 484 q 397 486 399 486 l 408 489 q 402 450 403 471 q 429 494 416 484 m 495 101 q 467 91 488 100 q 427 83 449 83 l 422 83 q 446 69 422 79 l 448 69 q 495 101 471 69 z "},"f":{"ha":655,"x_min":0,"x_max":659,"o":"m 559 568 q 569 566 565 566 q 579 572 576 566 q 585 621 585 604 l 559 568 m 429 494 q 498 498 436 498 q 631 495 548 498 q 639 496 635 496 q 658 477 652 496 q 659 463 659 471 q 639 339 659 428 q 612 318 630 323 q 307 310 450 311 q 273 339 279 323 q 284 167 284 305 q 259 0 284 28 q 142 -12 220 -2 q 53 -21 75 -21 q 24 -12 26 -21 q 94 75 24 -2 q 11 -3 11 18 q 3 145 5 17 q 3 218 3 184 q 7 370 3 305 l 49 387 l 41 390 q 24 402 35 395 q 9 429 9 418 l 9 430 q 12 481 12 463 q 7 508 12 508 q 7 512 7 508 q 12 550 12 517 q 6 643 12 576 q 0 734 0 709 q 15 783 0 780 q 51 785 21 783 q 249 787 159 785 l 273 766 l 290 787 q 435 781 328 783 l 458 781 q 582 790 561 781 q 602 795 595 795 q 620 771 620 795 q 616 743 620 759 q 606 665 614 742 q 591 555 598 580 q 570 551 590 551 q 490 557 555 551 q 393 562 425 562 q 319 538 332 562 l 314 545 l 307 553 q 298 563 298 560 q 302 570 298 564 q 309 585 307 576 q 311 593 311 589 q 286 620 311 608 q 300 585 300 599 q 292 561 300 579 l 297 538 q 286 506 286 513 q 261 493 286 498 q 222 508 233 496 q 173 528 202 528 q 160 519 161 528 q 168 526 161 526 q 216 495 186 526 q 292 484 229 484 q 387 486 302 484 q 402 450 397 477 q 429 494 416 484 z "},"g":{"ha":706,"x_min":7,"x_max":692,"o":"m 640 369 q 637 292 637 329 q 692 53 637 96 q 659 20 685 32 l 624 35 l 642 9 q 484 0 516 0 q 451 91 481 20 q 435 47 444 66 q 385 0 414 2 q 359 -5 374 -5 q 318 4 345 -5 q 281 14 291 14 q 258 0 267 14 q 237 -3 246 -3 q 216 13 218 -3 q 211 45 213 28 q 209 47 211 47 q 178 21 203 47 q 30 146 30 96 q 16 229 23 162 q 7 387 7 308 q 47 638 7 552 q 109 595 70 621 q 121 593 115 593 q 172 620 143 593 l 191 606 q 191 614 191 611 q 172 637 191 633 l 169 637 q 144 621 157 637 q 120 601 131 602 l 117 601 q 55 642 96 601 q 182 768 119 751 q 390 804 248 804 q 473 795 448 804 q 538 764 512 793 q 587 710 583 713 q 636 659 621 686 q 669 547 661 619 l 669 546 q 500 494 669 517 l 500 496 q 488 534 500 505 q 433 581 470 578 q 348 597 368 597 q 288 572 307 597 q 226 545 258 568 q 194 494 194 520 l 194 491 q 195 481 195 487 q 192 429 195 465 q 188 357 188 378 q 204 301 188 305 l 204 298 q 265 224 204 254 q 328 202 310 202 q 421 208 370 202 q 395 302 395 245 q 397 330 395 316 q 494 333 427 331 q 522 317 500 333 q 549 301 544 301 q 555 308 555 301 q 546 339 555 317 q 640 369 599 347 m 159 83 l 75 150 q 107 101 83 132 q 159 83 123 89 z "},"h":{"ha":719,"x_min":1,"x_max":688,"o":"m 649 210 q 629 203 649 205 q 609 198 609 200 q 654 181 629 188 q 667 129 659 160 q 678 107 673 118 q 688 73 688 87 q 670 47 688 54 q 564 16 635 33 q 427 -7 473 -7 q 386 7 391 -7 q 382 67 382 21 q 391 297 382 140 q 380 296 388 296 q 307 310 358 296 q 273 339 294 317 q 285 167 285 305 q 259 0 285 28 q 142 -12 220 -2 q 54 -21 76 -21 q 24 -12 27 -21 q 95 75 24 -2 q 11 -3 11 18 q 3 145 5 17 q 3 218 3 184 q 7 370 3 305 l 46 386 q 23 404 37 388 q 10 429 10 419 l 10 430 q 12 481 12 463 q 8 508 12 508 l 7 507 q 12 550 12 519 q 7 642 12 576 q 1 734 1 708 q 15 783 1 779 q 81 787 38 787 q 113 787 96 787 l 202 785 l 212 785 q 250 787 247 785 l 273 766 l 290 787 q 302 696 302 768 q 292 561 302 582 l 297 538 q 287 506 287 513 q 261 493 287 498 q 222 508 248 494 q 174 528 203 528 l 168 526 q 217 495 187 526 q 288 484 229 484 q 345 485 292 484 q 398 486 399 486 q 391 514 396 486 q 396 557 396 526 q 390 649 396 583 q 384 741 384 715 q 398 790 384 787 q 519 796 456 790 q 538 804 527 804 q 566 797 546 804 q 602 791 587 791 q 632 798 613 791 q 659 806 650 806 q 676 789 676 806 q 675 781 676 785 q 662 628 670 773 q 652 472 652 496 q 649 210 652 456 m 637 732 l 589 758 q 635 677 628 719 l 637 732 m 420 88 q 438 96 421 90 l 447 158 l 420 88 z "},"i":{"ha":337,"x_min":-1,"x_max":304,"o":"m 266 202 q 246 196 266 199 q 226 190 226 192 q 271 173 247 181 q 283 121 275 153 q 294 99 289 110 q 304 66 304 79 q 287 40 304 47 q 181 7 251 26 q 44 -16 91 -16 q 3 0 8 -16 q -1 64 -1 14 q 8 289 -1 137 l 50 305 q 12 314 12 307 l 12 315 q 13 376 13 344 q 7 507 13 438 q 12 550 12 517 q 6 643 12 576 q 0 734 0 709 q 14 783 0 780 q 136 789 72 783 q 155 796 143 796 q 183 790 162 796 q 218 783 204 783 q 248 790 230 783 q 275 798 267 798 q 293 781 293 798 q 292 773 293 777 q 277 620 287 766 q 269 465 269 489 q 266 202 269 448 m 253 724 l 205 750 q 251 670 245 712 l 253 724 m 64 153 q 51 121 58 137 q 33 80 33 81 q 55 89 39 81 l 64 153 z "},"j":{"ha":654,"x_min":0,"x_max":613,"o":"m 224 0 q 83 117 167 1 q 0 328 0 233 q 23 402 0 363 q 62 414 28 412 q 107 418 102 416 q 119 420 113 420 q 140 409 140 420 q 139 406 140 407 q 154 367 151 367 q 155 370 155 367 l 155 373 q 175 406 155 403 q 228 409 208 409 q 252 406 248 409 q 279 366 279 389 q 275 353 279 359 q 264 305 264 329 q 299 227 264 261 q 332 200 324 200 l 332 199 q 315 153 332 195 q 294 99 296 104 q 374 252 357 184 q 392 429 392 324 q 374 642 392 540 q 359 702 359 677 q 378 734 359 728 q 414 747 409 746 q 409 699 409 718 q 410 682 409 689 q 412 677 411 677 q 416 693 414 677 q 419 709 418 709 q 418 714 419 711 q 419 728 418 718 q 433 750 419 747 q 570 757 512 755 q 579 760 574 760 q 595 743 589 760 q 612 519 609 619 q 612 511 612 515 q 587 479 612 485 l 519 470 l 493 493 l 490 480 l 506 465 l 507 446 l 509 441 q 517 448 511 448 q 524 456 517 450 l 528 458 q 538 461 530 461 q 587 468 549 461 l 591 468 q 612 458 604 468 q 613 449 613 456 q 587 295 613 420 q 542 113 555 142 q 395 0 478 33 l 402 54 q 366 21 397 39 q 312 0 339 11 q 254 3 277 3 q 224 0 232 3 m 517 156 q 522 178 522 170 q 514 188 522 188 q 504 127 504 188 q 505 103 504 116 l 517 156 z "},"k":{"ha":663,"x_min":1,"x_max":676,"o":"m 581 193 q 560 186 581 189 q 540 181 540 183 q 586 164 560 171 q 598 113 590 143 q 619 75 609 94 q 638 18 638 39 q 633 0 638 7 q 511 -26 616 -26 q 386 7 396 -26 q 346 81 366 45 q 315 212 315 145 q 316 231 315 221 l 315 231 q 304 249 307 231 q 304 266 304 256 q 304 288 304 275 q 307 310 306 297 q 273 339 294 317 q 285 167 285 305 q 259 0 285 28 q 142 -12 220 -2 q 54 -21 76 -21 q 24 -12 27 -21 q 95 75 24 -2 q 11 -3 11 18 q 3 145 5 17 q 3 218 3 184 q 7 370 3 305 l 46 386 q 23 404 37 388 q 10 429 10 419 l 10 430 q 12 481 12 463 q 8 508 12 508 l 7 507 q 12 550 12 519 q 7 642 12 576 q 1 734 1 708 q 15 783 1 779 q 81 787 38 787 q 113 787 96 787 l 202 785 l 212 785 q 250 787 247 785 l 273 766 l 290 787 q 302 696 302 768 q 292 561 302 582 l 297 538 q 287 506 287 513 q 261 493 287 498 q 222 508 248 494 q 174 528 203 528 l 168 526 q 217 495 187 526 q 288 484 229 484 q 308 478 292 484 q 329 473 325 473 q 378 572 329 477 q 417 694 381 579 q 467 789 445 785 q 519 796 490 790 q 538 804 527 804 q 566 797 546 804 q 602 791 587 791 q 632 798 613 791 q 659 806 650 806 q 676 789 676 806 q 675 781 676 785 q 529 372 621 623 l 529 372 q 553 308 529 366 q 581 193 581 241 m 647 766 l 614 766 q 628 740 628 753 q 622 715 628 734 q 618 690 618 701 q 618 684 618 687 l 647 766 m 416 18 q 437 24 420 18 l 381 94 q 380 89 380 92 q 396 48 380 77 q 414 18 412 18 l 416 18 z "},"l":{"ha":551,"x_min":-1,"x_max":534,"o":"m 529 259 q 517 195 529 245 q 505 125 505 144 l 501 108 q 494 109 498 109 q 475 107 486 109 q 442 140 462 124 l 460 110 q 411 103 413 103 q 387 92 387 99 q 429 99 402 99 q 511 88 465 99 q 522 62 515 80 q 534 15 534 17 q 515 -16 534 -7 l 512 -16 q 405 -1 496 -16 q 253 14 311 14 q 228 14 239 14 q 113 0 188 11 q 29 -9 49 -9 q 3 0 6 -9 q -1 64 -1 14 q 8 289 -1 137 l 50 305 q 12 314 12 307 l 12 315 q 13 376 13 344 q 7 507 13 438 q 12 550 12 517 q 6 643 12 576 q 0 734 0 709 q 14 783 0 780 q 136 789 72 783 l 157 743 l 157 789 q 253 783 217 783 q 313 790 296 783 q 334 795 326 795 q 351 771 351 795 q 347 743 351 759 l 326 672 q 294 487 301 581 q 143 429 170 429 q 138 431 139 429 q 137 436 137 433 q 155 495 137 450 q 180 557 170 538 q 182 566 182 562 q 158 591 182 591 q 144 590 153 591 q 168 563 168 578 q 166 555 168 559 q 144 500 155 528 q 128 439 128 456 q 131 427 128 431 q 139 411 139 422 q 131 386 139 399 l 153 418 q 292 473 277 473 l 294 473 q 296 418 296 454 q 288 286 296 353 q 268 203 279 216 q 386 240 285 205 q 509 271 478 271 q 529 259 529 271 m 54 77 l 33 140 q 32 107 33 126 l 31 91 q 54 77 31 88 z "},"m":{"ha":962,"x_min":2,"x_max":924,"o":"m 897 202 q 877 196 897 199 q 857 190 857 192 q 902 173 878 181 q 895 113 895 130 q 896 104 895 107 q 907 83 901 94 q 915 49 915 62 q 899 23 915 31 q 806 -1 869 12 q 686 -18 730 -18 q 635 -1 640 -18 q 632 33 632 9 q 633 69 632 48 q 644 213 637 141 q 642 221 642 214 q 644 250 642 226 q 646 288 646 273 q 634 332 646 323 l 633 332 q 498 180 612 332 q 500 173 500 177 q 486 162 500 162 q 460 168 476 162 q 372 248 437 176 q 309 327 315 313 q 275 355 296 333 q 286 184 286 326 q 258 0 286 30 q 56 -15 56 -14 l 47 -15 q 11 -3 14 -15 q 9 51 9 4 q 24 536 9 270 l 106 493 l 66 524 q 18 564 21 555 q 12 604 12 576 l 12 612 q 14 642 13 640 q 20 667 20 651 q 11 719 20 685 q 2 764 2 752 q 23 785 2 781 l 104 785 q 249 787 175 785 l 272 766 l 290 787 q 307 740 307 758 q 303 722 307 731 l 309 700 q 299 667 299 674 q 384 535 298 667 q 475 404 471 404 q 614 655 610 618 l 640 531 q 645 571 645 542 q 642 625 645 593 q 632 740 632 726 q 646 783 632 780 q 766 789 703 783 q 787 796 775 796 q 815 790 794 796 q 849 783 836 783 q 879 790 861 783 q 907 798 898 798 q 924 782 924 798 q 923 773 924 778 q 909 620 918 766 q 901 465 901 489 q 897 202 901 448 m 884 724 l 836 750 q 882 670 876 712 l 884 724 m 53 54 l 33 100 q 31 72 31 94 q 33 37 31 56 q 34 20 33 20 l 34 21 q 36 20 34 20 q 56 28 39 20 l 83 15 q 53 54 68 36 z "},"n":{"ha":713,"x_min":2,"x_max":676,"o":"m 649 210 q 629 203 649 205 q 608 198 608 200 q 654 181 629 188 q 646 119 646 135 l 646 113 q 657 90 652 101 q 668 56 668 70 q 650 31 668 38 q 559 5 621 20 q 437 -11 484 -11 q 386 7 391 -11 q 383 37 383 16 q 385 77 383 53 q 394 221 390 149 q 352 264 361 254 q 309 327 322 298 q 275 355 296 333 q 286 184 286 326 q 258 0 286 30 l 62 -15 l 58 -15 q 11 -3 14 -15 q 9 51 9 4 q 24 536 9 270 l 110 484 q 66 524 106 493 q 18 564 21 555 q 12 604 12 576 l 12 612 q 14 642 13 640 q 20 667 20 651 q 11 719 20 685 q 2 764 2 752 q 23 785 2 781 l 104 785 q 249 787 175 785 l 272 766 l 290 787 q 307 740 307 758 q 303 722 307 731 l 309 700 q 299 667 299 674 q 368 541 299 664 q 437 414 437 414 q 458 391 451 391 q 460 393 460 391 q 456 404 460 397 q 391 538 448 425 q 397 578 397 549 q 393 632 397 600 q 383 747 383 734 q 397 790 383 787 q 519 796 456 790 q 538 804 527 804 q 566 797 545 804 q 601 791 587 791 q 631 798 613 791 q 659 806 650 806 q 676 789 676 806 q 675 781 676 785 q 661 628 670 773 q 652 472 652 496 q 649 210 652 456 m 636 732 l 589 758 q 634 677 627 719 l 636 732 m 53 54 l 33 100 q 31 72 31 94 q 33 37 31 56 q 34 20 33 20 l 34 21 q 36 20 34 20 q 56 28 39 20 l 83 15 q 53 54 68 36 z "},"o":{"ha":714,"x_min":7,"x_max":679,"o":"m 679 252 q 662 146 676 191 q 538 26 627 39 l 472 0 q 413 3 435 3 q 380 0 390 3 q 322 9 353 0 q 286 19 292 19 q 258 0 269 19 q 237 -3 246 -3 q 216 13 218 -3 q 211 45 213 28 q 209 47 211 47 q 178 21 203 47 q 30 146 30 96 q 16 229 23 162 q 7 387 7 308 q 47 638 7 552 q 109 595 70 621 q 121 593 115 593 q 172 620 143 593 l 191 606 q 191 614 191 611 q 172 637 191 633 l 169 637 q 144 621 157 637 q 120 601 131 602 l 117 601 q 55 642 96 601 q 182 768 119 751 q 390 804 248 804 q 473 795 448 804 q 538 764 512 793 q 587 710 583 713 q 653 468 629 679 q 654 461 654 465 q 642 395 654 439 l 629 357 q 661 416 659 416 q 662 416 662 416 q 674 322 672 385 q 679 252 676 260 m 463 252 q 465 370 465 254 q 433 581 465 549 q 348 597 368 597 q 288 572 307 597 q 226 545 258 568 q 194 494 194 520 l 194 491 q 195 481 195 487 q 192 429 195 465 q 188 357 188 378 q 204 301 188 305 l 204 298 q 258 213 204 253 q 311 182 300 182 q 328 192 311 183 q 345 201 345 201 q 383 195 361 195 q 463 252 448 195 m 159 83 l 75 150 q 107 101 83 132 q 159 83 123 89 z "},"p":{"ha":701,"x_min":1,"x_max":703,"o":"m 280 107 q 290 66 290 83 q 260 0 290 33 q 239 -3 247 -3 q 217 13 220 -3 q 212 45 214 28 l 212 46 l 208 0 q 123 -5 163 -5 q 18 31 18 -5 q 1 197 1 75 q 7 370 1 270 l 15 484 q 33 494 24 489 q 67 526 47 507 q 85 543 74 531 l 7 507 q 14 545 14 519 q 8 614 14 564 q 3 686 3 663 q 18 742 3 730 q 195 783 56 764 q 416 802 325 802 q 474 795 459 802 q 549 750 513 793 q 608 684 602 688 q 673 610 653 650 q 703 517 686 585 q 673 430 694 468 q 540 330 627 342 l 457 320 q 422 307 450 317 q 350 307 376 307 q 317 307 323 307 q 250 275 265 302 q 257 199 252 232 q 280 107 267 119 m 487 517 q 490 550 490 519 q 460 599 490 595 q 437 601 441 601 l 437 619 q 450 713 437 681 l 422 654 l 418 601 q 276 589 323 589 q 247 593 254 589 l 231 604 q 233 549 233 575 q 215 418 233 472 q 264 472 229 454 q 288 484 284 484 q 337 485 292 484 q 399 486 383 486 q 440 471 418 471 q 487 517 476 471 m 113 496 l 100 510 l 67 477 l 113 496 z "},"q":{"ha":733,"x_min":7,"x_max":701,"o":"m 662 416 q 669 352 669 392 q 655 245 669 294 q 608 171 638 189 q 701 99 701 121 q 701 96 701 98 q 682 71 696 83 q 637 81 670 77 l 651 53 q 570 -14 589 -14 q 545 3 557 -14 q 531 19 532 19 q 549 -14 531 16 q 412 81 486 5 q 450 23 414 50 q 384 9 423 9 q 337 12 367 9 q 296 16 307 16 q 258 0 267 16 q 237 -3 246 -3 q 216 13 218 -3 q 211 45 213 28 q 209 47 211 47 q 178 21 203 47 q 30 146 30 96 q 16 229 23 162 q 7 387 7 308 q 47 638 7 552 q 109 595 93 604 q 121 593 115 593 q 172 620 143 593 l 191 606 q 191 614 191 611 q 172 637 191 633 l 169 637 q 144 621 157 637 q 120 601 131 602 l 117 601 q 55 642 96 601 q 182 768 119 751 q 390 804 248 804 q 473 795 448 804 q 538 764 512 793 q 587 710 583 713 q 653 468 629 679 q 654 461 654 465 q 642 395 654 439 q 631 342 631 352 l 645 385 q 661 416 659 416 q 662 416 662 416 m 467 294 q 468 327 468 296 q 467 418 468 359 q 433 581 463 551 q 348 597 368 597 q 288 572 307 597 q 226 545 258 568 q 194 494 194 520 l 194 491 q 195 481 195 487 q 192 429 195 465 q 188 357 188 378 q 204 301 188 305 l 204 298 q 265 224 204 254 q 328 202 310 202 l 295 231 q 251 349 264 290 q 294 352 277 352 q 405 310 359 352 q 456 290 456 297 l 467 294 m 159 83 l 75 150 q 107 101 83 132 q 159 83 123 89 z "},"r":{"ha":728,"x_min":1,"x_max":703,"o":"m 703 517 q 673 430 694 468 q 540 330 627 342 l 457 320 q 422 307 450 317 l 513 310 q 659 139 627 139 l 661 139 q 688 113 688 123 q 687 110 688 111 q 610 95 670 100 l 637 66 q 556 0 575 0 q 530 16 543 0 q 517 32 518 32 q 536 0 517 28 q 393 118 454 60 q 243 357 247 256 q 250 242 244 294 q 280 107 267 119 q 290 66 290 83 q 260 0 290 33 q 239 -3 247 -3 q 217 13 220 -3 q 212 45 214 28 l 212 46 l 208 0 q 123 -5 163 -5 q 18 31 18 -5 q 1 197 1 75 q 7 370 1 270 l 15 484 q 33 494 24 489 q 67 526 47 507 q 85 543 74 531 l 7 507 q 14 545 14 519 q 8 614 14 564 q 3 686 3 663 q 18 742 3 730 q 195 783 56 764 q 416 802 325 802 q 474 795 459 802 q 549 750 513 793 q 608 684 602 688 q 673 610 653 650 q 703 517 686 585 m 487 517 q 490 550 490 519 q 460 599 490 595 q 437 601 441 601 l 437 619 q 450 713 437 681 l 422 654 l 418 601 q 276 589 323 589 q 247 593 254 589 l 231 604 q 233 549 233 575 q 215 418 233 472 q 264 472 229 454 q 298 484 284 484 q 399 486 394 486 q 440 471 418 471 q 487 517 476 471 m 497 100 l 444 162 q 464 127 464 129 q 497 100 464 124 m 388 205 l 388 243 l 359 248 l 388 205 m 113 496 l 100 510 l 67 477 l 113 496 z "},"s":{"ha":732,"x_min":-4,"x_max":713,"o":"m 713 241 q 677 140 699 183 q 545 23 626 36 q 342 -21 455 -21 q 244 0 280 -21 q 238 -2 241 -1 q 233 7 233 -2 q 243 50 233 15 q 250 87 250 76 l 250 91 q 249 92 250 92 q 208 0 245 92 q 199 -1 203 -1 q 146 14 174 -1 q 83 69 109 32 l 102 115 q 62 79 71 79 q 21 99 47 79 q -4 134 -4 119 q 15 165 -4 151 l 81 230 q 86 232 81 232 q 114 225 92 232 q 142 218 136 218 q 147 220 146 218 l 94 243 q 124 275 124 275 q 151 288 137 288 q 173 273 163 288 q 385 165 220 177 q 470 237 470 197 q 431 292 470 263 q 201 349 355 292 l 203 349 q 207 373 207 349 q 196 474 207 418 q 165 546 182 538 q 182 487 173 542 q 191 391 191 431 q 182 355 191 355 q 179 355 181 355 q 62 421 111 374 q 15 484 29 452 q 92 541 48 499 q 130 585 130 579 l 130 585 q 120 578 127 585 q 7 507 76 536 q -3 579 -3 562 q 22 642 -3 623 q 212 766 52 724 l 214 766 q 222 752 222 766 q 218 728 222 742 q 212 708 214 713 q 239 746 217 715 q 266 779 260 778 q 459 796 359 796 q 643 771 583 796 q 659 747 659 757 q 649 726 659 738 l 581 572 q 348 612 420 612 q 314 606 323 612 q 256 582 269 595 q 241 538 241 568 l 241 533 q 461 465 297 465 l 481 465 q 621 423 566 461 q 595 406 621 421 l 585 397 q 623 404 604 404 q 654 395 645 404 q 713 241 701 340 m 507 262 l 502 311 l 440 315 q 472 307 458 312 q 507 262 493 294 z "},"t":{"ha":816,"x_min":-7,"x_max":802,"o":"m 532 202 q 513 196 532 199 q 493 190 493 192 q 538 173 514 181 q 550 121 543 153 q 563 99 555 110 q 572 66 572 79 q 553 40 572 47 q 448 7 518 26 q 311 -16 358 -16 q 271 0 275 -16 q 267 66 267 15 q 275 289 267 140 l 317 305 q 278 314 278 307 l 278 315 q 290 490 283 403 q 271 493 284 493 q 223 488 260 493 q 165 484 186 484 q 104 500 125 484 q 31 596 70 528 q -7 696 -7 665 q -4 708 -7 703 q 19 722 7 722 q 31 718 26 722 q 100 708 52 708 q 316 734 182 708 q 294 597 306 708 q 313 684 301 612 q 342 741 321 736 q 387 759 374 747 q 440 776 399 771 q 514 790 490 780 q 584 804 546 804 q 629 799 608 804 l 772 764 q 802 713 802 755 q 798 648 802 710 q 790 534 795 591 q 748 470 781 470 q 666 499 727 470 q 586 528 606 528 q 568 522 574 528 q 561 555 566 522 q 538 623 553 598 q 476 659 516 659 q 445 654 461 659 q 539 609 520 648 q 562 519 550 564 q 536 467 536 487 q 532 202 536 448 m 457 503 l 409 529 q 455 449 448 491 l 457 503 m 332 153 q 318 121 325 137 q 294 82 300 87 l 299 83 q 300 81 299 81 q 321 89 305 81 l 332 153 z "},"u":{"ha":654,"x_min":0,"x_max":613,"o":"m 139 741 q 71 583 120 639 l 132 628 q 155 705 155 691 l 155 709 q 175 741 155 739 q 228 745 208 745 q 252 741 248 745 q 279 701 279 724 q 275 689 279 694 q 256 583 265 679 q 245 480 245 500 q 218 463 245 474 q 188 444 190 452 l 188 443 q 192 439 188 439 q 230 454 202 439 q 239 456 235 456 q 250 449 250 456 q 242 435 250 444 q 243 422 243 430 q 241 393 243 411 q 240 350 240 360 q 259 300 240 305 l 259 295 q 296 222 259 252 q 332 200 322 200 l 332 199 q 315 153 332 195 q 302 104 307 121 q 374 252 357 184 q 392 429 392 324 q 374 642 392 540 q 359 702 359 677 q 378 734 359 728 q 419 747 414 745 q 409 699 409 718 q 410 682 409 689 q 412 677 411 677 q 416 693 414 677 q 419 709 418 709 l 418 714 q 419 728 418 718 q 433 750 425 742 q 570 757 512 755 q 579 760 574 760 q 595 743 589 760 q 612 519 609 619 q 612 511 612 515 q 587 479 612 485 l 519 470 l 493 493 l 490 480 l 500 470 l 500 464 l 511 464 q 527 461 519 461 q 587 468 549 461 l 591 468 q 612 458 604 468 q 613 449 613 456 q 587 295 613 420 q 542 113 555 142 q 422 15 505 47 l 402 56 q 403 40 403 47 q 384 0 403 12 q 324 3 347 3 q 292 0 301 3 q 168 42 229 1 q 64 175 94 90 q 39 261 54 179 q 26 342 32 296 l 61 342 q 23 374 31 355 q 9 519 18 388 q 0 663 0 638 q 23 738 0 699 q 62 749 28 747 q 107 753 102 751 q 119 755 113 755 q 140 745 140 755 q 139 741 140 742 m 412 162 q 416 183 416 176 q 409 194 416 194 q 398 133 398 194 q 399 110 398 123 l 412 162 z "},"v":{"ha":640,"x_min":-3,"x_max":613,"o":"m 519 470 q 547 465 526 465 q 587 468 562 465 l 591 468 q 612 458 605 468 q 613 455 613 457 q 547 280 613 435 q 460 85 492 153 q 322 0 405 33 l 252 23 q 115 186 186 49 q 59 320 87 245 l 94 320 q 57 352 64 333 q -3 608 -3 487 q 0 663 -3 635 q 23 738 4 707 q 62 749 28 747 q 107 753 102 751 q 119 755 112 755 q 140 745 140 755 q 139 741 140 742 q 154 702 151 702 q 155 705 155 702 l 155 709 q 174 741 155 739 q 195 745 182 742 q 212 749 207 749 q 227 745 220 749 q 253 704 253 728 q 249 684 253 700 q 245 655 245 668 q 249 544 245 618 q 258 461 252 470 q 200 425 202 433 l 200 424 q 204 420 200 420 q 242 435 214 420 q 252 437 248 437 q 262 430 262 437 q 254 416 262 425 q 281 316 256 374 q 329 245 307 251 q 371 420 350 332 q 395 600 395 532 q 392 648 395 627 q 376 709 376 684 q 395 741 376 736 q 437 753 431 751 q 427 707 427 726 q 428 689 427 696 q 430 685 428 686 q 442 715 433 685 q 452 745 451 745 q 454 746 452 745 q 470 750 456 747 q 570 757 531 755 q 578 760 574 760 q 595 743 589 760 q 612 519 608 619 q 613 512 613 515 q 587 479 613 485 l 519 470 m 431 90 q 462 144 462 134 q 460 148 462 148 q 376 52 448 148 l 431 90 z "},"w":{"ha":996,"x_min":-3,"x_max":966,"o":"m 940 444 l 872 435 q 900 430 879 430 q 940 433 916 430 q 945 434 942 434 q 966 423 958 434 q 966 420 966 422 q 900 245 966 400 q 813 50 846 119 q 794 21 806 36 q 709 -34 764 -12 l 606 -11 q 544 53 569 -3 q 497 165 519 110 q 460 85 470 107 q 424 56 444 70 q 322 0 378 22 l 252 23 q 59 320 153 56 l 94 320 q 57 352 80 327 q -3 608 -3 487 q 0 663 -3 635 q 23 738 4 707 q 62 749 28 747 q 107 753 102 751 q 119 755 112 755 q 140 745 140 755 q 139 741 140 742 q 154 702 151 702 q 155 705 155 702 l 155 709 q 174 741 155 739 q 195 745 182 742 q 212 749 207 749 q 227 745 220 749 q 253 704 253 728 q 249 684 253 700 q 245 655 245 668 q 249 547 245 618 q 258 461 252 475 q 230 445 258 456 q 200 425 202 433 l 200 424 q 204 420 200 420 q 242 435 214 420 q 252 437 248 437 q 262 430 262 437 q 254 416 262 425 q 281 316 256 374 q 329 245 307 251 q 388 507 351 331 q 386 540 386 522 q 389 585 386 562 q 412 644 395 637 l 409 644 q 391 651 399 644 q 376 709 376 685 q 395 741 376 736 q 431 753 428 751 q 427 712 428 731 q 442 715 433 713 q 452 745 446 728 l 454 746 q 470 750 456 747 q 536 757 491 753 q 546 760 541 760 q 568 715 562 760 q 580 710 574 713 q 606 670 606 693 q 602 650 606 666 q 597 621 597 633 q 622 416 597 583 q 606 431 611 426 q 595 440 603 437 q 570 457 580 457 q 566 456 568 457 l 581 423 q 595 401 591 422 q 605 402 601 402 q 616 395 616 402 q 608 382 616 391 q 635 281 610 340 q 682 210 660 216 q 749 595 749 489 q 745 646 749 625 q 730 707 730 681 q 749 739 730 734 q 785 751 781 749 q 780 704 780 722 q 781 687 780 694 q 783 682 782 684 q 795 712 787 682 q 805 742 804 742 q 808 744 806 742 q 823 747 810 745 q 923 755 844 751 q 932 758 928 758 q 948 742 942 758 q 960 617 954 726 q 966 484 962 550 q 966 478 966 481 q 940 444 966 450 z "},"x":{"ha":663,"x_min":7,"x_max":676,"o":"m 581 193 q 560 186 581 189 q 540 181 540 183 q 586 164 560 171 q 598 113 590 143 q 618 75 609 94 q 637 18 637 39 q 633 0 637 7 q 511 -26 616 -26 q 385 7 396 -26 q 355 64 370 36 q 333 173 333 110 q 334 195 333 184 l 332 195 q 323 213 325 195 q 322 231 322 221 q 323 252 322 240 q 325 275 323 261 q 293 197 301 197 q 291 189 292 197 q 297 149 297 184 q 259 0 297 41 l 68 -15 l 58 -15 q 11 -3 14 -15 l 11 -3 q 66 148 11 9 q 130 374 127 302 l 169 390 q 133 435 158 395 q 109 489 125 451 l 96 522 q 7 766 7 715 q 14 783 7 781 q 81 787 38 787 q 113 787 96 787 l 202 785 l 212 785 q 249 787 247 785 l 272 766 l 315 578 q 334 552 315 570 l 345 549 l 357 546 l 357 547 q 377 608 357 551 q 417 712 397 661 q 467 789 445 785 q 519 796 490 790 q 538 804 526 804 q 566 797 545 804 q 602 791 587 791 q 632 798 613 791 q 659 806 650 806 q 676 789 676 806 q 675 781 676 785 q 529 372 621 623 l 529 372 q 553 308 529 366 q 581 193 581 241 m 647 766 l 614 766 q 628 740 628 753 q 622 715 628 734 q 617 690 617 701 q 618 684 617 687 l 647 766 m 416 18 q 437 24 420 18 l 381 94 q 380 89 380 92 q 396 48 380 77 q 414 18 412 18 l 416 18 z "},"y":{"ha":633,"x_min":7,"x_max":676,"o":"m 430 267 q 411 260 430 263 q 391 254 391 256 q 437 237 411 245 q 449 186 441 216 q 464 61 464 137 q 456 15 464 26 q 264 0 275 1 l 255 0 q 208 11 212 0 q 201 116 201 38 q 208 324 201 195 l 212 365 q 176 409 200 369 q 125 484 158 441 q 96 522 98 522 q 7 766 7 715 q 14 783 7 781 q 81 787 38 787 q 113 787 96 787 l 208 785 l 212 785 q 249 787 247 785 l 272 766 l 315 578 q 334 552 315 570 l 345 549 l 357 546 l 357 547 q 377 608 357 551 q 417 712 397 661 q 467 789 445 785 q 519 796 490 790 q 538 804 526 804 q 566 797 545 804 q 602 791 587 791 q 632 798 613 791 q 659 806 650 806 q 676 789 676 806 q 675 781 676 785 q 548 460 631 668 q 488 389 518 425 q 430 267 431 317 m 647 766 l 614 766 q 628 740 628 753 q 622 715 628 734 q 617 690 617 701 q 618 684 617 687 l 647 766 z "},"z":{"ha":743,"x_min":0,"x_max":727,"o":"m 717 226 q 727 81 727 191 q 705 -22 727 -14 l 704 -22 q 569 9 691 -22 q 381 43 445 43 q 367 42 373 43 q 186 9 317 39 q 39 -17 64 -17 q 24 -12 26 -17 q 94 75 24 -2 q 12 -3 12 18 q 5 92 5 17 q 22 229 5 207 q 205 435 31 290 q 380 578 292 507 q 385 604 385 591 q 355 669 385 644 q 368 634 368 648 q 359 610 368 628 l 365 587 q 343 576 343 580 q 318 564 343 569 q 248 566 283 566 q 0 551 120 566 q 6 601 6 563 q 2 680 6 632 q 0 726 0 707 q 15 783 0 779 q 81 787 38 787 q 113 787 96 787 q 229 785 219 785 q 249 787 247 785 l 273 766 l 290 787 q 435 781 328 783 l 458 781 q 582 790 561 781 q 602 795 595 795 q 620 771 620 795 q 616 743 620 759 q 591 555 609 671 q 437 411 590 551 q 281 239 283 270 l 268 203 q 299 240 275 209 q 555 250 440 249 q 557 232 557 250 q 561 213 557 213 q 579 232 565 213 q 597 250 593 250 q 717 226 717 249 m 586 621 l 559 568 q 569 566 565 566 q 579 572 576 566 q 586 621 583 583 m 496 101 q 468 91 488 100 q 427 83 449 83 l 422 83 q 446 69 422 79 l 449 69 q 496 101 472 69 z "},"{":{"ha":577,"x_min":3,"x_max":566,"o":"m 465 782 q 478 779 473 779 q 490 787 487 779 q 498 848 497 827 l 465 782 m 22 222 q 3 450 3 271 q 58 798 3 673 q 136 745 87 777 q 147 742 142 742 q 215 796 175 742 l 212 796 q 182 776 197 796 q 150 751 164 753 l 146 751 q 69 803 120 751 q 228 960 149 939 q 386 1003 285 1003 q 519 986 453 1003 q 545 993 534 993 q 566 962 566 993 q 561 928 566 947 q 503 749 547 909 q 396 734 441 746 q 264 653 283 710 q 231 469 231 586 q 256 376 231 383 l 256 369 q 293 290 256 316 q 330 275 315 275 q 418 265 362 267 q 505 260 484 262 q 518 235 510 260 q 530 211 526 211 q 511 87 524 121 q 393 0 481 5 q 308 22 354 0 q 250 45 261 45 q 224 26 233 45 q 127 66 168 41 q 22 222 31 126 m 199 103 l 94 187 q 135 126 104 165 q 199 103 154 111 z "},"|":{"ha":410,"x_min":3,"x_max":391,"o":"m 343 -5 q 318 -14 343 -9 q 293 -21 293 -18 q 350 -41 319 -32 q 367 -107 357 -68 q 380 -135 374 -121 q 391 -176 391 -160 q 371 -208 391 -199 q 237 -249 326 -225 q 66 -278 125 -278 q 15 -258 21 -278 q 5 4 8 -233 q 5 132 5 74 q 9 361 5 280 l 62 382 q 14 393 14 383 l 14 393 q 16 472 16 431 q 8 633 16 549 q 16 701 16 648 q 9 850 16 742 q 3 1002 3 958 q 21 1089 3 1084 q 172 1097 93 1090 q 196 1107 182 1107 q 232 1099 205 1107 q 275 1090 258 1090 q 313 1099 290 1090 q 347 1108 336 1108 q 369 1087 369 1108 q 368 1078 369 1083 q 349 831 361 1068 q 336 589 336 615 l 336 583 l 340 319 q 344 38 344 123 q 343 -5 344 10 m 319 1017 l 260 1048 q 317 949 309 1002 l 319 1017 m 92 -66 q 75 -107 83 -87 q 54 -157 54 -156 q 79 -147 59 -157 l 92 -66 z "},"}":{"ha":600,"x_min":-5,"x_max":558,"o":"m 62 843 q 71 782 64 821 q 83 774 75 774 q 96 777 89 774 l 62 843 m 539 216 q 433 61 531 121 q 338 21 393 36 q 311 39 328 39 q 254 17 300 39 q 168 -5 207 -5 q 50 82 81 0 q 31 205 37 115 q 43 230 35 205 q 56 254 52 254 q 143 260 78 257 q 231 269 199 261 q 268 285 246 269 q 306 363 306 311 l 306 371 q 331 464 331 378 q 297 647 331 581 q 165 729 278 704 q 58 743 119 741 q 0 922 14 904 q -5 957 -5 942 q 17 987 -5 987 q 42 981 26 987 q 175 997 109 997 q 334 954 277 997 q 492 798 412 933 q 415 746 442 746 l 411 746 q 380 770 397 747 q 349 790 365 790 l 346 790 q 414 736 387 736 q 425 739 420 736 q 503 791 474 771 q 558 444 558 668 q 539 216 558 265 m 363 97 q 427 121 407 106 q 467 182 457 160 l 363 97 z "},"~":{"ha":762,"x_min":0,"x_max":778,"o":"m 553 1127 l 517 1185 l 468 1217 q 553 1127 475 1168 m 127 1093 q 0 1241 102 1112 q 215 1497 126 1497 q 335 1429 260 1497 q 454 1362 410 1362 q 475 1364 465 1362 q 538 1417 518 1374 q 557 1491 546 1434 q 579 1530 564 1529 l 581 1530 q 764 1441 621 1530 q 778 1419 778 1431 q 777 1409 778 1413 q 689 1245 751 1350 q 559 1097 600 1097 q 412 1185 524 1097 q 279 1281 296 1278 q 272 1282 276 1282 q 160 1109 213 1282 q 143 1085 157 1085 q 127 1093 136 1085 z "},"¡":{"ha":408,"x_min":-3,"x_max":366,"o":"m 31 458 q 56 466 31 462 q 81 473 81 471 q 24 494 55 484 q 9 559 19 520 l 9 560 q 18 564 9 564 q 70 556 24 564 q 142 549 116 549 q 227 574 162 549 q 316 598 291 598 q 347 578 341 598 q 357 457 357 541 q 354 349 357 410 l 301 329 q 349 318 349 328 l 349 317 q 347 254 347 282 q 355 174 347 196 q 348 137 348 161 q 356 78 348 117 q 363 26 363 39 q 345 -3 363 -1 q 194 -12 273 -5 q 170 -21 184 -21 q 134 -13 161 -21 q 91 -5 108 -5 q 53 -14 76 -5 q 19 -22 30 -22 q -3 -1 -3 -22 q -2 8 -3 3 q 16 116 5 18 q 27 226 27 206 q 28 311 27 234 q 31 458 30 401 m 3 847 q 142 994 3 961 q 169 997 154 997 q 293 959 227 997 q 363 876 358 922 q 366 842 366 859 q 301 722 366 762 q 176 667 239 695 q 161 665 169 665 q 77 718 136 665 q 76 722 76 719 q 87 744 76 726 q 96 763 96 758 q 94 766 96 765 q 64 749 79 749 q 20 790 40 749 q 3 847 3 823 m 47 69 l 106 37 q 50 137 58 84 l 47 69 m 229 975 l 264 916 l 313 884 q 229 975 307 933 z "},"¢":{"ha":653,"x_min":7,"x_max":648,"o":"m 536 514 q 547 511 543 511 q 557 518 554 511 q 563 567 562 549 l 536 514 m 159 137 l 75 204 q 107 155 83 186 q 159 137 123 143 m 505 744 q 582 736 543 741 q 602 741 594 741 q 619 717 619 741 q 615 689 619 705 q 568 501 597 617 q 517 498 544 498 q 487 499 501 498 q 486 465 486 475 q 484 258 486 450 q 491 245 488 245 q 494 275 492 245 q 497 281 495 281 q 581 287 534 281 q 633 293 627 293 q 646 286 646 293 q 648 271 648 282 q 637 172 648 243 q 596 54 622 64 q 574 52 591 52 q 520 54 564 52 l 519 54 q 504 40 515 45 q 398 7 468 26 q 261 -16 308 -16 q 220 0 225 -16 q 216 64 216 14 l 216 64 q 216 67 216 66 q 211 99 213 83 q 209 101 211 101 q 178 75 203 101 q 30 201 30 150 q 16 283 23 216 q 7 387 7 362 q 47 584 7 498 q 109 541 70 567 q 117 539 113 539 q 172 583 140 539 l 169 583 q 144 566 157 583 q 120 547 131 548 l 117 547 q 55 588 96 547 q 182 713 119 696 q 217 731 195 724 l 217 734 q 231 783 217 780 q 353 789 289 783 q 372 796 360 796 q 400 790 379 796 q 435 783 421 783 q 465 790 447 783 q 492 798 484 798 q 510 781 510 798 q 509 773 510 777 q 505 744 507 770 m 225 492 q 223 490 224 492 q 194 430 194 457 l 194 426 l 192 421 q 204 355 193 376 l 204 353 q 244 296 204 317 l 267 305 q 229 314 229 307 l 229 315 q 230 376 230 344 q 225 492 230 431 m 424 749 l 425 749 l 422 750 q 424 749 423 749 z "},"£":{"ha":983,"x_min":0,"x_max":965,"o":"m 884 45 q 848 32 874 43 q 798 22 825 22 l 792 22 q 821 5 792 17 l 825 5 q 884 45 854 5 m 332 526 q 359 505 342 514 q 361 498 361 502 q 345 456 361 481 q 316 408 332 432 q 376 500 376 475 q 347 529 376 504 l 347 530 l 332 526 m 170 -7 q 41 -3 117 -5 q 33 -4 37 -4 q 8 20 15 -4 q 7 37 7 26 q 32 193 7 80 q 65 219 43 212 q 139 222 102 221 l 139 273 q 140 374 139 327 q 35 377 94 375 q 26 376 30 376 q 1 400 8 376 q 0 417 0 406 q 25 572 0 460 q 58 599 36 592 q 150 603 105 601 q 151 609 151 606 q 145 635 150 635 l 144 633 q 153 638 145 636 q 194 798 165 735 q 271 745 223 777 q 287 741 279 741 q 351 775 315 741 l 374 758 q 375 768 375 764 q 351 796 375 792 l 347 796 q 317 776 332 796 q 286 751 299 753 l 281 751 q 205 803 256 751 q 363 960 284 939 q 623 1006 446 1006 q 727 994 695 1006 q 809 954 776 991 q 870 888 865 892 q 924 830 911 857 q 965 738 955 781 l 965 736 q 753 672 965 701 q 754 675 754 673 q 739 722 754 685 l 677 726 q 570 746 595 746 q 495 715 520 746 q 452 669 478 690 l 446 661 q 494 632 494 640 q 462 616 494 623 q 414 635 427 621 q 390 640 408 640 l 383 640 q 380 629 381 635 q 406 619 397 629 q 501 604 422 604 l 508 604 q 503 562 503 585 q 536 617 519 606 q 623 623 545 623 q 789 619 685 623 q 798 621 793 621 q 822 596 815 621 q 824 578 824 589 q 799 424 824 535 q 765 397 787 404 q 519 387 562 389 q 494 418 503 399 q 489 439 489 431 q 508 456 489 456 q 517 461 517 456 q 508 478 517 468 q 476 424 476 471 q 498 330 498 364 q 471 254 498 285 q 509 300 495 279 q 693 313 550 311 q 697 290 697 313 q 701 267 697 267 q 724 290 705 267 q 746 313 742 313 q 896 282 896 311 q 908 102 908 239 q 880 -28 908 -17 l 879 -28 q 711 12 864 -28 q 490 33 563 33 l 452 26 q 170 -7 369 12 z "},"¤":{"ha":829,"x_min":0,"x_max":845,"o":"m 808 957 l 768 957 q 785 925 785 942 q 777 894 785 917 q 771 863 771 877 q 772 854 771 859 l 808 957 m 518 22 q 520 22 518 22 q 546 31 525 22 l 476 117 q 475 111 475 115 q 494 60 475 96 q 517 22 515 22 q 518 22 518 22 m 728 663 q 607 744 728 692 l 671 678 q 718 652 705 652 q 728 663 728 652 m 433 413 q 554 439 510 414 q 599 503 599 465 q 414 650 599 591 q 238 547 302 634 l 238 541 q 303 454 238 487 q 368 431 347 431 q 401 422 368 431 q 433 413 433 414 m 178 307 l 74 391 q 114 330 83 369 q 178 307 134 315 m 724 263 q 725 241 725 252 q 700 233 725 236 q 675 227 675 229 q 732 205 700 214 q 747 140 737 179 q 773 93 761 117 q 797 22 797 49 q 791 0 797 8 q 639 -33 769 -33 q 481 9 494 -33 q 443 79 463 45 q 416 207 417 134 q 383 216 399 210 q 369 220 376 218 q 371 186 371 207 q 323 0 371 52 l 84 -18 l 72 -18 q 14 -4 18 -18 l 14 -3 q 82 184 14 12 q 117 277 102 235 q 17 387 17 340 q 0 490 9 406 q 23 622 1 588 q 79 713 45 656 l 88 722 q 8 958 8 903 q 18 978 8 977 q 102 984 47 984 q 140 983 119 984 l 252 981 l 265 981 q 311 983 308 981 l 340 957 l 373 810 q 406 812 390 811 l 426 812 q 490 808 459 812 q 521 890 505 850 q 583 986 555 981 q 648 996 612 987 q 672 1004 658 1004 q 707 997 682 1004 q 751 989 733 989 q 789 998 766 989 q 823 1007 812 1007 q 845 986 845 1007 q 844 977 845 982 q 742 688 802 854 q 804 570 792 633 q 824 531 808 556 q 828 519 825 530 q 807 387 825 442 q 724 263 779 301 z "},"¥":{"ha":791,"x_min":8,"x_max":845,"o":"m 808 957 l 768 957 q 785 925 785 942 q 777 894 785 917 q 771 863 771 877 q 772 854 771 859 l 808 957 m 137 633 q 119 653 121 653 q 8 958 8 893 q 18 978 8 977 q 102 984 47 984 q 140 983 119 984 l 259 981 l 265 981 q 311 983 308 981 l 340 957 l 393 722 q 416 690 393 713 l 431 686 l 446 682 l 446 683 q 471 760 446 689 q 521 890 496 825 q 583 986 555 981 q 648 996 612 987 q 672 1004 658 1004 q 707 997 682 1004 q 751 989 733 989 q 789 998 766 989 q 823 1007 812 1007 q 845 986 845 1007 q 844 977 845 982 q 712 644 796 854 q 755 642 732 644 q 764 644 760 644 q 788 619 781 644 q 789 602 789 613 q 764 447 789 559 q 731 420 753 427 q 561 413 641 416 q 537 334 538 369 q 513 325 537 329 q 489 318 489 321 q 509 310 498 314 q 587 319 542 313 q 706 330 675 330 q 746 319 743 330 q 775 275 760 296 q 792 172 792 240 q 791 134 792 154 q 739 80 791 80 q 722 81 731 80 q 704 83 713 83 q 657 76 682 83 q 618 66 623 66 q 603 73 610 66 q 579 83 596 80 l 579 77 q 569 18 579 33 q 330 0 344 1 l 318 0 q 260 14 264 0 q 252 69 254 32 l 251 69 q 85 73 189 69 q 76 72 80 72 q 52 96 58 72 q 50 113 50 102 q 75 269 50 156 q 109 295 86 288 q 254 301 184 299 q 259 392 256 343 q 149 385 185 385 q 94 397 96 385 q 64 441 79 419 q 47 544 47 475 q 49 581 47 562 q 100 635 49 635 q 117 634 109 635 q 137 633 126 633 z "},"¦":{"ha":688,"x_min":290,"x_max":398,"o":"m 290 252 l 398 252 l 398 -283 l 290 -283 l 290 252 m 290 1070 l 398 1070 l 398 535 l 290 535 l 290 1070 z "},"§":{"ha":688,"x_min":115,"x_max":572,"o":"m 370 218 q 435 254 408 229 q 485 366 485 298 q 484 373 485 370 l 483 373 q 480 391 482 382 q 404 477 465 433 q 318 497 363 497 q 233 467 265 497 q 201 387 201 437 q 370 218 201 304 m 316 -235 q 441 -188 393 -231 q 490 -76 490 -144 q 276 111 490 9 q 157 204 193 155 q 121 324 121 254 q 182 485 121 425 q 297 541 227 529 l 270 553 q 151 646 186 597 q 115 766 115 696 q 176 927 115 867 q 322 985 231 981 q 334 986 328 986 l 336 986 q 446 975 380 986 q 512 947 512 964 l 512 815 l 477 815 q 423 905 474 870 q 322 939 376 937 l 312 939 q 227 909 259 939 q 195 829 195 879 q 390 647 195 740 q 529 550 491 602 q 566 422 566 498 q 498 231 566 307 q 431 188 466 205 q 535 108 504 150 q 572 -19 572 56 q 504 -211 572 -135 q 316 -282 420 -280 l 316 -281 q 307 -282 312 -282 l 305 -282 q 195 -271 260 -282 q 129 -243 129 -260 l 129 -111 l 163 -111 q 218 -201 167 -166 q 316 -235 264 -231 z "},"¨":{"ha":882,"x_min":-3,"x_max":835,"o":"m 360 1213 q 221 1065 360 1099 q 195 1063 210 1063 q 71 1100 136 1063 q 0 1183 5 1138 q -3 1217 -3 1200 q 62 1338 -3 1297 q 188 1392 125 1364 q 203 1395 195 1395 q 286 1342 228 1395 q 288 1338 288 1341 q 277 1316 288 1334 q 268 1297 268 1302 q 269 1293 268 1295 q 300 1310 285 1310 q 343 1270 323 1310 q 360 1213 360 1236 m 135 1085 l 99 1143 l 50 1175 q 135 1085 57 1126 m 835 1213 q 696 1065 835 1099 q 669 1063 684 1063 q 546 1100 611 1063 q 475 1183 480 1138 q 472 1217 472 1200 q 537 1338 472 1297 q 663 1392 600 1364 q 677 1395 669 1395 q 761 1342 703 1395 q 762 1338 762 1341 q 751 1316 762 1334 q 743 1297 743 1302 q 744 1293 743 1295 q 774 1310 760 1310 q 818 1270 798 1310 q 835 1213 835 1236 m 610 1085 l 574 1143 l 525 1175 q 610 1085 532 1126 z "},"©":{"ha":712,"x_min":0,"x_max":668,"o":"m 442 776 q 448 774 446 774 q 454 779 453 774 q 458 809 458 798 l 442 776 m 206 473 l 154 515 q 174 484 159 504 q 206 473 184 477 m 384 455 q 366 448 378 454 q 342 444 355 444 l 338 444 q 353 435 338 441 l 354 435 q 384 455 369 435 m 471 915 q 483 918 478 918 q 494 903 494 918 q 491 886 494 895 q 462 768 480 840 q 430 766 447 766 q 368 781 387 766 q 324 788 355 785 q 301 789 311 789 q 282 786 287 789 q 246 762 266 783 q 228 724 228 741 l 228 721 q 229 715 229 719 q 227 684 229 705 q 224 642 224 654 q 234 609 224 612 l 234 608 q 274 566 234 580 q 313 559 297 559 q 334 555 325 555 q 360 561 344 555 q 389 566 376 566 q 401 565 394 566 q 407 553 403 565 q 414 541 412 541 q 416 559 414 541 q 418 563 416 563 q 470 567 441 563 q 503 570 499 570 q 511 566 511 570 q 512 557 512 564 q 505 494 512 539 q 479 421 496 427 q 465 420 476 420 q 432 421 459 420 q 385 422 404 422 q 345 421 363 422 q 308 427 328 421 q 285 433 289 433 q 269 421 275 433 q 255 419 260 419 q 242 429 243 419 q 239 449 240 439 q 237 450 239 450 q 218 434 233 450 q 125 513 125 481 q 117 564 121 522 q 111 663 111 613 q 136 820 111 766 q 174 793 151 809 q 180 792 178 792 q 214 819 194 792 l 212 819 q 197 809 205 819 q 182 797 189 798 l 180 797 q 141 823 167 797 q 220 901 181 890 q 342 923 249 923 q 471 915 402 923 m 638 672 q 573 871 626 806 q 333 975 502 957 q 28 672 43 946 l 28 658 q 73 501 28 577 q 333 367 150 372 q 573 464 495 368 q 638 672 638 543 m 668 672 q 335 338 668 338 l 333 338 q 68 449 154 338 q 0 672 0 536 q 79 893 0 799 q 333 1004 171 1004 q 604 893 519 1004 q 668 672 668 808 z "},"ª":{"ha":1119,"x_min":0,"x_max":1017,"o":"m 136 0 q 0 136 0 0 l 0 882 q 136 1017 0 1017 l 882 1017 q 1017 882 1017 1017 l 1017 136 q 882 0 1017 0 l 136 0 m 882 17 q 1000 136 1000 17 l 1000 882 q 882 1000 1000 1000 l 136 1000 q 17 882 18 1000 l 17 136 q 136 17 18 17 l 882 17 z "},"«":{"ha":640,"x_min":118,"x_max":572,"o":"m 118 325 l 350 530 l 359 530 l 359 505 l 220 325 l 359 144 l 359 119 l 350 119 l 118 325 m 330 325 l 562 530 l 572 530 l 572 505 l 433 325 l 572 144 l 572 119 l 562 119 l 330 325 z "},"¬":{"ha":688,"x_min":59,"x_max":629,"o":"m 59 520 l 629 520 l 629 187 l 628 186 l 562 186 l 562 452 l 59 452 l 59 520 z "},"®":{"ha":711,"x_min":-1,"x_max":667,"o":"m 440 756 q 441 777 441 758 q 423 808 441 806 q 409 809 412 809 l 409 820 q 417 879 409 859 l 399 842 l 397 809 q 308 801 337 801 q 290 804 294 801 l 279 811 q 281 776 281 793 q 270 694 281 728 q 300 728 279 718 q 322 735 313 735 q 385 736 382 736 q 411 728 397 728 q 440 756 433 728 m 206 743 l 198 752 l 178 731 l 206 743 m 378 561 l 378 585 l 360 588 l 378 561 m 446 496 l 413 534 q 425 513 425 514 q 446 496 425 511 m 575 756 q 557 702 569 726 q 473 640 528 647 l 421 633 q 399 625 416 631 l 456 627 q 547 520 527 520 l 549 520 q 566 503 566 510 q 565 502 566 503 q 517 492 554 496 l 534 475 q 483 433 495 433 q 467 443 475 433 q 459 453 460 453 q 471 433 459 451 q 381 507 419 471 q 288 656 290 593 q 292 585 288 616 q 311 500 302 507 q 317 475 317 486 q 298 433 317 454 q 285 431 290 431 q 271 441 273 431 q 268 461 269 451 l 268 462 l 266 433 q 212 430 238 430 q 147 452 147 430 q 136 556 136 479 q 140 665 136 602 l 145 735 q 156 742 151 739 q 178 762 165 750 q 189 772 182 765 l 140 750 q 144 774 144 758 q 141 817 144 786 q 137 862 137 848 q 147 897 137 890 q 258 922 171 910 q 395 934 338 934 q 432 930 422 934 q 479 902 456 929 q 516 861 512 863 q 556 814 544 840 q 575 756 564 798 m 637 672 q 572 871 625 806 q 332 975 501 957 q 27 672 42 946 l 27 658 q 72 501 27 577 q 332 367 149 372 q 572 464 494 368 q 637 672 637 543 m 667 672 q 334 338 667 338 l 332 338 q 67 449 153 338 q -1 672 -1 536 q 78 893 -1 799 q 332 1004 170 1004 q 603 893 518 1004 q 667 672 667 808 z "},"¯":{"ha":1119,"x_min":0,"x_max":1017,"o":"m 136 0 q 0 136 0 0 l 0 882 q 136 1017 0 1017 l 882 1017 q 1017 882 1017 1017 l 1017 136 q 882 0 1017 0 l 136 0 m 882 17 q 1000 136 1000 17 l 1000 882 q 882 1000 1000 1000 l 136 1000 q 17 882 18 1000 l 17 136 q 136 17 18 17 l 882 17 z "},"°":{"ha":457,"x_min":41,"x_max":418,"o":"m 230 930 q 130 889 172 930 q 88 789 88 848 q 130 689 88 730 q 230 648 171 648 q 330 689 289 648 q 370 789 370 730 q 329 889 370 848 q 230 930 288 930 m 230 978 q 363 923 308 978 q 418 789 418 867 q 362 656 418 712 q 229 601 307 601 q 95 656 149 601 q 41 789 41 711 q 96 923 41 868 q 230 978 151 978 z "},"±":{"ha":1119,"x_min":0,"x_max":1017,"o":"m 136 0 q 0 136 0 0 l 0 882 q 136 1017 0 1017 l 882 1017 q 1017 882 1017 1017 l 1017 136 q 882 0 1017 0 l 136 0 m 882 17 q 1000 136 1000 17 l 1000 882 q 882 1000 1000 1000 l 136 1000 q 17 882 18 1000 l 17 136 q 136 17 18 17 l 882 17 z "},"²":{"ha":1119,"x_min":0,"x_max":1017,"o":"m 136 0 q 0 136 0 0 l 0 882 q 136 1017 0 1017 l 882 1017 q 1017 882 1017 1017 l 1017 136 q 882 0 1017 0 l 136 0 m 882 17 q 1000 136 1000 17 l 1000 882 q 882 1000 1000 1000 l 136 1000 q 17 882 18 1000 l 17 136 q 136 17 18 17 l 882 17 z "},"³":{"ha":1119,"x_min":0,"x_max":1017,"o":"m 136 0 q 0 136 0 0 l 0 882 q 136 1017 0 1017 l 882 1017 q 1017 882 1017 1017 l 1017 136 q 882 0 1017 0 l 136 0 m 882 17 q 1000 136 1000 17 l 1000 882 q 882 1000 1000 1000 l 136 1000 q 17 882 18 1000 l 17 136 q 136 17 18 17 l 882 17 z "},"´":{"ha":414,"x_min":11,"x_max":375,"o":"m 375 1351 q 334 1201 375 1294 q 222 1046 286 1093 q 232 1088 232 1065 q 201 1164 232 1127 q 68 1222 121 1166 q 16 1322 25 1266 q 11 1362 11 1344 q 77 1476 11 1438 q 203 1530 140 1503 q 218 1533 210 1533 q 301 1480 243 1533 q 303 1476 303 1479 q 292 1454 303 1472 q 283 1435 283 1440 q 285 1432 283 1433 q 315 1449 300 1449 q 358 1408 339 1449 q 375 1351 375 1375 m 150 1223 l 114 1282 l 65 1314 q 150 1223 73 1265 z "},"µ":{"ha":1119,"x_min":0,"x_max":1017,"o":"m 136 0 q 0 136 0 0 l 0 882 q 136 1017 0 1017 l 882 1017 q 1017 882 1017 1017 l 1017 136 q 882 0 1017 0 l 136 0 m 882 17 q 1000 136 1000 17 l 1000 882 q 882 1000 1000 1000 l 136 1000 q 17 882 18 1000 l 17 136 q 136 17 18 17 l 882 17 z "},"¶":{"ha":694,"x_min":63,"x_max":630,"o":"m 630 973 l 630 926 l 544 926 l 544 0 l 488 0 l 488 926 l 376 926 l 376 0 l 319 0 l 319 500 q 132 570 201 506 q 63 736 63 634 q 136 908 63 843 q 330 973 209 973 l 630 973 z "},"·":{"ha":404,"x_min":5,"x_max":368,"o":"m 368 578 q 229 431 368 464 q 203 428 218 428 q 79 465 144 428 q 8 549 14 503 q 5 582 5 566 q 71 703 5 663 q 196 757 134 729 q 211 760 203 760 q 294 707 236 760 q 296 703 296 705 q 285 681 296 699 q 277 662 277 667 q 278 659 277 660 q 309 675 293 675 q 351 635 332 675 q 368 578 368 602 m 143 450 l 107 509 l 58 541 q 143 450 65 492 z "},"∙":{"ha":404,"x_min":5,"x_max":368,"o":"m 368 578 q 229 431 368 464 q 203 428 218 428 q 79 465 144 428 q 8 549 14 503 q 5 582 5 566 q 71 703 5 663 q 196 757 134 729 q 211 760 203 760 q 294 707 236 760 q 296 703 296 705 q 285 681 296 699 q 277 662 277 667 q 278 659 277 660 q 309 675 293 675 q 351 635 332 675 q 368 578 368 602 m 143 450 l 107 509 l 58 541 q 143 450 65 492 z "},"¸":{"ha":644,"x_min":5,"x_max":617,"o":"m 617 191 q 568 -123 617 -16 q 491 -70 539 -102 q 475 -66 484 -66 q 412 -100 448 -66 l 388 -83 q 387 -94 387 -89 q 412 -121 387 -118 l 415 -121 q 446 -101 430 -121 q 477 -77 463 -78 l 481 -77 q 557 -128 508 -77 q 475 -238 527 -182 q 371 -315 414 -304 q 237 -339 278 -339 q 106 -300 167 -339 q 43 -210 83 -285 q 5 -139 6 -139 q 37 -75 9 -75 q 64 -91 49 -75 q 205 -114 164 -114 q 286 -86 262 -114 q 352 -28 317 -81 q 384 56 384 19 l 384 66 q 380 98 384 75 q 376 130 376 126 q 379 134 376 134 q 400 155 382 134 q 530 202 417 175 l 617 191 z "},"¹":{"ha":1119,"x_min":0,"x_max":1017,"o":"m 136 0 q 0 136 0 0 l 0 882 q 136 1017 0 1017 l 882 1017 q 1017 882 1017 1017 l 1017 136 q 882 0 1017 0 l 136 0 m 882 17 q 1000 136 1000 17 l 1000 882 q 882 1000 1000 1000 l 136 1000 q 17 882 18 1000 l 17 136 q 136 17 18 17 l 882 17 z "},"º":{"ha":1119,"x_min":0,"x_max":1017,"o":"m 136 0 q 0 136 0 0 l 0 882 q 136 1017 0 1017 l 882 1017 q 1017 882 1017 1017 l 1017 136 q 882 0 1017 0 l 136 0 m 882 17 q 1000 136 1000 17 l 1000 882 q 882 1000 1000 1000 l 136 1000 q 17 882 18 1000 l 17 136 q 136 17 18 17 l 882 17 z "},"»":{"ha":640,"x_min":68,"x_max":522,"o":"m 78 119 l 68 119 l 68 144 l 208 325 l 68 505 l 68 530 l 78 530 l 310 325 l 78 119 m 290 119 l 281 119 l 281 144 l 420 325 l 281 505 l 281 530 l 290 530 l 522 325 l 290 119 z "},"¼":{"ha":1119,"x_min":0,"x_max":1017,"o":"m 136 0 q 0 136 0 0 l 0 882 q 136 1017 0 1017 l 882 1017 q 1017 882 1017 1017 l 1017 136 q 882 0 1017 0 l 136 0 m 882 17 q 1000 136 1000 17 l 1000 882 q 882 1000 1000 1000 l 136 1000 q 17 882 18 1000 l 17 136 q 136 17 18 17 l 882 17 z "},"½":{"ha":1119,"x_min":0,"x_max":1017,"o":"m 136 0 q 0 136 0 0 l 0 882 q 136 1017 0 1017 l 882 1017 q 1017 882 1017 1017 l 1017 136 q 882 0 1017 0 l 136 0 m 882 17 q 1000 136 1000 17 l 1000 882 q 882 1000 1000 1000 l 136 1000 q 17 882 18 1000 l 17 136 q 136 17 18 17 l 882 17 z "},"¾":{"ha":1119,"x_min":0,"x_max":1017,"o":"m 136 0 q 0 136 0 0 l 0 882 q 136 1017 0 1017 l 882 1017 q 1017 882 1017 1017 l 1017 136 q 882 0 1017 0 l 136 0 m 882 17 q 1000 136 1000 17 l 1000 882 q 882 1000 1000 1000 l 136 1000 q 17 882 18 1000 l 17 136 q 136 17 18 17 l 882 17 z "},"¿":{"ha":805,"x_min":-3,"x_max":808,"o":"m 440 519 q 460 522 452 522 q 478 517 471 522 l 486 513 q 514 585 488 513 l 664 585 q 798 554 767 585 q 798 537 798 546 q 747 400 798 475 q 604 345 692 353 q 440 336 522 340 l 409 335 l 378 334 q 347 339 366 339 q 267 267 285 339 q 264 245 264 262 q 300 205 264 210 q 329 203 328 203 q 330 184 330 193 q 313 90 330 130 l 349 164 l 359 196 q 478 188 414 188 q 722 237 628 188 l 751 200 q 757 186 757 197 q 728 107 757 160 q 669 29 700 54 q 538 -8 628 5 q 376 -22 454 -22 q 283 -12 311 -22 q 186 12 229 -9 q 111 65 165 24 q 32 168 56 106 q -3 294 25 184 q 174 486 9 464 l 440 519 m 446 854 q 585 1002 446 968 q 611 1004 596 1004 q 735 967 669 1004 q 806 884 800 929 q 808 850 808 867 q 743 729 808 770 q 618 675 681 703 q 603 672 611 672 q 519 725 578 672 q 518 729 518 726 q 529 751 518 733 q 538 770 538 765 q 536 774 538 772 q 506 757 521 757 q 463 798 482 757 q 446 854 446 831 m 671 982 l 707 924 l 755 892 q 671 982 749 941 z "},"À":{"ha":895,"x_min":4,"x_max":860,"o":"m 510 990 q 546 1000 532 1000 q 568 979 568 1000 q 567 970 568 975 l 567 968 q 688 747 567 951 q 817 522 817 529 q 814 424 817 515 q 811 262 811 319 q 786 254 811 257 q 761 248 761 250 q 825 215 786 235 q 833 161 828 195 q 847 134 840 147 q 860 92 860 109 q 838 60 860 68 q 704 20 793 41 q 534 -9 592 -9 q 482 9 488 -9 q 481 41 481 16 q 489 245 481 98 q 476 244 484 244 q 383 262 448 244 q 340 298 367 271 q 355 150 355 257 q 323 0 355 36 q 178 -16 275 -3 q 66 -26 94 -26 q 31 -16 33 -26 q 118 93 31 -3 q 14 -4 14 22 q 4 124 4 31 q 9 286 4 191 l 58 306 q 31 329 47 310 q 14 361 14 349 q 17 429 17 405 q 13 460 17 460 q 9 457 11 458 q 113 646 37 510 q 205 764 131 650 q 281 884 243 823 q 306 879 292 879 q 412 925 345 879 q 510 990 498 985 m 497 482 q 488 518 494 482 q 488 522 488 519 q 456 578 488 534 q 391 682 407 644 q 364 576 368 585 l 371 549 q 345 479 351 489 q 424 481 350 479 q 497 482 498 482 m 558 197 q 522 105 525 111 q 547 121 526 112 l 558 197 m 241 1351 q 258 1408 241 1375 q 301 1449 277 1449 q 332 1432 317 1449 q 333 1435 333 1433 q 325 1454 333 1440 q 313 1476 313 1472 q 315 1480 313 1479 q 398 1533 374 1533 q 414 1530 407 1533 q 540 1476 476 1503 q 606 1362 606 1438 q 601 1322 606 1344 q 549 1222 591 1266 q 415 1164 496 1166 q 385 1088 385 1127 q 394 1046 385 1065 q 283 1201 330 1093 q 241 1351 241 1294 m 467 1223 q 551 1314 544 1265 l 503 1282 l 467 1223 z "},"Á":{"ha":895,"x_min":4,"x_max":860,"o":"m 510 990 q 546 1000 532 1000 q 568 979 568 1000 q 567 970 568 975 l 567 968 q 688 747 567 951 q 817 522 817 529 q 814 424 817 515 q 811 262 811 319 q 786 254 811 257 q 761 248 761 250 q 825 215 786 235 q 833 161 828 195 q 847 134 840 147 q 860 92 860 109 q 838 60 860 68 q 704 20 793 41 q 534 -9 592 -9 q 482 9 488 -9 q 481 41 481 16 q 489 245 481 98 q 476 244 484 244 q 383 262 448 244 q 340 298 367 271 q 355 150 355 257 q 323 0 355 36 q 178 -16 275 -3 q 66 -26 94 -26 q 31 -16 33 -26 q 118 93 31 -3 q 14 -4 14 22 q 4 124 4 31 q 9 286 4 191 l 58 306 q 31 329 47 310 q 14 361 14 349 q 17 429 17 405 q 13 460 17 460 q 9 457 11 458 q 113 646 37 510 q 205 764 131 650 q 281 884 243 823 q 306 879 292 879 q 412 925 345 879 q 510 990 498 985 m 497 482 q 488 518 494 482 q 488 522 488 519 q 456 578 488 534 q 391 682 407 644 q 364 576 368 585 l 371 549 q 345 479 351 489 q 424 481 350 479 q 497 482 498 482 m 558 197 q 522 105 525 111 q 547 121 526 112 l 558 197 m 578 1351 q 537 1201 578 1294 q 426 1046 490 1093 q 435 1088 435 1065 q 405 1164 435 1127 q 271 1222 324 1166 q 219 1322 229 1266 q 214 1362 214 1344 q 280 1476 214 1438 q 406 1530 344 1503 q 422 1533 413 1533 q 505 1480 446 1533 q 507 1476 507 1479 q 495 1454 507 1472 q 487 1435 487 1440 q 488 1432 487 1433 q 519 1449 503 1449 q 562 1408 543 1449 q 578 1351 578 1375 m 353 1223 l 317 1282 l 269 1314 q 353 1223 276 1265 z "},"Â":{"ha":895,"x_min":4,"x_max":860,"o":"m 510 990 q 546 1000 532 1000 q 568 979 568 1000 q 567 970 568 975 l 567 968 q 688 747 567 951 q 817 522 817 529 q 814 424 817 515 q 811 262 811 319 q 786 254 811 257 q 761 248 761 250 q 825 215 786 235 q 833 161 828 195 q 847 134 840 147 q 860 92 860 109 q 838 60 860 68 q 704 20 793 41 q 534 -9 592 -9 q 482 9 488 -9 q 481 41 481 16 q 489 245 481 98 q 476 244 484 244 q 383 262 448 244 q 340 298 367 271 q 355 150 355 257 q 323 0 355 36 q 178 -16 275 -3 q 66 -26 94 -26 q 31 -16 33 -26 q 118 93 31 -3 q 14 -4 14 22 q 4 124 4 31 q 9 286 4 191 l 58 306 q 31 329 47 310 q 14 361 14 349 q 17 429 17 405 q 13 460 17 460 q 9 457 11 458 q 113 646 37 510 q 205 764 131 650 q 281 884 243 823 q 306 879 292 879 q 412 925 345 879 q 510 990 498 985 m 497 482 q 488 518 494 482 q 488 522 488 519 q 456 578 488 534 q 391 682 407 644 q 364 576 368 585 l 371 549 q 345 479 351 489 q 424 481 350 479 q 497 482 498 482 m 558 197 q 522 105 525 111 q 547 121 526 112 l 558 197 m 646 1103 l 610 1161 l 562 1194 q 646 1103 568 1145 m 437 1480 q 779 1277 779 1328 q 778 1271 779 1274 q 715 1145 762 1234 q 669 1059 671 1059 q 664 1061 669 1061 q 623 1056 654 1061 q 413 1218 528 1133 q 389 1246 400 1223 q 380 1278 380 1265 q 380 1280 380 1280 q 366 1246 377 1280 l 397 1202 l 221 1053 l 57 1203 q 49 1234 49 1219 q 57 1255 49 1247 q 205 1369 96 1288 q 366 1468 342 1468 q 393 1484 385 1468 q 413 1500 401 1500 q 437 1480 436 1500 z "},"Ã":{"ha":895,"x_min":4,"x_max":860,"o":"m 510 990 q 546 1000 532 1000 q 568 979 568 1000 q 567 970 568 975 l 567 968 q 688 747 567 951 q 817 522 817 529 q 814 424 817 515 q 811 262 811 319 q 786 254 811 257 q 761 248 761 250 q 825 215 786 235 q 833 161 828 195 q 847 134 840 147 q 860 92 860 109 q 838 60 860 68 q 704 20 793 41 q 534 -9 592 -9 q 482 9 488 -9 q 481 41 481 16 q 489 245 481 98 q 476 244 484 244 q 383 262 448 244 q 340 298 367 271 q 355 150 355 257 q 323 0 355 36 q 178 -16 275 -3 q 66 -26 94 -26 q 31 -16 33 -26 q 118 93 31 -3 q 14 -4 14 22 q 4 124 4 31 q 9 286 4 191 l 58 306 q 31 329 47 310 q 14 361 14 349 q 17 429 17 405 q 13 460 17 460 q 9 457 11 458 q 113 646 37 510 q 205 764 131 650 q 281 884 243 823 q 306 879 292 879 q 412 925 345 879 q 510 990 498 985 m 497 482 q 488 518 494 482 q 488 522 488 519 q 456 578 488 534 q 391 682 407 644 q 364 576 368 585 l 371 549 q 345 479 351 489 q 424 481 350 479 q 497 482 498 482 m 558 197 q 522 105 525 111 q 547 121 526 112 l 558 197 m 600 1127 l 564 1185 l 515 1217 q 600 1127 522 1168 m 175 1093 q 47 1241 149 1112 q 262 1497 174 1497 q 382 1429 307 1497 q 502 1362 457 1362 q 522 1364 513 1362 q 585 1417 566 1374 q 604 1491 593 1434 q 627 1530 611 1529 l 629 1530 q 811 1441 668 1530 q 825 1419 825 1431 q 824 1409 825 1413 q 736 1245 799 1350 q 607 1097 648 1097 q 460 1185 571 1097 q 327 1281 343 1278 q 319 1282 323 1282 q 208 1109 260 1282 q 191 1085 204 1085 q 175 1093 184 1085 z "},"Ä":{"ha":895,"x_min":4,"x_max":860,"o":"m 510 990 q 546 1000 532 1000 q 568 979 568 1000 q 567 970 568 975 l 567 968 q 688 747 567 951 q 817 522 817 529 q 814 424 817 515 q 811 262 811 319 q 786 254 811 257 q 761 248 761 250 q 825 215 786 235 q 833 161 828 195 q 847 134 840 147 q 860 92 860 109 q 838 60 860 68 q 704 20 793 41 q 534 -9 592 -9 q 482 9 488 -9 q 481 41 481 16 q 489 245 481 98 q 476 244 484 244 q 383 262 448 244 q 340 298 367 271 q 355 150 355 257 q 323 0 355 36 q 178 -16 275 -3 q 66 -26 94 -26 q 31 -16 33 -26 q 118 93 31 -3 q 14 -4 14 22 q 4 124 4 31 q 9 286 4 191 l 58 306 q 31 329 47 310 q 14 361 14 349 q 17 429 17 405 q 13 460 17 460 q 9 457 11 458 q 113 646 37 510 q 205 764 131 650 q 281 884 243 823 q 306 879 292 879 q 412 925 345 879 q 510 990 498 985 m 497 482 q 488 518 494 482 q 488 522 488 519 q 456 578 488 534 q 391 682 407 644 q 364 576 368 585 l 371 549 q 345 479 351 489 q 424 481 350 479 q 497 482 498 482 m 558 197 q 522 105 525 111 q 547 121 526 112 l 558 197 m 374 1213 q 235 1065 374 1099 q 208 1063 223 1063 q 84 1100 150 1063 q 14 1183 19 1138 q 11 1217 11 1200 q 76 1338 11 1297 q 201 1392 138 1364 q 216 1395 208 1395 q 300 1342 241 1395 q 301 1338 301 1341 q 290 1316 301 1334 q 281 1297 281 1302 q 283 1293 281 1295 q 313 1310 298 1310 q 357 1270 337 1310 q 374 1213 374 1236 m 149 1085 l 113 1143 l 64 1175 q 149 1085 71 1126 m 848 1213 q 709 1065 848 1099 q 683 1063 698 1063 q 559 1100 625 1063 q 488 1183 494 1138 q 486 1217 486 1200 q 551 1338 486 1297 q 676 1392 613 1364 q 691 1395 683 1395 q 774 1342 716 1395 q 776 1338 776 1341 q 765 1316 776 1334 q 756 1297 756 1302 q 758 1293 756 1295 q 788 1310 773 1310 q 831 1270 812 1310 q 848 1213 848 1236 m 623 1085 l 587 1143 l 538 1175 q 623 1085 545 1126 z "},"Å":{"ha":895,"x_min":4,"x_max":860,"o":"m 510 990 q 546 1000 532 1000 q 568 979 568 1000 q 567 970 568 975 l 567 968 q 688 747 567 951 q 817 522 817 529 q 814 424 817 515 q 811 262 811 319 q 786 254 811 257 q 761 248 761 250 q 825 215 786 235 q 833 161 828 195 q 847 134 840 147 q 860 92 860 109 q 838 60 860 68 q 704 20 793 41 q 534 -9 592 -9 q 482 9 488 -9 q 481 41 481 16 q 489 245 481 98 q 476 244 484 244 q 383 262 448 244 q 340 298 367 271 q 355 150 355 257 q 323 0 355 36 q 178 -16 275 -3 q 66 -26 94 -26 q 31 -16 33 -26 q 118 93 31 -3 q 14 -4 14 22 q 4 124 4 31 q 9 286 4 191 l 58 306 q 31 329 47 310 q 14 361 14 349 q 17 429 17 405 q 13 460 17 460 q 9 457 11 458 q 113 646 37 510 q 205 764 131 650 q 281 884 243 823 q 306 879 292 879 q 412 925 345 879 q 510 990 498 985 m 497 482 q 488 518 494 482 q 488 522 488 519 q 456 578 488 534 q 391 682 407 644 q 364 576 368 585 l 371 549 q 345 479 351 489 q 424 481 350 479 q 497 482 498 482 m 558 197 q 522 105 525 111 q 547 121 526 112 l 558 197 m 611 1213 q 472 1065 611 1099 q 446 1063 460 1063 q 322 1100 387 1063 q 251 1183 256 1138 q 248 1217 248 1200 q 313 1338 248 1297 q 439 1392 376 1364 q 454 1395 446 1395 q 537 1342 479 1395 q 538 1338 538 1341 q 528 1316 538 1334 q 519 1297 519 1302 q 520 1293 519 1295 q 551 1310 536 1310 q 594 1270 574 1310 q 611 1213 611 1236 m 386 1085 l 350 1143 l 301 1175 q 386 1085 308 1126 z "},"Æ":{"ha":1458,"x_min":4,"x_max":1383,"o":"m 497 482 q 488 518 494 482 q 488 522 488 519 q 456 578 488 534 q 391 682 407 644 q 364 576 368 585 l 371 549 q 345 479 351 489 q 424 481 350 479 q 497 482 498 482 m 1094 126 q 1059 113 1084 125 q 1008 103 1036 103 l 1002 103 q 1031 86 1002 98 l 1035 86 q 1094 126 1064 86 m 478 244 l 476 244 q 383 262 448 244 q 340 298 367 271 q 355 150 355 257 q 323 0 355 36 q 178 -16 275 -3 q 66 -26 94 -26 q 31 -16 33 -26 q 118 93 31 -3 q 14 -4 14 22 q 4 124 4 31 q 9 286 4 191 l 58 306 q 31 329 47 310 q 14 361 14 349 q 17 429 17 405 q 13 460 17 460 q 9 457 11 458 q 113 646 37 510 q 205 764 131 650 q 281 884 243 823 q 306 879 292 879 q 412 925 345 879 q 510 990 498 985 q 546 1000 532 1000 q 568 981 567 1000 q 786 983 686 982 l 815 957 l 838 983 q 1018 977 884 978 l 1048 977 q 1202 987 1176 977 q 1227 994 1218 994 q 1250 964 1250 994 q 1244 929 1250 949 q 1233 831 1243 928 q 1214 694 1222 725 q 1187 689 1212 689 q 1087 696 1168 689 q 966 703 1006 703 q 873 673 897 703 l 867 675 q 858 692 867 686 q 847 704 847 700 q 852 713 847 705 q 861 730 858 721 q 863 741 863 736 q 833 775 863 760 q 850 732 850 749 q 839 701 850 724 l 846 673 q 833 632 833 642 q 801 616 833 623 q 755 633 769 621 q 768 610 762 621 q 840 604 793 604 q 913 606 852 604 q 972 607 973 607 q 985 611 971 607 q 977 562 978 589 q 1011 617 994 606 q 1098 623 1020 623 q 1263 619 1160 623 q 1273 621 1268 621 q 1297 596 1290 621 q 1299 578 1299 589 q 1274 424 1299 535 q 1240 397 1262 404 q 858 387 1037 389 q 833 418 842 399 q 828 439 828 431 q 847 456 828 456 q 857 461 857 456 q 847 478 857 468 q 815 424 815 471 q 838 330 838 364 q 810 254 838 285 q 848 300 834 279 q 1168 313 1025 311 q 1172 290 1172 313 q 1176 267 1172 267 q 1198 290 1180 267 q 1221 313 1217 313 q 1371 282 1371 311 q 1383 102 1383 239 q 1355 -28 1383 -17 l 1354 -28 q 1186 12 1339 -28 q 951 54 1031 54 q 933 53 941 54 q 708 12 871 49 q 524 -21 554 -21 q 505 -16 507 -21 q 509 -7 505 -13 q 489 0 496 -5 q 488 -4 488 -2 q 487 1 488 -2 q 482 9 484 5 q 481 41 481 16 q 481 79 481 57 q 479 182 480 121 q 478 244 478 214 z "},"Ç":{"ha":817,"x_min":9,"x_max":810,"o":"m 671 710 q 684 707 678 707 q 696 715 692 707 q 704 777 703 754 l 671 710 m 554 68 q 519 55 544 66 q 471 45 496 45 l 463 45 q 492 28 463 40 l 495 28 q 554 68 524 28 m 199 103 l 94 187 q 134 126 104 165 q 199 103 154 111 m 401 12 q 357 24 365 24 q 323 0 336 24 q 297 -4 308 -4 q 270 16 273 -4 q 264 56 267 36 q 261 58 264 58 q 223 26 254 58 q 37 183 37 119 q 20 286 29 203 q 9 484 9 385 q 58 798 9 690 q 136 745 87 777 q 147 742 142 742 q 215 796 175 742 l 212 796 q 181 776 197 796 q 150 751 163 753 l 146 751 q 69 803 120 751 q 228 960 149 939 q 472 1004 285 1004 q 728 987 591 1004 q 753 994 743 994 q 774 964 774 994 q 769 929 774 949 q 711 694 747 839 q 647 690 680 690 q 524 720 559 690 q 435 734 496 728 q 389 737 408 737 q 351 730 360 737 q 279 681 318 725 q 243 605 243 639 l 243 600 q 243 588 243 595 q 240 526 243 567 q 235 441 235 465 q 255 376 235 382 l 255 373 q 334 290 255 317 q 414 275 380 275 q 454 269 436 269 q 507 279 475 269 q 564 289 540 289 q 589 288 575 289 q 601 263 593 288 q 614 239 610 239 q 618 277 615 239 q 622 283 619 283 q 726 291 668 283 q 791 298 785 298 q 808 290 808 298 q 810 271 810 285 q 797 147 810 236 q 745 0 778 12 q 718 -3 739 -3 q 650 0 705 -3 q 631 1 640 1 q 595 -123 618 -72 q 518 -70 566 -102 q 503 -66 511 -66 q 439 -100 475 -66 l 415 -83 q 414 -94 414 -89 q 439 -121 414 -118 l 442 -121 q 473 -101 457 -121 q 504 -77 490 -78 l 508 -77 q 585 -128 535 -77 q 503 -238 554 -182 q 398 -315 441 -304 q 264 -339 305 -339 q 133 -300 194 -339 q 71 -210 110 -285 q 32 -139 33 -139 q 64 -75 36 -75 q 92 -91 76 -75 q 232 -114 191 -114 q 313 -86 289 -114 q 379 -28 345 -81 q 401 12 393 -7 z "},"È":{"ha":940,"x_min":0,"x_max":908,"o":"m 699 710 q 711 707 706 707 q 724 715 720 707 q 732 777 730 754 l 699 710 m 536 617 q 623 623 545 623 q 789 619 685 623 q 798 621 793 621 q 822 596 815 621 q 824 578 824 589 q 799 424 824 535 q 765 397 787 404 q 383 387 562 389 q 358 418 367 399 q 353 439 353 431 q 372 456 353 456 q 382 461 382 456 q 372 478 382 468 q 340 424 340 471 q 363 330 363 364 q 335 254 363 285 q 374 300 359 279 q 693 313 550 311 q 697 290 697 313 q 701 267 697 267 q 724 290 705 267 q 746 313 742 313 q 896 282 896 311 q 908 102 908 239 q 880 -28 908 -17 l 879 -28 q 711 12 864 -28 q 476 54 556 54 q 458 53 467 54 q 233 12 396 49 q 49 -21 79 -21 q 31 -16 32 -21 q 118 93 31 -3 q 14 -4 14 22 q 4 182 7 21 q 3 273 3 230 q 8 463 3 382 l 61 484 q 31 503 47 489 q 12 536 12 522 l 12 538 q 15 601 15 578 q 9 635 15 635 l 8 633 q 16 688 16 647 q 8 803 16 720 q 0 918 0 886 q 18 978 0 975 q 64 981 26 979 q 311 983 199 982 l 340 957 l 363 983 q 543 977 410 978 l 573 977 q 728 987 701 977 q 753 994 743 994 q 775 964 775 994 q 770 929 775 949 q 758 831 768 928 q 739 694 747 725 q 713 689 737 689 q 612 696 693 689 q 492 703 532 703 q 399 673 422 703 l 393 675 q 383 692 393 686 q 372 704 372 700 q 378 713 372 705 q 386 730 383 721 q 388 741 388 736 q 358 775 388 760 q 375 732 375 749 q 364 701 375 724 l 371 673 q 358 632 358 642 q 326 616 358 623 q 278 635 292 621 q 254 640 272 640 q 203 630 229 640 q 175 607 176 621 q 174 589 174 598 q 224 505 174 531 q 225 498 225 502 q 210 456 225 481 q 180 408 196 432 q 240 500 240 475 q 212 529 240 504 q 186 590 186 551 q 187 602 186 595 q 240 629 191 629 q 271 619 261 629 q 366 604 286 604 q 438 606 378 604 q 497 607 498 607 q 510 611 496 607 q 503 562 503 589 q 536 617 519 606 m 619 126 q 584 113 610 125 q 534 103 561 103 l 528 103 q 557 86 528 98 l 560 86 q 619 126 589 86 m 241 1351 q 258 1408 241 1375 q 301 1449 277 1449 q 332 1432 317 1449 q 333 1435 333 1433 q 325 1454 333 1440 q 313 1476 313 1472 q 315 1480 313 1479 q 398 1533 374 1533 q 414 1530 407 1533 q 540 1476 476 1503 q 606 1362 606 1438 q 601 1322 606 1344 q 549 1222 591 1266 q 415 1164 496 1166 q 385 1088 385 1127 q 394 1046 385 1065 q 283 1201 330 1093 q 241 1351 241 1294 m 467 1223 q 551 1314 544 1265 l 503 1282 l 467 1223 z "},"É":{"ha":940,"x_min":0,"x_max":908,"o":"m 699 710 q 711 707 706 707 q 724 715 720 707 q 732 777 730 754 l 699 710 m 536 617 q 623 623 545 623 q 789 619 685 623 q 798 621 793 621 q 822 596 815 621 q 824 578 824 589 q 799 424 824 535 q 765 397 787 404 q 383 387 562 389 q 358 418 367 399 q 353 439 353 431 q 372 456 353 456 q 382 461 382 456 q 372 478 382 468 q 340 424 340 471 q 363 330 363 364 q 335 254 363 285 q 374 300 359 279 q 693 313 550 311 q 697 290 697 313 q 701 267 697 267 q 724 290 705 267 q 746 313 742 313 q 896 282 896 311 q 908 102 908 239 q 880 -28 908 -17 l 879 -28 q 711 12 864 -28 q 476 54 556 54 q 458 53 467 54 q 233 12 396 49 q 49 -21 79 -21 q 31 -16 32 -21 q 118 93 31 -3 q 14 -4 14 22 q 4 182 7 21 q 3 273 3 230 q 8 463 3 382 l 61 484 q 31 503 47 489 q 12 536 12 522 l 12 538 q 15 601 15 578 q 9 635 15 635 l 8 633 q 16 688 16 647 q 8 803 16 720 q 0 918 0 886 q 18 978 0 975 q 64 981 26 979 q 311 983 199 982 l 340 957 l 363 983 q 543 977 410 978 l 573 977 q 728 987 701 977 q 753 994 743 994 q 775 964 775 994 q 770 929 775 949 q 758 831 768 928 q 739 694 747 725 q 713 689 737 689 q 612 696 693 689 q 492 703 532 703 q 399 673 422 703 l 393 675 q 383 692 393 686 q 372 704 372 700 q 378 713 372 705 q 386 730 383 721 q 388 741 388 736 q 358 775 388 760 q 375 732 375 749 q 364 701 375 724 l 371 673 q 358 632 358 642 q 326 616 358 623 q 278 635 292 621 q 254 640 272 640 q 203 630 229 640 q 175 607 176 621 q 174 589 174 598 q 224 505 174 531 q 225 498 225 502 q 210 456 225 481 q 180 408 196 432 q 240 500 240 475 q 212 529 240 504 q 186 590 186 551 q 187 602 186 595 q 240 629 191 629 q 271 619 261 629 q 366 604 286 604 q 438 606 378 604 q 497 607 498 607 q 510 611 496 607 q 503 562 503 589 q 536 617 519 606 m 619 126 q 584 113 610 125 q 534 103 561 103 l 528 103 q 557 86 528 98 l 560 86 q 619 126 589 86 m 578 1351 q 537 1201 578 1294 q 426 1046 490 1093 q 435 1088 435 1065 q 405 1164 435 1127 q 271 1222 324 1166 q 219 1322 229 1266 q 214 1362 214 1344 q 280 1476 214 1438 q 406 1530 344 1503 q 422 1533 413 1533 q 505 1480 446 1533 q 507 1476 507 1479 q 495 1454 507 1472 q 487 1435 487 1440 q 488 1432 487 1433 q 519 1449 503 1449 q 562 1408 543 1449 q 578 1351 578 1375 m 353 1223 l 317 1282 l 269 1314 q 353 1223 276 1265 z "},"Ê":{"ha":940,"x_min":0,"x_max":908,"o":"m 699 710 q 711 707 706 707 q 724 715 720 707 q 732 777 730 754 l 699 710 m 536 617 q 623 623 545 623 q 789 619 685 623 q 798 621 793 621 q 822 596 815 621 q 824 578 824 589 q 799 424 824 535 q 765 397 787 404 q 383 387 562 389 q 358 418 367 399 q 353 439 353 431 q 372 456 353 456 q 382 461 382 456 q 372 478 382 468 q 340 424 340 471 q 363 330 363 364 q 335 254 363 285 q 374 300 359 279 q 693 313 550 311 q 697 290 697 313 q 701 267 697 267 q 724 290 705 267 q 746 313 742 313 q 896 282 896 311 q 908 102 908 239 q 880 -28 908 -17 l 879 -28 q 711 12 864 -28 q 476 54 556 54 q 458 53 467 54 q 233 12 396 49 q 49 -21 79 -21 q 31 -16 32 -21 q 118 93 31 -3 q 14 -4 14 22 q 4 182 7 21 q 3 273 3 230 q 8 463 3 382 l 61 484 q 31 503 47 489 q 12 536 12 522 l 12 538 q 15 601 15 578 q 9 635 15 635 l 8 633 q 16 688 16 647 q 8 803 16 720 q 0 918 0 886 q 18 978 0 975 q 64 981 26 979 q 311 983 199 982 l 340 957 l 363 983 q 543 977 410 978 l 573 977 q 728 987 701 977 q 753 994 743 994 q 775 964 775 994 q 770 929 775 949 q 758 831 768 928 q 739 694 747 725 q 713 689 737 689 q 612 696 693 689 q 492 703 532 703 q 399 673 422 703 l 393 675 q 383 692 393 686 q 372 704 372 700 q 378 713 372 705 q 386 730 383 721 q 388 741 388 736 q 358 775 388 760 q 375 732 375 749 q 364 701 375 724 l 371 673 q 358 632 358 642 q 326 616 358 623 q 278 635 292 621 q 254 640 272 640 q 203 630 229 640 q 175 607 176 621 q 174 589 174 598 q 224 505 174 531 q 225 498 225 502 q 210 456 225 481 q 180 408 196 432 q 240 500 240 475 q 212 529 240 504 q 186 590 186 551 q 187 602 186 595 q 240 629 191 629 q 271 619 261 629 q 366 604 286 604 q 438 606 378 604 q 497 607 498 607 q 510 611 496 607 q 503 562 503 589 q 536 617 519 606 m 619 126 q 584 113 610 125 q 534 103 561 103 l 528 103 q 557 86 528 98 l 560 86 q 619 126 589 86 m 646 1103 l 610 1161 l 562 1194 q 646 1103 568 1145 m 437 1480 q 779 1277 779 1328 q 778 1271 779 1274 q 715 1145 762 1234 q 669 1059 671 1059 q 664 1061 669 1061 q 623 1056 654 1061 q 413 1218 528 1133 q 389 1246 400 1223 q 380 1278 380 1265 q 380 1280 380 1280 q 366 1246 377 1280 l 397 1202 l 221 1053 l 57 1203 q 49 1234 49 1219 q 57 1255 49 1247 q 205 1369 96 1288 q 366 1468 342 1468 q 393 1484 385 1468 q 413 1500 401 1500 q 437 1480 436 1500 z "},"Ë":{"ha":940,"x_min":0,"x_max":908,"o":"m 699 710 q 711 707 706 707 q 724 715 720 707 q 732 777 730 754 l 699 710 m 536 617 q 623 623 545 623 q 789 619 685 623 q 798 621 793 621 q 822 596 815 621 q 824 578 824 589 q 799 424 824 535 q 765 397 787 404 q 383 387 562 389 q 358 418 367 399 q 353 439 353 431 q 372 456 353 456 q 382 461 382 456 q 372 478 382 468 q 340 424 340 471 q 363 330 363 364 q 335 254 363 285 q 374 300 359 279 q 693 313 550 311 q 697 290 697 313 q 701 267 697 267 q 724 290 705 267 q 746 313 742 313 q 896 282 896 311 q 908 102 908 239 q 880 -28 908 -17 l 879 -28 q 711 12 864 -28 q 476 54 556 54 q 458 53 467 54 q 233 12 396 49 q 49 -21 79 -21 q 31 -16 32 -21 q 118 93 31 -3 q 14 -4 14 22 q 4 182 7 21 q 3 273 3 230 q 8 463 3 382 l 61 484 q 31 503 47 489 q 12 536 12 522 l 12 538 q 15 601 15 578 q 9 635 15 635 l 8 633 q 16 688 16 647 q 8 803 16 720 q 0 918 0 886 q 18 978 0 975 q 64 981 26 979 q 311 983 199 982 l 340 957 l 363 983 q 543 977 410 978 l 573 977 q 728 987 701 977 q 753 994 743 994 q 775 964 775 994 q 770 929 775 949 q 758 831 768 928 q 739 694 747 725 q 713 689 737 689 q 612 696 693 689 q 492 703 532 703 q 399 673 422 703 l 393 675 q 383 692 393 686 q 372 704 372 700 q 378 713 372 705 q 386 730 383 721 q 388 741 388 736 q 358 775 388 760 q 375 732 375 749 q 364 701 375 724 l 371 673 q 358 632 358 642 q 326 616 358 623 q 278 635 292 621 q 254 640 272 640 q 203 630 229 640 q 175 607 176 621 q 174 589 174 598 q 224 505 174 531 q 225 498 225 502 q 210 456 225 481 q 180 408 196 432 q 240 500 240 475 q 212 529 240 504 q 186 590 186 551 q 187 602 186 595 q 240 629 191 629 q 271 619 261 629 q 366 604 286 604 q 438 606 378 604 q 497 607 498 607 q 510 611 496 607 q 503 562 503 589 q 536 617 519 606 m 619 126 q 584 113 610 125 q 534 103 561 103 l 528 103 q 557 86 528 98 l 560 86 q 619 126 589 86 m 374 1213 q 235 1065 374 1099 q 208 1063 223 1063 q 84 1100 150 1063 q 14 1183 19 1138 q 11 1217 11 1200 q 76 1338 11 1297 q 201 1392 138 1364 q 216 1395 208 1395 q 300 1342 241 1395 q 301 1338 301 1341 q 290 1316 301 1334 q 281 1297 281 1302 q 283 1293 281 1295 q 313 1310 298 1310 q 357 1270 337 1310 q 374 1213 374 1236 m 149 1085 l 113 1143 l 64 1175 q 149 1085 71 1126 m 848 1213 q 709 1065 848 1099 q 683 1063 698 1063 q 559 1100 625 1063 q 488 1183 494 1138 q 486 1217 486 1200 q 551 1338 486 1297 q 676 1392 613 1364 q 691 1395 683 1395 q 774 1342 716 1395 q 776 1338 776 1341 q 765 1316 776 1334 q 756 1297 756 1302 q 758 1293 756 1295 q 788 1310 773 1310 q 831 1270 812 1310 q 848 1213 848 1236 m 623 1085 l 587 1143 l 538 1175 q 623 1085 545 1126 z "},"Ì":{"ha":422,"x_min":-1,"x_max":380,"o":"m 332 253 q 307 244 332 249 q 282 237 282 240 q 339 216 309 227 q 355 151 345 191 q 368 123 361 138 q 380 82 380 98 q 359 50 380 60 q 227 9 314 33 q 56 -20 114 -20 q 4 0 10 -20 q -1 79 -1 18 q 10 361 -1 171 l 62 382 q 14 393 14 383 l 14 393 q 16 469 16 430 q 9 633 16 547 q 16 688 16 647 q 8 803 16 720 q 0 918 0 886 q 18 978 0 975 q 170 986 90 979 q 193 996 179 996 q 229 987 203 996 q 273 979 256 979 q 311 988 288 979 q 345 997 334 997 q 366 976 366 997 q 366 966 366 972 q 347 775 359 957 q 336 582 336 611 q 332 253 336 559 m 317 905 l 257 937 q 314 838 306 890 l 317 905 m 81 192 q 64 151 73 171 q 41 100 41 101 q 68 111 48 102 l 81 192 m 4 1351 q 21 1408 4 1375 q 64 1449 40 1449 q 94 1432 79 1449 q 96 1435 96 1433 q 87 1454 96 1440 q 76 1476 76 1472 q 78 1480 76 1479 q 161 1533 136 1533 q 176 1530 170 1533 q 302 1476 239 1503 q 368 1362 368 1438 q 363 1322 368 1344 q 311 1222 354 1266 q 178 1164 258 1166 q 147 1088 147 1127 q 157 1046 147 1065 q 45 1201 93 1093 q 4 1351 4 1294 m 229 1223 q 314 1314 307 1265 l 265 1282 l 229 1223 z "},"Í":{"ha":422,"x_min":-3,"x_max":380,"o":"m 332 253 q 307 244 332 249 q 282 237 282 240 q 339 216 309 227 q 355 151 345 191 q 368 123 361 138 q 380 82 380 98 q 359 50 380 60 q 227 9 314 33 q 56 -20 114 -20 q 4 0 10 -20 q -1 79 -1 18 q 10 361 -1 171 l 62 382 q 14 393 14 383 l 14 393 q 16 469 16 430 q 9 633 16 547 q 16 688 16 647 q 8 803 16 720 q 0 918 0 886 q 18 978 0 975 q 170 986 90 979 q 193 996 179 996 q 229 987 203 996 q 273 979 256 979 q 311 988 288 979 q 345 997 334 997 q 366 976 366 997 q 366 966 366 972 q 347 775 359 957 q 336 582 336 611 q 332 253 336 559 m 317 905 l 257 937 q 314 838 306 890 l 317 905 m 81 192 q 64 151 73 171 q 41 100 41 101 q 68 111 48 102 l 81 192 m 361 1351 q 320 1201 361 1294 q 209 1046 273 1093 q 218 1088 218 1065 q 188 1164 218 1127 q 54 1222 107 1166 q 2 1322 12 1266 q -3 1362 -3 1344 q 63 1476 -3 1438 q 189 1530 127 1503 q 205 1533 196 1533 q 288 1480 229 1533 q 290 1476 290 1479 q 278 1454 290 1472 q 270 1435 270 1440 q 271 1432 270 1433 q 302 1449 286 1449 q 345 1408 326 1449 q 361 1351 361 1375 m 136 1223 l 100 1282 l 52 1314 q 136 1223 59 1265 z "},"Î":{"ha":422,"x_min":-182,"x_max":549,"o":"m 332 253 q 307 244 332 249 q 282 237 282 240 q 339 216 309 227 q 355 151 345 191 q 368 123 361 138 q 380 82 380 98 q 359 50 380 60 q 227 9 314 33 q 56 -20 114 -20 q 4 0 10 -20 q -1 79 -1 18 q 10 361 -1 171 l 62 382 q 14 393 14 383 l 14 393 q 16 469 16 430 q 9 633 16 547 q 16 688 16 647 q 8 803 16 720 q 0 918 0 886 q 18 978 0 975 q 170 986 90 979 q 193 996 179 996 q 229 987 203 996 q 273 979 256 979 q 311 988 288 979 q 345 997 334 997 q 366 976 366 997 q 366 966 366 972 q 347 775 359 957 q 336 582 336 611 q 332 253 336 559 m 317 905 l 257 937 q 314 838 306 890 l 317 905 m 81 192 q 64 151 73 171 q 41 100 41 101 q 68 111 48 102 l 81 192 m 416 1103 l 379 1161 l 331 1194 q 416 1103 338 1145 m 207 1480 q 549 1277 549 1328 q 547 1271 549 1274 q 485 1145 531 1234 q 439 1059 441 1059 q 433 1061 439 1061 q 392 1056 423 1061 q 182 1218 298 1133 q 159 1246 170 1223 q 150 1278 150 1265 q 149 1280 150 1280 q 135 1246 146 1280 l 167 1202 l -9 1053 l -174 1203 q -182 1234 -182 1219 q -174 1255 -182 1247 q -25 1369 -134 1288 q 135 1468 111 1468 q 163 1484 155 1468 q 182 1500 171 1500 q 207 1480 205 1500 z "},"Ï":{"ha":422,"x_min":-247,"x_max":591,"o":"m 332 253 q 307 244 332 249 q 282 237 282 240 q 339 216 309 227 q 355 151 345 191 q 368 123 361 138 q 380 82 380 98 q 359 50 380 60 q 227 9 314 33 q 56 -20 114 -20 q 4 0 10 -20 q -1 79 -1 18 q 10 361 -1 171 l 62 382 q 14 393 14 383 l 14 393 q 16 469 16 430 q 9 633 16 547 q 16 688 16 647 q 8 803 16 720 q 0 918 0 886 q 18 978 0 975 q 170 986 90 979 q 193 996 179 996 q 229 987 203 996 q 273 979 256 979 q 311 988 288 979 q 345 997 334 997 q 366 976 366 997 q 366 966 366 972 q 347 775 359 957 q 336 582 336 611 q 332 253 336 559 m 317 905 l 257 937 q 314 838 306 890 l 317 905 m 81 192 q 64 151 73 171 q 41 100 41 101 q 68 111 48 102 l 81 192 m 116 1213 q -23 1065 116 1099 q -50 1063 -35 1063 q -173 1100 -108 1063 q -244 1183 -239 1138 q -247 1217 -247 1200 q -182 1338 -247 1297 q -56 1392 -119 1364 q -41 1395 -50 1395 q 42 1342 -16 1395 q 43 1338 43 1341 q 33 1316 43 1334 q 24 1297 24 1302 q 25 1293 24 1295 q 56 1310 41 1310 q 99 1270 79 1310 q 116 1213 116 1236 m -109 1085 l -145 1143 l -194 1175 q -109 1085 -187 1126 m 591 1213 q 452 1065 591 1099 q 425 1063 440 1063 q 301 1100 367 1063 q 231 1183 236 1138 q 228 1217 228 1200 q 293 1338 228 1297 q 418 1392 355 1364 q 433 1395 425 1395 q 517 1342 458 1395 q 518 1338 518 1341 q 507 1316 518 1334 q 498 1297 498 1302 q 500 1293 498 1295 q 530 1310 515 1310 q 574 1270 554 1310 q 591 1213 591 1236 m 366 1085 l 330 1143 l 281 1175 q 366 1085 288 1126 z "},"Ð":{"ha":1017,"x_min":0,"x_max":978,"o":"m 134 403 q 102 399 131 399 q 46 410 49 399 q 17 454 32 433 q 0 557 0 489 q 1 595 0 575 q 53 649 1 649 q 70 648 61 649 q 90 646 79 646 q 143 650 112 646 q 144 651 143 651 l 144 650 q 161 653 153 652 q 144 658 151 656 q 146 681 146 668 q 139 767 146 705 q 132 857 132 829 q 151 928 132 913 q 372 978 199 954 q 648 1002 534 1002 q 721 994 703 1002 q 803 954 770 991 q 864 888 859 892 q 943 614 914 850 q 978 315 960 464 q 957 183 975 239 q 803 33 912 49 l 720 0 q 646 3 674 3 q 606 0 617 3 q 533 12 571 0 q 486 24 494 24 q 453 0 465 24 q 427 -4 437 -4 q 399 16 403 -4 q 393 56 396 36 l 393 58 q 389 0 393 58 q 282 -7 333 -7 q 151 39 151 -7 q 130 246 130 93 q 134 403 130 315 m 135 411 q 128 410 132 410 q 134 406 133 408 q 135 411 134 408 m 421 659 q 463 660 437 660 q 572 656 504 660 q 581 657 576 657 q 605 633 598 657 q 606 616 606 627 q 581 460 606 573 q 548 434 570 441 q 425 429 484 431 l 425 427 q 410 178 425 227 q 471 245 428 224 q 500 260 496 260 q 549 268 505 260 q 597 277 592 277 q 650 258 622 258 q 708 315 694 258 q 711 368 711 318 q 708 517 711 419 q 671 726 705 722 q 642 729 647 729 l 642 751 q 659 869 642 829 l 622 796 l 618 729 q 437 741 464 729 l 416 755 q 421 659 420 712 m 195 642 q 212 657 203 649 q 235 679 221 664 l 163 645 q 195 642 176 642 z "},"Ñ":{"ha":891,"x_min":3,"x_max":845,"o":"m 811 262 q 786 254 811 257 q 761 248 761 250 q 818 227 786 235 q 808 149 808 169 q 808 140 808 143 q 822 113 815 126 q 835 71 835 87 q 812 39 835 47 q 699 7 777 25 q 547 -14 604 -14 q 482 9 489 -14 q 479 46 479 20 q 481 96 479 66 q 493 277 488 186 q 440 330 452 318 q 386 408 403 372 q 343 444 370 416 q 357 231 357 407 q 323 0 357 37 l 77 -18 l 72 -18 q 14 -4 18 -18 q 11 64 11 5 q 31 669 11 338 l 138 606 q 82 654 134 616 q 22 705 26 693 q 15 754 15 721 l 15 765 q 18 802 16 800 q 25 833 25 814 q 14 898 25 856 q 3 954 3 940 q 29 981 3 977 l 131 981 q 311 983 219 981 l 340 957 l 362 983 q 385 925 385 947 q 379 903 385 914 l 386 875 q 374 833 374 843 q 460 676 372 833 q 546 518 547 518 q 572 489 564 489 q 575 492 575 489 q 571 505 575 496 q 489 673 561 532 q 496 722 496 687 q 492 790 496 749 q 479 935 479 918 q 497 987 479 983 q 648 996 570 987 q 672 1004 659 1004 q 707 997 682 1004 q 751 989 733 989 q 789 998 766 989 q 823 1007 812 1007 q 845 986 845 1007 q 844 977 845 982 q 826 785 838 966 q 815 590 815 621 q 811 262 815 570 m 795 916 l 736 947 q 793 847 785 899 l 795 916 m 66 68 l 41 125 q 39 90 39 117 q 41 46 39 71 q 43 26 42 26 l 43 26 q 45 26 43 26 q 71 35 50 26 l 104 18 q 66 68 86 45 m 600 1127 l 564 1185 l 515 1217 q 600 1127 522 1168 m 175 1093 q 47 1241 149 1112 q 262 1497 174 1497 q 382 1429 307 1497 q 502 1362 457 1362 q 522 1364 513 1362 q 585 1417 566 1374 q 604 1491 593 1434 q 627 1530 611 1529 l 629 1530 q 811 1441 668 1530 q 825 1419 825 1431 q 824 1409 825 1413 q 736 1245 799 1350 q 607 1097 648 1097 q 460 1185 571 1097 q 327 1281 343 1278 q 319 1282 323 1282 q 208 1109 260 1282 q 191 1085 204 1085 q 175 1093 184 1085 z "},"Ò":{"ha":892,"x_min":9,"x_max":848,"o":"m 848 315 q 827 183 846 239 q 673 33 783 49 l 590 0 q 516 3 545 3 q 476 0 488 3 q 403 12 441 0 q 357 24 365 24 q 323 0 336 24 q 297 -4 308 -4 q 270 16 273 -4 q 264 56 267 36 q 261 58 264 58 q 223 26 254 58 q 37 183 37 119 q 20 286 29 203 q 9 484 9 385 q 58 798 9 690 q 136 745 87 777 q 151 741 143 741 q 215 775 179 741 l 239 758 q 239 768 239 764 q 215 796 239 792 l 212 796 q 181 776 197 796 q 150 751 163 753 l 146 751 q 69 803 120 751 q 228 960 149 939 q 488 1006 311 1006 q 591 994 559 1006 q 673 954 640 991 q 734 888 729 892 q 817 585 786 848 q 817 576 817 581 q 803 493 817 549 l 786 447 q 827 521 823 521 q 827 519 827 521 q 843 403 840 481 q 848 315 846 325 m 579 315 q 582 463 582 318 q 541 726 582 686 q 435 746 460 746 q 359 715 385 746 q 283 681 322 710 q 243 618 243 650 l 243 614 q 243 602 243 609 q 240 536 243 581 q 235 446 235 472 q 255 376 235 382 l 255 372 q 322 267 255 316 q 389 228 375 228 q 410 240 389 229 q 432 252 432 251 q 479 244 452 244 q 579 315 561 244 m 199 103 l 94 187 q 134 126 104 165 q 199 103 154 111 m 241 1351 q 258 1408 241 1375 q 301 1449 277 1449 q 332 1432 317 1449 q 333 1435 333 1433 q 325 1454 333 1440 q 313 1476 313 1472 q 315 1480 313 1479 q 398 1533 374 1533 q 414 1530 407 1533 q 540 1476 476 1503 q 606 1362 606 1438 q 601 1322 606 1344 q 549 1222 591 1266 q 415 1164 496 1166 q 385 1088 385 1127 q 394 1046 385 1065 q 283 1201 330 1093 q 241 1351 241 1294 m 467 1223 q 551 1314 544 1265 l 503 1282 l 467 1223 z "},"Ó":{"ha":892,"x_min":9,"x_max":848,"o":"m 848 315 q 827 183 846 239 q 673 33 783 49 l 590 0 q 516 3 545 3 q 476 0 488 3 q 403 12 441 0 q 357 24 365 24 q 323 0 336 24 q 297 -4 308 -4 q 270 16 273 -4 q 264 56 267 36 q 261 58 264 58 q 223 26 254 58 q 37 183 37 119 q 20 286 29 203 q 9 484 9 385 q 58 798 9 690 q 136 745 87 777 q 151 741 143 741 q 215 775 179 741 l 239 758 q 239 768 239 764 q 215 796 239 792 l 212 796 q 181 776 197 796 q 150 751 163 753 l 146 751 q 69 803 120 751 q 228 960 149 939 q 488 1006 311 1006 q 591 994 559 1006 q 673 954 640 991 q 734 888 729 892 q 817 585 786 848 q 817 576 817 581 q 803 493 817 549 l 786 447 q 827 521 823 521 q 827 519 827 521 q 843 403 840 481 q 848 315 846 325 m 579 315 q 582 463 582 318 q 541 726 582 686 q 435 746 460 746 q 359 715 385 746 q 283 681 322 710 q 243 618 243 650 l 243 614 q 243 602 243 609 q 240 536 243 581 q 235 446 235 472 q 255 376 235 382 l 255 372 q 322 267 255 316 q 389 228 375 228 q 410 240 389 229 q 432 252 432 251 q 479 244 452 244 q 579 315 561 244 m 199 103 l 94 187 q 134 126 104 165 q 199 103 154 111 m 578 1351 q 537 1201 578 1294 q 426 1046 490 1093 q 435 1088 435 1065 q 405 1164 435 1127 q 271 1222 324 1166 q 219 1322 229 1266 q 214 1362 214 1344 q 280 1476 214 1438 q 406 1530 344 1503 q 422 1533 413 1533 q 505 1480 446 1533 q 507 1476 507 1479 q 495 1454 507 1472 q 487 1435 487 1440 q 488 1432 487 1433 q 519 1449 503 1449 q 562 1408 543 1449 q 578 1351 578 1375 m 353 1223 l 317 1282 l 269 1314 q 353 1223 276 1265 z "},"Ô":{"ha":892,"x_min":9,"x_max":848,"o":"m 848 315 q 827 183 846 239 q 673 33 783 49 l 590 0 q 516 3 545 3 q 476 0 488 3 q 403 12 441 0 q 357 24 365 24 q 323 0 336 24 q 297 -4 308 -4 q 270 16 273 -4 q 264 56 267 36 q 261 58 264 58 q 223 26 254 58 q 37 183 37 119 q 20 286 29 203 q 9 484 9 385 q 58 798 9 690 q 136 745 87 777 q 151 741 143 741 q 215 775 179 741 l 239 758 q 239 768 239 764 q 215 796 239 792 l 212 796 q 181 776 197 796 q 150 751 163 753 l 146 751 q 69 803 120 751 q 228 960 149 939 q 488 1006 311 1006 q 591 994 559 1006 q 673 954 640 991 q 734 888 729 892 q 817 585 786 848 q 817 576 817 581 q 803 493 817 549 l 786 447 q 827 521 823 521 q 827 519 827 521 q 843 403 840 481 q 848 315 846 325 m 579 315 q 582 463 582 318 q 541 726 582 686 q 435 746 460 746 q 359 715 385 746 q 283 681 322 710 q 243 618 243 650 l 243 614 q 243 602 243 609 q 240 536 243 581 q 235 446 235 472 q 255 376 235 382 l 255 372 q 322 267 255 316 q 389 228 375 228 q 410 240 389 229 q 432 252 432 251 q 479 244 452 244 q 579 315 561 244 m 199 103 l 94 187 q 134 126 104 165 q 199 103 154 111 m 646 1103 l 610 1161 l 562 1194 q 646 1103 568 1145 m 437 1480 q 779 1277 779 1328 q 778 1271 779 1274 q 715 1145 762 1234 q 669 1059 671 1059 q 664 1061 669 1061 q 623 1056 654 1061 q 413 1218 528 1133 q 389 1246 400 1223 q 380 1278 380 1265 q 380 1280 380 1280 q 366 1246 377 1280 l 397 1202 l 221 1053 l 57 1203 q 49 1234 49 1219 q 57 1255 49 1247 q 205 1369 96 1288 q 366 1468 342 1468 q 393 1484 385 1468 q 413 1500 401 1500 q 437 1480 436 1500 z "},"Õ":{"ha":892,"x_min":9,"x_max":848,"o":"m 848 315 q 827 183 846 239 q 673 33 783 49 l 590 0 q 516 3 545 3 q 476 0 488 3 q 403 12 441 0 q 357 24 365 24 q 323 0 336 24 q 297 -4 308 -4 q 270 16 273 -4 q 264 56 267 36 q 261 58 264 58 q 223 26 254 58 q 37 183 37 119 q 20 286 29 203 q 9 484 9 385 q 58 798 9 690 q 136 745 87 777 q 151 741 143 741 q 215 775 179 741 l 239 758 q 239 768 239 764 q 215 796 239 792 l 212 796 q 181 776 197 796 q 150 751 163 753 l 146 751 q 69 803 120 751 q 228 960 149 939 q 488 1006 311 1006 q 591 994 559 1006 q 673 954 640 991 q 734 888 729 892 q 817 585 786 848 q 817 576 817 581 q 803 493 817 549 l 786 447 q 827 521 823 521 q 827 519 827 521 q 843 403 840 481 q 848 315 846 325 m 579 315 q 582 463 582 318 q 541 726 582 686 q 435 746 460 746 q 359 715 385 746 q 283 681 322 710 q 243 618 243 650 l 243 614 q 243 602 243 609 q 240 536 243 581 q 235 446 235 472 q 255 376 235 382 l 255 372 q 322 267 255 316 q 389 228 375 228 q 410 240 389 229 q 432 252 432 251 q 479 244 452 244 q 579 315 561 244 m 199 103 l 94 187 q 134 126 104 165 q 199 103 154 111 m 600 1127 l 564 1185 l 515 1217 q 600 1127 522 1168 m 175 1093 q 47 1241 149 1112 q 262 1497 174 1497 q 382 1429 307 1497 q 502 1362 457 1362 q 522 1364 513 1362 q 585 1417 566 1374 q 604 1491 593 1434 q 627 1530 611 1529 l 629 1530 q 811 1441 668 1530 q 825 1419 825 1431 q 824 1409 825 1413 q 736 1245 799 1350 q 607 1097 648 1097 q 460 1185 571 1097 q 327 1281 343 1278 q 319 1282 323 1282 q 208 1109 260 1282 q 191 1085 204 1085 q 175 1093 184 1085 z "},"Ö":{"ha":892,"x_min":9,"x_max":848,"o":"m 848 315 q 827 183 846 239 q 673 33 783 49 l 590 0 q 516 3 545 3 q 476 0 488 3 q 403 12 441 0 q 357 24 365 24 q 323 0 336 24 q 297 -4 308 -4 q 270 16 273 -4 q 264 56 267 36 q 261 58 264 58 q 223 26 254 58 q 37 183 37 119 q 20 286 29 203 q 9 484 9 385 q 58 798 9 690 q 136 745 87 777 q 151 741 143 741 q 215 775 179 741 l 239 758 q 239 768 239 764 q 215 796 239 792 l 212 796 q 181 776 197 796 q 150 751 163 753 l 146 751 q 69 803 120 751 q 228 960 149 939 q 488 1006 311 1006 q 591 994 559 1006 q 673 954 640 991 q 734 888 729 892 q 817 585 786 848 q 817 576 817 581 q 803 493 817 549 l 786 447 q 827 521 823 521 q 827 519 827 521 q 843 403 840 481 q 848 315 846 325 m 579 315 q 582 463 582 318 q 541 726 582 686 q 435 746 460 746 q 359 715 385 746 q 283 681 322 710 q 243 618 243 650 l 243 614 q 243 602 243 609 q 240 536 243 581 q 235 446 235 472 q 255 376 235 382 l 255 372 q 322 267 255 316 q 389 228 375 228 q 410 240 389 229 q 432 252 432 251 q 479 244 452 244 q 579 315 561 244 m 199 103 l 94 187 q 134 126 104 165 q 199 103 154 111 m 374 1213 q 235 1065 374 1099 q 208 1063 223 1063 q 84 1100 150 1063 q 14 1183 19 1138 q 11 1217 11 1200 q 76 1338 11 1297 q 201 1392 138 1364 q 216 1395 208 1395 q 300 1342 241 1395 q 301 1338 301 1341 q 290 1316 301 1334 q 281 1297 281 1302 q 283 1293 281 1295 q 313 1310 298 1310 q 357 1270 337 1310 q 374 1213 374 1236 m 149 1085 l 113 1143 l 64 1175 q 149 1085 71 1126 m 848 1213 q 709 1065 848 1099 q 683 1063 698 1063 q 559 1100 625 1063 q 488 1183 494 1138 q 486 1217 486 1200 q 551 1338 486 1297 q 676 1392 613 1364 q 691 1395 683 1395 q 774 1342 716 1395 q 776 1338 776 1341 q 765 1316 776 1334 q 756 1297 756 1302 q 758 1293 756 1295 q 788 1310 773 1310 q 831 1270 812 1310 q 848 1213 848 1236 m 623 1085 l 587 1143 l 538 1175 q 623 1085 545 1126 z "},"×":{"ha":829,"x_min":14,"x_max":825,"o":"m 788 855 l 747 855 q 764 823 764 840 q 757 792 764 815 q 751 762 751 775 q 751 753 751 757 l 788 855 m 518 151 q 520 151 518 151 q 546 159 525 151 l 476 245 q 475 240 475 243 q 494 189 475 225 q 517 151 515 151 q 518 151 518 151 m 725 241 q 700 233 725 236 q 675 227 675 229 q 732 205 700 214 q 797 151 797 178 q 791 129 797 137 q 639 96 769 96 q 481 138 494 96 q 443 208 463 174 l 414 244 q 403 267 406 244 q 402 288 402 276 q 403 315 402 300 q 406 343 404 326 q 366 245 376 245 q 363 235 365 245 q 371 186 371 231 q 323 102 371 153 l 84 83 l 72 83 q 14 98 18 83 l 14 98 q 82 239 14 114 q 162 468 158 378 l 211 488 q 166 543 197 493 q 136 611 155 564 l 119 653 q 15 870 15 805 q 24 890 15 888 q 109 896 54 896 q 147 895 126 896 l 259 892 l 272 892 q 317 895 315 892 l 347 869 l 393 722 q 416 690 393 713 l 431 686 l 446 682 l 446 683 q 471 760 446 689 q 515 852 496 825 q 563 884 535 879 q 628 894 592 886 q 652 903 637 903 q 687 895 661 903 q 731 887 713 887 q 769 896 746 887 q 803 905 792 905 q 825 884 825 905 q 824 875 825 880 q 661 465 756 677 l 661 465 q 690 385 661 458 q 725 241 725 301 z "},"Ø":{"ha":892,"x_min":9,"x_max":848,"o":"m 618 989 q 648 996 633 992 q 672 1004 658 1004 q 707 997 682 1004 q 751 989 733 989 q 789 998 766 989 q 823 1007 812 1007 q 845 986 845 1007 q 844 977 845 982 q 767 835 834 963 q 817 585 796 758 q 817 576 817 581 q 803 493 817 549 l 786 447 q 827 521 823 521 q 827 519 827 521 q 843 403 840 481 q 848 315 846 325 q 827 183 846 239 q 673 33 783 49 l 590 0 q 516 3 545 3 q 476 0 488 3 q 403 12 441 0 q 357 24 365 24 q 336 16 345 24 q 323 0 328 5 q 297 -4 308 -4 q 286 -3 291 -4 q 75 -18 76 -17 l 72 -18 q 14 -4 18 -18 l 14 -3 q 52 78 14 11 q 76 119 65 100 q 37 183 37 154 q 20 286 29 203 q 9 484 9 385 q 58 798 9 690 q 136 745 87 777 q 151 741 143 741 q 215 775 179 741 l 239 758 q 239 768 239 764 q 215 796 239 792 l 212 796 q 181 776 197 796 q 150 751 163 753 l 146 751 q 69 803 120 751 q 228 960 149 939 q 488 1006 311 1006 q 591 994 559 1006 q 618 989 606 994 m 104 168 q 109 176 106 172 l 94 187 q 104 168 98 179 m 236 418 q 290 528 241 435 q 343 646 343 629 q 342 648 343 648 q 396 741 363 688 q 359 715 374 732 q 283 681 322 710 q 243 618 243 650 l 243 614 q 243 602 243 609 q 240 536 243 581 q 235 446 235 472 q 236 418 235 430 m 582 462 q 469 249 557 412 q 467 245 468 247 q 479 244 473 244 q 579 315 561 244 q 582 462 582 318 m 745 878 q 751 869 748 873 l 808 957 l 768 957 q 777 936 777 947 q 755 893 777 924 q 745 878 749 885 z "},"Ù":{"ha":818,"x_min":0,"x_max":766,"o":"m 174 926 q 89 729 150 799 l 165 785 q 193 882 193 864 l 193 886 q 218 926 193 924 q 285 930 260 930 q 315 926 309 930 q 349 876 349 905 q 343 861 349 868 q 319 729 332 848 q 307 600 307 625 q 272 579 307 593 q 235 555 237 566 l 235 553 q 240 549 235 549 q 288 568 253 549 q 299 570 294 570 q 313 561 313 570 q 302 545 313 555 q 303 528 303 538 q 301 492 303 513 q 300 437 300 450 q 323 375 300 382 l 323 369 q 370 278 323 315 q 415 250 403 250 l 415 250 q 394 191 415 244 q 378 131 383 151 q 468 315 447 231 q 490 536 490 406 q 468 802 490 675 q 449 878 449 846 q 472 918 449 911 q 524 933 517 931 q 511 873 511 897 q 513 852 511 861 q 515 846 514 846 q 519 866 517 846 q 524 886 522 886 l 523 892 q 524 909 523 898 q 541 937 530 928 q 713 946 640 945 q 724 950 718 950 q 745 929 736 950 q 765 648 761 774 q 766 640 766 644 q 733 599 766 606 l 648 587 l 616 616 l 612 600 l 625 587 l 625 580 l 639 580 q 659 576 650 576 q 733 585 686 576 q 739 585 736 585 q 765 572 755 585 q 766 562 766 570 q 734 369 766 525 q 677 142 694 178 q 528 18 631 60 l 503 69 q 504 50 504 59 q 479 0 504 15 q 405 3 433 3 q 366 0 376 3 q 210 53 286 1 q 81 218 118 113 q 49 326 68 224 q 32 428 40 370 l 77 428 q 29 468 39 444 q 11 648 22 485 q 0 829 0 798 q 29 922 0 873 q 78 936 36 935 q 134 942 127 939 q 149 945 140 945 q 175 930 175 945 q 174 926 175 928 m 515 203 q 520 229 520 220 q 511 243 520 243 q 498 166 498 243 q 498 138 498 153 l 515 203 m 228 1351 q 245 1408 228 1375 q 288 1449 264 1449 q 318 1432 303 1449 q 319 1435 319 1433 q 311 1454 319 1440 q 300 1476 300 1472 q 302 1480 300 1479 q 385 1533 360 1533 q 400 1530 393 1533 q 526 1476 463 1503 q 592 1362 592 1438 q 587 1322 592 1344 q 535 1222 578 1266 q 401 1164 482 1166 q 371 1088 371 1127 q 380 1046 371 1065 q 269 1201 317 1093 q 228 1351 228 1294 m 453 1223 q 538 1314 530 1265 l 489 1282 l 453 1223 z "},"Ú":{"ha":818,"x_min":0,"x_max":766,"o":"m 174 926 q 89 729 150 799 l 165 785 q 193 882 193 864 l 193 886 q 218 926 193 924 q 285 930 260 930 q 315 926 309 930 q 349 876 349 905 q 343 861 349 868 q 319 729 332 848 q 307 600 307 625 q 272 579 307 593 q 235 555 237 566 l 235 553 q 240 549 235 549 q 288 568 253 549 q 299 570 294 570 q 313 561 313 570 q 302 545 313 555 q 303 528 303 538 q 301 492 303 513 q 300 437 300 450 q 323 375 300 382 l 323 369 q 370 278 323 315 q 415 250 403 250 l 415 250 q 394 191 415 244 q 378 131 383 151 q 468 315 447 231 q 490 536 490 406 q 468 802 490 675 q 449 878 449 846 q 472 918 449 911 q 524 933 517 931 q 511 873 511 897 q 513 852 511 861 q 515 846 514 846 q 519 866 517 846 q 524 886 522 886 l 523 892 q 524 909 523 898 q 541 937 530 928 q 713 946 640 945 q 724 950 718 950 q 745 929 736 950 q 765 648 761 774 q 766 640 766 644 q 733 599 766 606 l 648 587 l 616 616 l 612 600 l 625 587 l 625 580 l 639 580 q 659 576 650 576 q 733 585 686 576 q 739 585 736 585 q 765 572 755 585 q 766 562 766 570 q 734 369 766 525 q 677 142 694 178 q 528 18 631 60 l 503 69 q 504 50 504 59 q 479 0 504 15 q 405 3 433 3 q 366 0 376 3 q 210 53 286 1 q 81 218 118 113 q 49 326 68 224 q 32 428 40 370 l 77 428 q 29 468 39 444 q 11 648 22 485 q 0 829 0 798 q 29 922 0 873 q 78 936 36 935 q 134 942 127 939 q 149 945 140 945 q 175 930 175 945 q 174 926 175 928 m 515 203 q 520 229 520 220 q 511 243 520 243 q 498 166 498 243 q 498 138 498 153 l 515 203 m 565 1351 q 524 1201 565 1294 q 412 1046 476 1093 q 422 1088 422 1065 q 391 1164 422 1127 q 258 1222 311 1166 q 205 1322 215 1266 q 201 1362 201 1344 q 267 1476 201 1438 q 393 1530 330 1503 q 408 1533 399 1533 q 491 1480 433 1533 q 493 1476 493 1479 q 481 1454 493 1472 q 473 1435 473 1440 q 475 1432 473 1433 q 505 1449 490 1449 q 548 1408 529 1449 q 565 1351 565 1375 m 340 1223 l 304 1282 l 255 1314 q 340 1223 262 1265 z "},"Û":{"ha":818,"x_min":0,"x_max":766,"o":"m 174 926 q 89 729 150 799 l 165 785 q 193 882 193 864 l 193 886 q 218 926 193 924 q 285 930 260 930 q 315 926 309 930 q 349 876 349 905 q 343 861 349 868 q 319 729 332 848 q 307 600 307 625 q 272 579 307 593 q 235 555 237 566 l 235 553 q 240 549 235 549 q 288 568 253 549 q 299 570 294 570 q 313 561 313 570 q 302 545 313 555 q 303 528 303 538 q 301 492 303 513 q 300 437 300 450 q 323 375 300 382 l 323 369 q 370 278 323 315 q 415 250 403 250 l 415 250 q 394 191 415 244 q 378 131 383 151 q 468 315 447 231 q 490 536 490 406 q 468 802 490 675 q 449 878 449 846 q 472 918 449 911 q 524 933 517 931 q 511 873 511 897 q 513 852 511 861 q 515 846 514 846 q 519 866 517 846 q 524 886 522 886 l 523 892 q 524 909 523 898 q 541 937 530 928 q 713 946 640 945 q 724 950 718 950 q 745 929 736 950 q 765 648 761 774 q 766 640 766 644 q 733 599 766 606 l 648 587 l 616 616 l 612 600 l 625 587 l 625 580 l 639 580 q 659 576 650 576 q 733 585 686 576 q 739 585 736 585 q 765 572 755 585 q 766 562 766 570 q 734 369 766 525 q 677 142 694 178 q 528 18 631 60 l 503 69 q 504 50 504 59 q 479 0 504 15 q 405 3 433 3 q 366 0 376 3 q 210 53 286 1 q 81 218 118 113 q 49 326 68 224 q 32 428 40 370 l 77 428 q 29 468 39 444 q 11 648 22 485 q 0 829 0 798 q 29 922 0 873 q 78 936 36 935 q 134 942 127 939 q 149 945 140 945 q 175 930 175 945 q 174 926 175 928 m 515 203 q 520 229 520 220 q 511 243 520 243 q 498 166 498 243 q 498 138 498 153 l 515 203 m 633 1103 l 596 1161 l 548 1194 q 633 1103 555 1145 m 424 1480 q 766 1277 766 1328 q 764 1271 766 1274 q 702 1145 748 1234 q 656 1059 658 1059 q 650 1061 656 1061 q 609 1056 640 1061 q 399 1218 515 1133 q 376 1246 387 1223 q 367 1278 367 1265 q 366 1280 367 1280 q 352 1246 363 1280 l 384 1202 l 208 1053 l 43 1203 q 35 1234 35 1219 q 43 1255 35 1247 q 192 1369 83 1288 q 352 1468 328 1468 q 380 1484 372 1468 q 399 1500 388 1500 q 424 1480 422 1500 z "},"Ü":{"ha":818,"x_min":-23,"x_max":814,"o":"m 174 926 q 89 729 150 799 l 165 785 q 193 882 193 864 l 193 886 q 218 926 193 924 q 285 930 260 930 q 315 926 309 930 q 349 876 349 905 q 343 861 349 868 q 319 729 332 848 q 307 600 307 625 q 272 579 307 593 q 235 555 237 566 l 235 553 q 240 549 235 549 q 288 568 253 549 q 299 570 294 570 q 313 561 313 570 q 302 545 313 555 q 303 528 303 538 q 301 492 303 513 q 300 437 300 450 q 323 375 300 382 l 323 369 q 370 278 323 315 q 415 250 403 250 l 415 250 q 394 191 415 244 q 378 131 383 151 q 468 315 447 231 q 490 536 490 406 q 468 802 490 675 q 449 878 449 846 q 472 918 449 911 q 524 933 517 931 q 511 873 511 897 q 513 852 511 861 q 515 846 514 846 q 519 866 517 846 q 524 886 522 886 l 523 892 q 524 909 523 898 q 541 937 530 928 q 713 946 640 945 q 724 950 718 950 q 745 929 736 950 q 765 648 761 774 q 766 640 766 644 q 733 599 766 606 l 648 587 l 616 616 l 612 600 l 625 587 l 625 580 l 639 580 q 659 576 650 576 q 733 585 686 576 q 739 585 736 585 q 765 572 755 585 q 766 562 766 570 q 734 369 766 525 q 677 142 694 178 q 528 18 631 60 l 503 69 q 504 50 504 59 q 479 0 504 15 q 405 3 433 3 q 366 0 376 3 q 210 53 286 1 q 81 218 118 113 q 49 326 68 224 q 32 428 40 370 l 77 428 q 29 468 39 444 q 11 648 22 485 q 0 829 0 798 q 29 922 0 873 q 78 936 36 935 q 134 942 127 939 q 149 945 140 945 q 175 930 175 945 q 174 926 175 928 m 515 203 q 520 229 520 220 q 511 243 520 243 q 498 166 498 243 q 498 138 498 153 l 515 203 m 340 1213 q 201 1065 340 1099 q 174 1063 189 1063 q 51 1100 116 1063 q -20 1183 -15 1138 q -23 1217 -23 1200 q 42 1338 -23 1297 q 168 1392 104 1364 q 182 1395 174 1395 q 266 1342 208 1395 q 267 1338 267 1341 q 256 1316 267 1334 q 248 1297 248 1302 q 249 1293 248 1295 q 279 1310 264 1310 q 323 1270 303 1310 q 340 1213 340 1236 m 115 1085 l 79 1143 l 30 1175 q 115 1085 37 1126 m 814 1213 q 675 1065 814 1099 q 649 1063 664 1063 q 525 1100 591 1063 q 454 1183 460 1138 q 452 1217 452 1200 q 517 1338 452 1297 q 642 1392 579 1364 q 657 1395 649 1395 q 741 1342 682 1395 q 742 1338 742 1341 q 731 1316 742 1334 q 722 1297 722 1302 q 724 1293 722 1295 q 754 1310 739 1310 q 798 1270 778 1310 q 814 1213 814 1236 m 589 1085 l 553 1143 l 505 1175 q 589 1085 511 1126 z "},"Ý":{"ha":791,"x_min":8,"x_max":845,"o":"m 537 334 q 513 325 537 329 q 489 318 489 321 q 546 297 513 307 q 561 232 551 271 q 579 77 579 171 q 569 18 579 33 q 330 0 344 1 l 318 0 q 260 14 264 0 q 250 145 250 47 q 260 406 250 243 l 264 456 q 219 511 250 461 q 157 606 197 551 q 119 653 123 653 q 8 958 8 893 q 18 978 8 977 q 102 984 47 984 q 140 983 119 984 l 259 981 l 265 981 q 311 983 308 981 l 340 957 l 393 722 q 416 690 393 713 l 431 686 l 446 682 l 446 683 q 471 760 446 689 q 521 890 496 825 q 583 986 555 981 q 648 996 612 987 q 672 1004 658 1004 q 707 997 682 1004 q 751 989 733 989 q 789 998 766 989 q 823 1007 812 1007 q 845 986 845 1007 q 844 977 845 982 q 684 575 789 835 q 610 486 647 530 q 537 334 538 396 m 808 957 l 768 957 q 785 925 785 942 q 777 894 785 917 q 771 863 771 877 q 772 854 771 859 l 808 957 m 592 1351 q 551 1201 592 1294 q 439 1046 503 1093 q 449 1088 449 1065 q 418 1164 449 1127 q 285 1222 338 1166 q 233 1322 242 1266 q 228 1362 228 1344 q 294 1476 228 1438 q 420 1530 357 1503 q 435 1533 427 1533 q 518 1480 460 1533 q 520 1476 520 1479 q 509 1454 520 1472 q 500 1435 500 1440 q 502 1432 500 1433 q 532 1449 517 1449 q 575 1408 556 1449 q 592 1351 592 1375 m 367 1223 l 331 1282 l 282 1314 q 367 1223 290 1265 z "},"Þ":{"ha":876,"x_min":1,"x_max":878,"o":"m 608 469 q 612 511 612 473 q 575 572 612 568 q 546 575 551 575 l 546 597 q 563 715 546 675 l 527 642 l 522 575 q 345 559 403 559 q 309 564 317 559 l 288 579 q 290 509 290 543 q 269 346 290 414 q 330 414 286 392 q 359 428 355 428 q 421 429 364 428 q 498 431 479 431 q 550 412 522 412 q 608 469 595 412 m 140 621 l 124 637 l 83 596 l 140 621 m 290 808 q 519 825 422 825 q 592 818 574 825 q 686 761 641 815 q 760 678 753 684 q 840 586 816 636 q 878 469 857 554 q 842 361 867 408 q 674 236 783 252 l 571 224 q 527 207 562 220 q 437 208 469 208 q 396 207 404 208 q 311 168 331 201 q 350 134 334 149 q 361 83 361 104 q 324 0 361 41 q 298 -4 309 -4 q 271 16 274 -4 q 264 56 267 36 l 264 58 q 260 0 264 58 q 153 -7 204 -7 q 22 39 22 -7 q 1 246 1 93 q 9 463 1 337 l 18 604 q 26 609 22 607 q 25 641 26 625 l 9 633 q 17 681 17 648 q 10 767 17 705 q 3 857 3 829 q 14 918 3 900 q 14 938 14 930 q 28 986 14 983 q 149 992 85 987 q 168 1000 157 1000 q 197 993 176 1000 q 231 987 218 987 q 262 994 243 987 q 289 1001 280 1001 q 307 984 307 1001 q 306 977 307 981 q 291 823 300 969 q 290 808 290 816 z "},"ß":{"ha":945,"x_min":8,"x_max":901,"o":"m 791 879 l 699 932 l 682 916 l 791 879 m 160 31 l 79 58 q 58 165 68 165 q 52 151 52 165 l 62 33 l 160 31 m 342 589 l 387 457 l 376 383 l 372 383 q 314 314 314 343 q 361 270 314 286 l 356 208 l 359 149 l 374 91 l 359 51 l 359 5 l 359 2 q 321 17 340 8 l 67 -7 l 24 12 l 8 301 q 17 439 11 371 l 24 566 q 15 669 15 603 q 39 803 15 728 q 150 922 54 852 q 307 994 245 991 q 458 1010 350 1010 q 699 972 631 1010 q 787 922 711 961 q 859 860 843 892 q 852 861 855 861 q 834 835 834 861 q 835 823 834 829 q 880 676 880 791 q 867 556 880 612 q 839 496 854 500 q 818 489 830 489 q 793 493 811 489 q 771 496 779 496 q 766 496 768 496 q 753 494 760 494 q 724 497 741 494 q 690 509 697 501 q 689 515 689 510 q 694 542 689 524 q 699 559 699 556 l 699 559 q 691 567 697 559 q 683 575 686 575 q 680 570 680 574 q 671 548 679 566 q 664 521 664 530 q 679 488 664 503 q 737 466 701 466 q 762 468 749 466 q 900 300 888 461 q 901 273 901 286 q 829 75 901 159 q 683 -3 760 -3 q 663 0 672 -3 q 635 58 639 58 q 635 56 635 58 q 628 16 632 36 q 601 -4 625 -4 q 575 0 590 -4 q 526 24 562 24 q 452 12 507 24 q 439 9 445 10 l 439 60 l 445 143 l 442 193 l 420 199 l 393 227 l 429 229 l 442 254 l 437 261 l 452 261 q 521 260 515 260 q 566 259 566 260 l 559 258 q 606 283 600 261 l 561 355 q 484 389 541 389 q 432 386 469 389 q 425 385 428 386 l 427 408 l 433 454 l 448 482 l 420 528 l 414 581 l 400 607 q 447 606 412 606 l 491 604 q 586 550 491 603 q 591 549 589 549 q 616 631 616 549 q 605 719 616 679 q 578 758 594 758 q 569 755 574 758 l 549 741 q 518 736 540 736 q 376 751 469 736 l 372 818 l 336 878 q 353 774 353 838 l 353 751 q 323 749 351 751 q 288 688 288 745 q 290 646 288 650 q 342 589 302 593 z "},"à":{"ha":716,"x_min":3,"x_max":688,"o":"m 408 792 q 437 800 425 800 q 454 783 454 800 q 454 776 454 780 l 454 774 q 550 598 454 761 q 653 418 653 423 q 651 339 653 412 q 649 210 649 256 q 629 203 649 205 q 609 198 609 200 q 661 172 629 188 q 667 129 663 156 q 677 107 672 118 q 688 73 688 87 q 670 47 688 54 q 564 16 635 33 q 427 -7 474 -7 q 386 7 390 -7 q 385 33 385 13 q 391 197 385 78 q 381 195 387 195 q 307 210 359 195 q 273 239 294 216 q 284 120 284 205 q 259 0 284 28 q 142 -12 220 -2 q 54 -21 75 -21 q 24 -12 26 -21 q 94 75 24 -2 q 12 -3 12 18 q 3 99 3 25 q 7 229 3 153 l 47 245 q 25 263 38 248 q 12 289 12 279 q 14 343 14 324 q 10 368 14 368 q 7 366 9 367 q 90 517 30 408 q 165 611 105 519 q 224 707 195 659 q 245 703 233 703 q 330 740 276 703 q 408 792 399 788 m 398 386 q 390 414 395 386 q 391 417 391 416 q 365 463 391 427 q 313 546 326 515 q 292 461 295 468 l 297 439 q 276 384 281 391 q 339 385 280 384 q 398 386 399 386 m 447 158 q 417 84 420 88 q 438 96 421 90 l 447 158 m 193 1081 q 207 1126 193 1100 q 241 1159 222 1159 q 265 1145 254 1159 q 267 1148 267 1146 q 260 1163 267 1152 q 251 1181 251 1177 q 252 1184 251 1183 q 319 1226 299 1226 q 331 1224 326 1226 q 432 1181 381 1203 q 485 1090 485 1151 q 481 1057 485 1076 q 439 978 473 1013 q 332 931 397 933 q 308 871 308 902 q 315 837 308 852 q 227 961 264 874 q 193 1081 193 1035 m 374 979 q 441 1051 435 1012 l 402 1025 l 374 979 z "},"á":{"ha":716,"x_min":3,"x_max":688,"o":"m 408 792 q 437 800 425 800 q 454 783 454 800 q 454 776 454 780 l 454 774 q 550 598 454 761 q 653 418 653 423 q 651 339 653 412 q 649 210 649 256 q 629 203 649 205 q 609 198 609 200 q 661 172 629 188 q 667 129 663 156 q 677 107 672 118 q 688 73 688 87 q 670 47 688 54 q 564 16 635 33 q 427 -7 474 -7 q 386 7 390 -7 q 385 33 385 13 q 391 197 385 78 q 381 195 387 195 q 307 210 359 195 q 273 239 294 216 q 284 120 284 205 q 259 0 284 28 q 142 -12 220 -2 q 54 -21 75 -21 q 24 -12 26 -21 q 94 75 24 -2 q 12 -3 12 18 q 3 99 3 25 q 7 229 3 153 l 47 245 q 25 263 38 248 q 12 289 12 279 q 14 343 14 324 q 10 368 14 368 q 7 366 9 367 q 90 517 30 408 q 165 611 105 519 q 224 707 195 659 q 245 703 233 703 q 330 740 276 703 q 408 792 399 788 m 398 386 q 390 414 395 386 q 391 417 391 416 q 365 463 391 427 q 313 546 326 515 q 292 461 295 468 l 297 439 q 276 384 281 391 q 339 385 280 384 q 398 386 399 386 m 447 158 q 417 84 420 88 q 438 96 421 90 l 447 158 m 463 1081 q 430 961 463 1035 q 341 837 392 874 q 349 871 349 852 q 324 931 349 902 q 217 978 260 933 q 176 1057 183 1013 q 172 1090 172 1076 q 224 1181 172 1151 q 325 1224 275 1203 q 338 1226 330 1226 q 404 1184 357 1226 q 406 1181 406 1183 q 396 1163 406 1177 q 390 1148 390 1152 q 391 1145 390 1146 q 415 1159 403 1159 q 450 1126 434 1159 q 463 1081 463 1100 m 283 979 l 254 1025 l 215 1051 q 283 979 221 1012 z "},"â":{"ha":716,"x_min":3,"x_max":688,"o":"m 408 792 q 437 800 425 800 q 454 783 454 800 q 454 776 454 780 l 454 774 q 550 598 454 761 q 653 418 653 423 q 651 339 653 412 q 649 210 649 256 q 629 203 649 205 q 609 198 609 200 q 661 172 629 188 q 667 129 663 156 q 677 107 672 118 q 688 73 688 87 q 670 47 688 54 q 564 16 635 33 q 427 -7 474 -7 q 386 7 390 -7 q 385 33 385 13 q 391 197 385 78 q 381 195 387 195 q 307 210 359 195 q 273 239 294 216 q 284 120 284 205 q 259 0 284 28 q 142 -12 220 -2 q 54 -21 75 -21 q 24 -12 26 -21 q 94 75 24 -2 q 12 -3 12 18 q 3 99 3 25 q 7 229 3 153 l 47 245 q 25 263 38 248 q 12 289 12 279 q 14 343 14 324 q 10 368 14 368 q 7 366 9 367 q 90 517 30 408 q 165 611 105 519 q 224 707 195 659 q 245 703 233 703 q 330 740 276 703 q 408 792 399 788 m 398 386 q 390 414 395 386 q 391 417 391 416 q 365 463 391 427 q 313 546 326 515 q 292 461 295 468 l 297 439 q 276 384 281 391 q 339 385 280 384 q 398 386 399 386 m 447 158 q 417 84 420 88 q 438 96 421 90 l 447 158 m 517 882 l 488 929 l 450 955 q 517 882 455 916 m 350 1184 q 623 1021 623 1062 q 623 1017 623 1019 q 572 916 610 987 q 536 848 537 848 q 531 848 536 848 q 498 845 523 848 q 330 975 422 907 q 311 997 320 978 q 304 1022 304 1013 q 304 1024 304 1024 q 292 997 302 1024 l 318 962 l 177 842 l 45 962 q 39 987 39 975 q 45 1004 39 998 q 165 1095 77 1030 q 292 1175 273 1175 q 315 1187 309 1175 q 330 1200 321 1200 q 350 1184 349 1200 z "},"ã":{"ha":716,"x_min":3,"x_max":688,"o":"m 408 792 q 437 800 425 800 q 454 783 454 800 q 454 776 454 780 l 454 774 q 550 598 454 761 q 653 418 653 423 q 651 339 653 412 q 649 210 649 256 q 629 203 649 205 q 609 198 609 200 q 661 172 629 188 q 667 129 663 156 q 677 107 672 118 q 688 73 688 87 q 670 47 688 54 q 564 16 635 33 q 427 -7 474 -7 q 386 7 390 -7 q 385 33 385 13 q 391 197 385 78 q 381 195 387 195 q 307 210 359 195 q 273 239 294 216 q 284 120 284 205 q 259 0 284 28 q 142 -12 220 -2 q 54 -21 75 -21 q 24 -12 26 -21 q 94 75 24 -2 q 12 -3 12 18 q 3 99 3 25 q 7 229 3 153 l 47 245 q 25 263 38 248 q 12 289 12 279 q 14 343 14 324 q 10 368 14 368 q 7 366 9 367 q 90 517 30 408 q 165 611 105 519 q 224 707 195 659 q 245 703 233 703 q 330 740 276 703 q 408 792 399 788 m 398 386 q 390 414 395 386 q 391 417 391 416 q 365 463 391 427 q 313 546 326 515 q 292 461 295 468 l 297 439 q 276 384 281 391 q 339 385 280 384 q 398 386 399 386 m 447 158 q 417 84 420 88 q 438 96 421 90 l 447 158 m 480 902 l 452 948 l 412 974 q 480 902 418 935 m 140 874 q 38 993 119 889 q 210 1198 139 1198 q 306 1143 246 1198 q 401 1089 366 1089 q 418 1092 410 1089 q 469 1134 452 1099 q 484 1192 475 1147 q 501 1224 489 1223 l 503 1224 q 649 1153 534 1224 q 661 1135 661 1145 q 659 1127 661 1131 q 589 996 640 1080 q 486 878 518 878 q 368 948 457 878 q 262 1025 275 1023 q 256 1025 259 1025 q 166 887 208 1025 q 153 868 163 868 q 140 874 147 868 z "},"ä":{"ha":716,"x_min":3,"x_max":688,"o":"m 408 792 q 437 800 425 800 q 454 783 454 800 q 454 776 454 780 l 454 774 q 550 598 454 761 q 653 418 653 423 q 651 339 653 412 q 649 210 649 256 q 629 203 649 205 q 609 198 609 200 q 661 172 629 188 q 667 129 663 156 q 677 107 672 118 q 688 73 688 87 q 670 47 688 54 q 564 16 635 33 q 427 -7 474 -7 q 386 7 390 -7 q 385 33 385 13 q 391 197 385 78 q 381 195 387 195 q 307 210 359 195 q 273 239 294 216 q 284 120 284 205 q 259 0 284 28 q 142 -12 220 -2 q 54 -21 75 -21 q 24 -12 26 -21 q 94 75 24 -2 q 12 -3 12 18 q 3 99 3 25 q 7 229 3 153 l 47 245 q 25 263 38 248 q 12 289 12 279 q 14 343 14 324 q 10 368 14 368 q 7 366 9 367 q 90 517 30 408 q 165 611 105 519 q 224 707 195 659 q 245 703 233 703 q 330 740 276 703 q 408 792 399 788 m 398 386 q 390 414 395 386 q 391 417 391 416 q 365 463 391 427 q 313 546 326 515 q 292 461 295 468 l 297 439 q 276 384 281 391 q 339 385 280 384 q 398 386 399 386 m 447 158 q 417 84 420 88 q 438 96 421 90 l 447 158 m 299 970 q 188 852 299 879 q 167 850 178 850 q 68 880 120 850 q 11 947 16 910 q 9 974 9 960 q 61 1070 9 1038 q 161 1114 111 1092 q 173 1116 167 1116 q 240 1074 193 1116 q 241 1070 241 1073 q 233 1053 241 1067 q 225 1038 225 1042 q 227 1035 225 1036 q 251 1048 239 1048 q 286 1016 270 1048 q 299 970 299 989 m 119 868 l 90 915 l 51 940 q 119 868 56 901 m 679 970 q 568 852 679 879 q 547 850 558 850 q 448 880 500 850 q 391 947 395 910 q 389 974 389 960 q 441 1070 389 1038 q 541 1114 490 1092 q 553 1116 547 1116 q 620 1074 573 1116 q 621 1070 621 1073 q 612 1053 621 1067 q 605 1038 605 1042 q 606 1035 605 1036 q 631 1048 618 1048 q 665 1016 650 1048 q 679 970 679 989 m 498 868 l 470 915 l 431 940 q 498 868 436 901 z "},"å":{"ha":716,"x_min":3,"x_max":688,"o":"m 408 792 q 437 800 425 800 q 454 783 454 800 q 454 776 454 780 l 454 774 q 550 598 454 761 q 653 418 653 423 q 651 339 653 412 q 649 210 649 256 q 629 203 649 205 q 609 198 609 200 q 661 172 629 188 q 667 129 663 156 q 677 107 672 118 q 688 73 688 87 q 670 47 688 54 q 564 16 635 33 q 427 -7 474 -7 q 386 7 390 -7 q 385 33 385 13 q 391 197 385 78 q 381 195 387 195 q 307 210 359 195 q 273 239 294 216 q 284 120 284 205 q 259 0 284 28 q 142 -12 220 -2 q 54 -21 75 -21 q 24 -12 26 -21 q 94 75 24 -2 q 12 -3 12 18 q 3 99 3 25 q 7 229 3 153 l 47 245 q 25 263 38 248 q 12 289 12 279 q 14 343 14 324 q 10 368 14 368 q 7 366 9 367 q 90 517 30 408 q 165 611 105 519 q 224 707 195 659 q 245 703 233 703 q 330 740 276 703 q 408 792 399 788 m 398 386 q 390 414 395 386 q 391 417 391 416 q 365 463 391 427 q 313 546 326 515 q 292 461 295 468 l 297 439 q 276 384 281 391 q 339 385 280 384 q 398 386 399 386 m 447 158 q 417 84 420 88 q 438 96 421 90 l 447 158 m 489 970 q 378 852 489 879 q 357 850 368 850 q 258 880 310 850 q 201 947 205 910 q 199 974 199 960 q 251 1070 199 1038 q 351 1114 300 1092 q 363 1116 357 1116 q 430 1074 383 1116 q 431 1070 431 1073 q 422 1053 431 1067 q 415 1038 415 1042 q 416 1035 415 1036 q 441 1048 429 1048 q 475 1016 460 1048 q 489 970 489 989 m 309 868 l 280 915 l 241 940 q 309 868 246 901 z "},"æ":{"ha":1166,"x_min":3,"x_max":1106,"o":"m 398 386 q 390 414 395 386 q 391 417 391 416 q 365 463 391 427 q 313 546 326 515 q 292 461 295 468 l 297 439 q 276 384 281 391 q 339 385 280 384 q 398 386 399 386 m 876 101 q 847 91 867 100 q 807 83 829 83 l 802 83 q 825 69 802 79 l 828 69 q 876 101 851 69 m 382 195 l 381 195 q 307 210 359 195 q 273 239 294 216 q 284 120 284 205 q 259 0 284 28 q 142 -12 220 -2 q 54 -21 75 -21 q 24 -12 26 -21 q 94 75 24 -2 q 12 -3 12 18 q 3 99 3 25 q 7 229 3 153 l 47 245 q 25 263 38 248 q 12 289 12 279 q 14 343 14 324 q 10 368 14 368 q 7 366 9 367 q 90 517 30 408 q 165 611 105 519 q 224 707 195 659 q 245 703 233 703 q 330 740 276 703 q 408 792 399 788 q 437 800 425 800 q 454 785 454 800 q 629 787 549 786 l 652 766 l 670 787 q 814 781 707 783 l 838 781 q 962 790 941 781 q 982 795 975 795 q 1000 771 1000 795 q 996 743 1000 759 q 987 665 995 742 q 971 555 978 580 q 950 551 970 551 q 870 557 935 551 q 773 562 805 562 q 699 538 718 562 l 694 540 q 686 553 694 549 q 677 563 677 560 q 682 570 677 564 q 688 585 686 576 q 690 593 690 589 q 667 620 690 608 q 680 585 680 599 q 671 561 680 579 l 677 538 q 667 506 667 513 q 641 493 667 498 q 604 506 615 496 q 615 488 610 496 q 672 484 635 484 q 730 485 682 484 q 778 486 779 486 q 788 489 777 486 q 782 450 783 471 q 809 494 795 484 q 878 498 816 498 q 1011 495 928 498 q 1019 496 1015 496 q 1038 477 1032 496 q 1039 463 1039 471 q 1019 339 1039 428 q 992 318 1010 323 q 686 310 829 311 q 667 334 673 319 q 663 351 663 345 q 677 365 663 365 q 686 369 686 365 q 677 382 686 374 q 652 339 652 376 q 670 264 670 292 q 648 203 670 228 q 679 240 667 224 q 935 250 820 249 q 938 232 938 250 q 941 213 938 213 q 959 232 944 213 q 977 250 973 250 q 1097 226 1097 249 q 1106 81 1106 191 q 1084 -22 1106 -14 l 1083 -22 q 949 9 1071 -22 q 761 43 825 43 q 747 42 753 43 q 566 9 696 39 q 419 -17 444 -17 q 404 -12 406 -17 q 407 -6 404 -10 q 391 0 397 -4 q 391 -3 391 -2 q 390 1 390 -1 q 386 7 387 4 q 385 33 385 13 q 385 63 385 45 q 383 145 384 96 q 382 195 382 171 z "},"ç":{"ha":653,"x_min":7,"x_max":648,"o":"m 536 568 q 547 566 543 566 q 557 572 554 566 q 563 621 562 604 l 536 568 m 443 54 q 415 44 435 53 q 377 36 397 36 l 370 36 q 393 22 370 32 l 396 22 q 443 54 419 22 m 159 83 l 75 150 q 107 101 83 132 q 159 83 123 89 m 321 10 q 286 19 292 19 q 258 0 269 19 q 237 -3 246 -3 q 216 13 218 -3 q 211 45 213 28 q 209 47 211 47 q 178 21 203 47 q 30 146 30 96 q 16 229 23 162 q 7 387 7 308 q 47 638 7 552 q 109 595 70 621 q 117 593 113 593 q 172 637 140 593 l 169 637 q 144 621 157 637 q 120 601 131 602 l 117 601 q 55 642 96 601 q 182 768 119 751 q 378 804 228 804 q 582 790 473 804 q 602 795 594 795 q 619 771 619 795 q 615 743 619 759 q 568 555 597 671 q 517 552 544 552 q 418 576 448 552 q 348 587 397 582 q 311 590 326 590 q 281 585 288 590 q 223 545 254 580 q 194 484 194 511 l 194 480 q 195 471 195 476 q 192 421 195 454 q 188 353 188 372 q 204 301 188 305 l 204 298 q 267 232 204 254 q 331 220 304 220 q 363 216 349 216 q 406 223 380 216 q 451 231 432 231 q 471 230 460 231 q 481 211 474 230 q 491 191 488 191 q 494 221 492 191 q 497 227 495 227 q 581 233 534 227 q 633 239 627 239 q 646 232 646 239 q 648 217 648 228 q 637 118 648 189 q 596 0 622 9 q 574 -2 591 -2 q 520 0 564 -2 q 505 1 512 1 q 476 -98 494 -58 q 414 -56 453 -81 q 402 -53 408 -53 q 351 -80 380 -53 l 332 -66 l 332 -75 q 351 -97 332 -94 l 353 -97 q 378 -81 366 -97 q 403 -61 392 -62 l 406 -61 q 467 -102 428 -61 q 402 -191 443 -146 q 318 -252 353 -243 q 211 -271 244 -271 q 106 -240 155 -271 q 56 -168 87 -228 q 25 -111 26 -111 q 51 -60 28 -60 q 73 -73 60 -60 q 185 -91 153 -91 q 250 -69 231 -91 q 303 -23 275 -64 q 321 10 315 -5 z "},"è":{"ha":752,"x_min":0,"x_max":726,"o":"m 559 568 q 569 566 565 566 q 579 572 576 566 q 585 621 585 604 l 559 568 m 429 494 q 498 498 436 498 q 631 495 548 498 q 639 496 635 496 q 658 477 652 496 q 659 463 659 471 q 639 339 659 428 q 612 318 630 323 q 307 310 450 311 q 286 334 294 319 q 283 351 283 345 q 298 365 283 365 q 305 369 305 365 q 298 382 305 374 q 273 339 273 376 q 290 264 290 292 q 268 203 290 228 q 299 240 288 224 q 555 250 440 249 q 557 232 557 250 q 561 213 557 213 q 579 232 564 213 q 597 250 593 250 q 717 226 717 249 q 726 81 726 191 q 704 -22 726 -14 l 703 -22 q 569 9 691 -22 q 381 43 445 43 q 367 42 373 43 q 186 9 317 39 q 39 -17 64 -17 q 24 -12 26 -17 q 94 75 24 -2 q 11 -3 11 18 q 3 145 5 17 q 3 218 3 184 q 7 370 3 305 l 49 387 q 24 402 38 391 q 9 429 9 418 l 9 430 q 12 481 12 463 q 7 508 12 508 l 7 507 q 12 550 12 517 q 6 643 12 576 q 0 734 0 709 q 15 783 0 780 q 51 785 21 783 q 249 787 159 785 l 273 766 l 290 787 q 435 781 328 783 l 458 781 q 582 790 561 781 q 602 795 595 795 q 620 771 620 795 q 616 743 620 759 q 606 665 614 742 q 591 555 598 580 q 570 551 590 551 q 490 557 555 551 q 393 562 425 562 q 319 538 338 562 l 314 540 q 307 553 314 549 q 298 563 298 560 q 302 570 298 564 q 309 585 307 576 q 311 593 311 589 q 286 620 311 608 q 300 585 300 599 q 292 561 300 579 l 297 538 q 286 506 286 513 q 261 493 286 498 q 222 508 233 496 q 203 512 218 512 q 162 504 183 512 q 140 486 141 496 l 140 471 q 179 404 140 425 q 180 398 180 401 q 168 365 180 385 q 144 327 157 346 q 192 400 192 380 q 170 423 192 403 q 149 472 149 441 q 150 481 149 476 q 192 503 153 503 q 216 495 209 503 q 292 484 229 484 q 351 485 302 484 q 397 486 399 486 l 408 489 q 402 450 403 471 q 429 494 416 484 m 495 101 q 467 91 488 100 q 427 83 449 83 l 422 83 q 446 69 422 79 l 448 69 q 495 101 471 69 m 193 1081 q 207 1126 193 1100 q 241 1159 222 1159 q 265 1145 254 1159 q 267 1148 267 1146 q 260 1163 267 1152 q 251 1181 251 1177 q 252 1184 251 1183 q 319 1226 299 1226 q 331 1224 326 1226 q 432 1181 381 1203 q 484 1090 484 1151 q 481 1057 484 1076 q 439 978 473 1013 q 332 931 397 933 q 308 871 308 902 q 315 837 308 852 q 227 961 264 874 q 193 1081 193 1035 m 373 979 q 441 1051 435 1012 l 402 1025 l 373 979 z "},"é":{"ha":752,"x_min":0,"x_max":726,"o":"m 559 568 q 569 566 565 566 q 579 572 576 566 q 585 621 585 604 l 559 568 m 429 494 q 498 498 436 498 q 631 495 548 498 q 639 496 635 496 q 658 477 652 496 q 659 463 659 471 q 639 339 659 428 q 612 318 630 323 q 307 310 450 311 q 286 334 294 319 q 283 351 283 345 q 298 365 283 365 q 305 369 305 365 q 298 382 305 374 q 273 339 273 376 q 290 264 290 292 q 268 203 290 228 q 299 240 288 224 q 555 250 440 249 q 557 232 557 250 q 561 213 557 213 q 579 232 564 213 q 597 250 593 250 q 717 226 717 249 q 726 81 726 191 q 704 -22 726 -14 l 703 -22 q 569 9 691 -22 q 381 43 445 43 q 367 42 373 43 q 186 9 317 39 q 39 -17 64 -17 q 24 -12 26 -17 q 94 75 24 -2 q 11 -3 11 18 q 3 145 5 17 q 3 218 3 184 q 7 370 3 305 l 49 387 q 24 402 38 391 q 9 429 9 418 l 9 430 q 12 481 12 463 q 7 508 12 508 l 7 507 q 12 550 12 517 q 6 643 12 576 q 0 734 0 709 q 15 783 0 780 q 51 785 21 783 q 249 787 159 785 l 273 766 l 290 787 q 435 781 328 783 l 458 781 q 582 790 561 781 q 602 795 595 795 q 620 771 620 795 q 616 743 620 759 q 606 665 614 742 q 591 555 598 580 q 570 551 590 551 q 490 557 555 551 q 393 562 425 562 q 319 538 338 562 l 314 540 q 307 553 314 549 q 298 563 298 560 q 302 570 298 564 q 309 585 307 576 q 311 593 311 589 q 286 620 311 608 q 300 585 300 599 q 292 561 300 579 l 297 538 q 286 506 286 513 q 261 493 286 498 q 222 508 233 496 q 203 512 218 512 q 162 504 183 512 q 140 486 141 496 l 140 471 q 179 404 140 425 q 180 398 180 401 q 168 365 180 385 q 144 327 157 346 q 192 400 192 380 q 170 423 192 403 q 149 472 149 441 q 150 481 149 476 q 192 503 153 503 q 216 495 209 503 q 292 484 229 484 q 351 485 302 484 q 397 486 399 486 l 408 489 q 402 450 403 471 q 429 494 416 484 m 495 101 q 467 91 488 100 q 427 83 449 83 l 422 83 q 446 69 422 79 l 448 69 q 495 101 471 69 m 463 1081 q 430 961 463 1035 q 340 837 392 874 q 349 871 349 852 q 324 931 349 902 q 217 978 259 933 q 175 1057 183 1013 q 172 1090 172 1076 q 224 1181 172 1151 q 325 1224 275 1203 q 338 1226 330 1226 q 404 1184 357 1226 q 406 1181 406 1183 q 396 1163 406 1177 q 389 1148 389 1152 q 391 1145 389 1146 q 415 1159 403 1159 q 449 1126 434 1159 q 463 1081 463 1100 m 283 979 l 254 1025 l 215 1051 q 283 979 221 1012 z "},"ê":{"ha":752,"x_min":0,"x_max":726,"o":"m 559 568 q 569 566 565 566 q 579 572 576 566 q 585 621 585 604 l 559 568 m 429 494 q 498 498 436 498 q 631 495 548 498 q 639 496 635 496 q 658 477 652 496 q 659 463 659 471 q 639 339 659 428 q 612 318 630 323 q 307 310 450 311 q 286 334 294 319 q 283 351 283 345 q 298 365 283 365 q 305 369 305 365 q 298 382 305 374 q 273 339 273 376 q 290 264 290 292 q 268 203 290 228 q 299 240 288 224 q 555 250 440 249 q 557 232 557 250 q 561 213 557 213 q 579 232 564 213 q 597 250 593 250 q 717 226 717 249 q 726 81 726 191 q 704 -22 726 -14 l 703 -22 q 569 9 691 -22 q 381 43 445 43 q 367 42 373 43 q 186 9 317 39 q 39 -17 64 -17 q 24 -12 26 -17 q 94 75 24 -2 q 11 -3 11 18 q 3 145 5 17 q 3 218 3 184 q 7 370 3 305 l 49 387 q 24 402 38 391 q 9 429 9 418 l 9 430 q 12 481 12 463 q 7 508 12 508 l 7 507 q 12 550 12 517 q 6 643 12 576 q 0 734 0 709 q 15 783 0 780 q 51 785 21 783 q 249 787 159 785 l 273 766 l 290 787 q 435 781 328 783 l 458 781 q 582 790 561 781 q 602 795 595 795 q 620 771 620 795 q 616 743 620 759 q 606 665 614 742 q 591 555 598 580 q 570 551 590 551 q 490 557 555 551 q 393 562 425 562 q 319 538 338 562 l 314 540 q 307 553 314 549 q 298 563 298 560 q 302 570 298 564 q 309 585 307 576 q 311 593 311 589 q 286 620 311 608 q 300 585 300 599 q 292 561 300 579 l 297 538 q 286 506 286 513 q 261 493 286 498 q 222 508 233 496 q 203 512 218 512 q 162 504 183 512 q 140 486 141 496 l 140 471 q 179 404 140 425 q 180 398 180 401 q 168 365 180 385 q 144 327 157 346 q 192 400 192 380 q 170 423 192 403 q 149 472 149 441 q 150 481 149 476 q 192 503 153 503 q 216 495 209 503 q 292 484 229 484 q 351 485 302 484 q 397 486 399 486 l 408 489 q 402 450 403 471 q 429 494 416 484 m 495 101 q 467 91 488 100 q 427 83 449 83 l 422 83 q 446 69 422 79 l 448 69 q 495 101 471 69 m 517 882 l 488 929 l 449 955 q 517 882 454 916 m 350 1184 q 623 1021 623 1062 q 623 1017 623 1019 q 572 916 609 987 q 536 848 537 848 q 531 848 536 848 q 498 845 523 848 q 330 975 422 907 q 311 997 320 978 q 304 1022 304 1013 q 304 1024 304 1024 q 292 997 302 1024 l 318 962 l 177 842 l 45 962 q 39 987 39 975 q 45 1004 39 998 q 164 1095 77 1030 q 292 1175 273 1175 q 315 1187 308 1175 q 330 1200 321 1200 q 350 1184 349 1200 z "},"ë":{"ha":752,"x_min":0,"x_max":726,"o":"m 559 568 q 569 566 565 566 q 579 572 576 566 q 585 621 585 604 l 559 568 m 429 494 q 498 498 436 498 q 631 495 548 498 q 639 496 635 496 q 658 477 652 496 q 659 463 659 471 q 639 339 659 428 q 612 318 630 323 q 307 310 450 311 q 286 334 294 319 q 283 351 283 345 q 298 365 283 365 q 305 369 305 365 q 298 382 305 374 q 273 339 273 376 q 290 264 290 292 q 268 203 290 228 q 299 240 288 224 q 555 250 440 249 q 557 232 557 250 q 561 213 557 213 q 579 232 564 213 q 597 250 593 250 q 717 226 717 249 q 726 81 726 191 q 704 -22 726 -14 l 703 -22 q 569 9 691 -22 q 381 43 445 43 q 367 42 373 43 q 186 9 317 39 q 39 -17 64 -17 q 24 -12 26 -17 q 94 75 24 -2 q 11 -3 11 18 q 3 145 5 17 q 3 218 3 184 q 7 370 3 305 l 49 387 q 24 402 38 391 q 9 429 9 418 l 9 430 q 12 481 12 463 q 7 508 12 508 l 7 507 q 12 550 12 517 q 6 643 12 576 q 0 734 0 709 q 15 783 0 780 q 51 785 21 783 q 249 787 159 785 l 273 766 l 290 787 q 435 781 328 783 l 458 781 q 582 790 561 781 q 602 795 595 795 q 620 771 620 795 q 616 743 620 759 q 606 665 614 742 q 591 555 598 580 q 570 551 590 551 q 490 557 555 551 q 393 562 425 562 q 319 538 338 562 l 314 540 q 307 553 314 549 q 298 563 298 560 q 302 570 298 564 q 309 585 307 576 q 311 593 311 589 q 286 620 311 608 q 300 585 300 599 q 292 561 300 579 l 297 538 q 286 506 286 513 q 261 493 286 498 q 222 508 233 496 q 203 512 218 512 q 162 504 183 512 q 140 486 141 496 l 140 471 q 179 404 140 425 q 180 398 180 401 q 168 365 180 385 q 144 327 157 346 q 192 400 192 380 q 170 423 192 403 q 149 472 149 441 q 150 481 149 476 q 192 503 153 503 q 216 495 209 503 q 292 484 229 484 q 351 485 302 484 q 397 486 399 486 l 408 489 q 402 450 403 471 q 429 494 416 484 m 495 101 q 467 91 488 100 q 427 83 449 83 l 422 83 q 446 69 422 79 l 448 69 q 495 101 471 69 m 299 970 q 188 852 299 879 q 167 850 178 850 q 67 880 120 850 q 11 947 15 910 q 9 974 9 960 q 61 1070 9 1038 q 161 1114 111 1092 q 173 1116 167 1116 q 240 1074 193 1116 q 241 1070 241 1073 q 232 1053 241 1067 q 225 1038 225 1042 q 227 1035 225 1036 q 251 1048 239 1048 q 286 1016 270 1048 q 299 970 299 989 m 119 868 l 90 915 l 51 940 q 119 868 56 901 m 679 970 q 568 852 679 879 q 547 850 558 850 q 447 880 500 850 q 391 947 395 910 q 389 974 389 960 q 441 1070 389 1038 q 541 1114 490 1092 q 553 1116 547 1116 q 620 1074 573 1116 q 621 1070 621 1073 q 612 1053 621 1067 q 605 1038 605 1042 q 606 1035 605 1036 q 631 1048 618 1048 q 665 1016 650 1048 q 679 970 679 989 m 498 868 l 470 915 l 431 940 q 498 868 436 901 z "},"ì":{"ha":337,"x_min":-1,"x_max":304,"o":"m 266 202 q 246 196 266 199 q 226 190 226 192 q 271 173 247 181 q 283 121 275 153 q 294 99 289 110 q 304 66 304 79 q 287 40 304 47 q 181 7 251 26 q 44 -16 91 -16 q 3 0 8 -16 q -1 64 -1 14 q 8 289 -1 137 l 50 305 q 12 314 12 307 l 12 315 q 13 376 13 344 q 7 507 13 438 q 12 550 12 517 q 6 643 12 576 q 0 734 0 709 q 14 783 0 780 q 136 789 72 783 q 155 796 143 796 q 183 790 162 796 q 218 783 204 783 q 248 790 230 783 q 275 798 267 798 q 293 781 293 798 q 292 773 293 777 q 277 620 287 766 q 269 465 269 489 q 266 202 269 448 m 253 724 l 205 750 q 251 670 245 712 l 253 724 m 64 153 q 51 121 58 137 q 33 80 33 81 q 55 89 39 81 l 64 153 m 3 1081 q 17 1126 3 1100 q 51 1159 32 1159 q 75 1145 63 1159 q 77 1148 77 1146 q 70 1163 77 1152 q 60 1181 60 1177 q 62 1184 60 1183 q 128 1226 109 1226 q 141 1224 136 1226 q 242 1181 191 1203 q 294 1090 294 1151 q 291 1057 294 1076 q 249 978 283 1013 q 142 931 207 933 q 117 871 117 902 q 125 837 117 852 q 36 961 74 874 q 3 1081 3 1035 m 183 979 q 251 1051 245 1012 l 212 1025 l 183 979 z "},"í":{"ha":338,"x_min":-2,"x_max":304,"o":"m 266 202 q 246 196 266 199 q 226 190 226 192 q 271 173 247 181 q 284 121 276 153 q 295 99 290 110 q 304 66 304 79 q 287 40 304 47 q 181 7 252 26 q 45 -16 92 -16 q 3 0 8 -16 q -1 64 -1 14 q 8 289 -1 137 l 50 305 q 12 314 12 307 l 12 315 q 13 376 13 344 q 7 507 13 438 q 13 550 13 517 q 6 643 13 576 q 0 734 0 709 q 15 783 0 780 q 136 789 73 783 q 155 796 143 796 q 183 790 162 796 q 218 783 205 783 q 249 790 230 783 q 276 798 267 798 q 293 781 293 798 q 292 773 293 777 q 278 620 287 766 q 269 465 269 489 q 266 202 269 448 m 254 724 l 205 750 q 252 670 245 712 l 254 724 m 64 153 q 51 121 58 137 q 33 80 33 81 q 55 89 39 81 l 64 153 m 290 1081 q 256 961 290 1035 q 168 837 218 874 q 175 871 175 852 q 151 931 175 902 q 43 978 86 933 q 2 1057 9 1013 q -2 1090 -2 1076 q 51 1181 -2 1151 q 151 1224 102 1203 q 164 1226 157 1226 q 230 1184 184 1226 q 232 1181 232 1183 q 222 1163 232 1177 q 216 1148 216 1152 q 217 1145 216 1146 q 241 1159 229 1159 q 276 1126 260 1159 q 290 1081 290 1100 m 109 979 l 81 1025 l 41 1051 q 109 979 47 1012 z "},"î":{"ha":338,"x_min":-145,"x_max":439,"o":"m 266 202 q 246 196 266 199 q 226 190 226 192 q 271 173 247 181 q 284 121 276 153 q 295 99 290 110 q 304 66 304 79 q 288 40 304 47 q 182 7 252 26 q 45 -16 92 -16 q 3 0 8 -16 q 0 64 0 14 q 8 289 0 137 l 50 305 q 12 314 12 307 l 12 315 q 14 376 14 344 q 7 507 14 438 q 13 550 13 517 q 6 643 13 576 q 0 734 0 709 q 15 783 0 780 q 136 789 73 783 q 155 796 144 796 q 184 790 163 796 q 218 783 205 783 q 249 790 231 783 q 276 798 267 798 q 293 781 293 798 l 293 773 q 278 620 288 766 q 269 465 269 489 q 266 202 269 448 m 254 724 l 206 750 q 252 670 245 712 l 254 724 m 65 153 q 52 121 58 137 q 33 80 33 81 q 55 89 39 81 l 65 153 m 333 882 l 304 929 l 265 955 q 333 882 271 916 m 165 1184 q 439 1021 439 1062 q 438 1017 439 1019 q 388 916 425 987 q 351 848 353 848 q 347 848 351 848 q 314 845 339 848 q 146 975 239 907 q 127 997 136 978 q 120 1022 120 1013 q 119 1024 120 1024 q 109 997 117 1024 l 134 962 l -7 842 l -138 962 q -145 987 -145 975 q -138 1004 -145 998 q -20 1095 -107 1030 q 109 1175 90 1175 q 131 1187 124 1175 q 146 1200 137 1200 q 165 1184 165 1200 z "},"ï":{"ha":338,"x_min":-197,"x_max":473,"o":"m 266 202 q 246 196 266 199 q 226 190 226 192 q 271 173 247 181 q 284 121 276 153 q 295 99 290 110 q 304 66 304 79 q 287 40 304 47 q 181 7 252 26 q 45 -16 92 -16 q 3 0 8 -16 q -1 64 -1 14 q 8 289 -1 137 l 50 305 q 12 314 12 307 l 12 315 q 13 376 13 344 q 7 507 13 438 q 13 550 13 517 q 6 643 13 576 q 0 734 0 709 q 15 783 0 780 q 136 789 73 783 q 155 796 143 796 q 183 790 162 796 q 218 783 205 783 q 249 790 230 783 q 276 798 267 798 q 293 781 293 798 q 292 773 293 777 q 278 620 287 766 q 269 465 269 489 q 266 202 269 448 m 254 724 l 205 750 q 252 670 245 712 l 254 724 m 64 153 q 51 121 58 137 q 33 80 33 81 q 55 89 39 81 l 64 153 m 93 970 q -18 852 93 879 q -39 850 -28 850 q -138 880 -86 850 q -195 947 -191 910 q -197 974 -197 960 q -145 1070 -197 1038 q -45 1114 -96 1092 q -33 1116 -39 1116 q 34 1074 -13 1116 q 35 1070 35 1073 q 26 1053 35 1067 q 19 1038 19 1042 q 20 1035 19 1036 q 45 1048 33 1048 q 79 1016 64 1048 q 93 970 93 989 m -87 868 l -116 915 l -155 940 q -87 868 -150 901 m 473 970 q 361 852 473 879 q 340 850 352 850 q 241 880 294 850 q 184 947 189 910 q 182 974 182 960 q 235 1070 182 1038 q 335 1114 284 1092 q 347 1116 340 1116 q 414 1074 367 1116 q 414 1070 414 1073 q 406 1053 414 1067 q 399 1038 399 1042 q 400 1035 399 1036 q 425 1048 412 1048 q 459 1016 444 1048 q 473 970 473 989 m 292 868 l 264 915 l 224 940 q 292 868 230 901 z "}}}
